<svg width="24" height="24" viewBox="0 0 24 24" fill="none" xmlns="http://www.w3.org/2000/svg">
<path fill-rule="evenodd" clip-rule="evenodd" d="M12.0011 4.57019C11.9719 4.64774 11.9408 4.73084 11.9075 4.81991L10.3604 8.95739C10.3573 8.96562 10.3542 8.97399 10.351 8.98247C10.3034 9.11008 10.2457 9.26449 10.1799 9.3955C10.0998 9.55478 9.97466 9.7508 9.75603 9.90964C9.53741 10.0685 9.3123 10.127 9.13609 10.1539C8.99116 10.176 8.8265 10.1831 8.69042 10.189C8.68136 10.1894 8.67244 10.1897 8.66365 10.1901L4.25059 10.383C4.15558 10.3871 4.06693 10.391 3.98415 10.3949C4.04887 10.4466 4.11827 10.5019 4.1927 10.5611L7.6496 13.3111C7.65648 13.3165 7.66348 13.3221 7.67058 13.3277C7.77722 13.4125 7.90625 13.515 8.01049 13.6181C8.13724 13.7434 8.28498 13.9231 8.36849 14.1801C8.452 14.4371 8.43806 14.6692 8.40918 14.8451C8.38544 14.9898 8.34132 15.1486 8.30485 15.2798C8.30243 15.2886 8.30003 15.2972 8.29768 15.3057L7.11737 19.5623C7.09196 19.654 7.0683 19.7395 7.04636 19.8194C7.11559 19.7738 7.18962 19.7249 7.26892 19.6724L10.9525 17.2345C10.9598 17.2297 10.9673 17.2247 10.9748 17.2197C11.0884 17.1445 11.2258 17.0535 11.356 16.9862C11.5144 16.9043 11.7309 16.8193 12.0011 16.8193C12.2714 16.8193 12.4879 16.9043 12.6462 16.9862C12.7765 17.0534 12.9139 17.1445 13.0274 17.2197C13.035 17.2247 13.0424 17.2297 13.0498 17.2345L16.7333 19.6724C16.8126 19.7249 16.8867 19.7739 16.9559 19.8194C16.934 19.7395 16.9103 19.654 16.8849 19.5623L15.7046 15.3057C15.7022 15.2972 15.6998 15.2886 15.6974 15.2799C15.661 15.1486 15.6168 14.9898 15.5931 14.8451C15.5642 14.6692 15.5503 14.4371 15.6338 14.1801C15.7173 13.9231 15.865 13.7434 15.9918 13.6181C16.096 13.515 16.2251 13.4125 16.3317 13.3277C16.3388 13.3221 16.3458 13.3165 16.3527 13.3111L19.8096 10.5611C19.884 10.5019 19.9534 10.4466 20.0181 10.3949C19.9353 10.391 19.8467 10.3871 19.7517 10.383L15.3386 10.1901C15.3298 10.1897 15.3209 10.1894 15.3118 10.189C15.1758 10.1831 15.0111 10.176 14.8662 10.1539C14.69 10.127 14.4649 10.0685 14.2462 9.90964C14.0276 9.7508 13.9024 9.55478 13.8224 9.3955C13.7566 9.26449 13.6989 9.11008 13.6513 8.98247C13.6481 8.97399 13.645 8.96562 13.6419 8.9574L12.0948 4.81991C12.0615 4.73084 12.0304 4.64774 12.0011 4.57019ZM10.7579 2.89476C10.9094 2.61365 11.2727 2.02734 12.0011 2.02734C12.7295 2.02734 13.0929 2.61365 13.2444 2.89476C13.4157 3.21278 13.5814 3.65611 13.7596 4.13268C13.7666 4.15156 13.7737 4.1705 13.7808 4.18948L15.3279 8.32696C15.3362 8.34929 15.3439 8.36985 15.3511 8.38892C15.3715 8.38984 15.3934 8.3908 15.4172 8.39184L19.8909 8.58732C20.3991 8.60945 20.872 8.63004 21.2274 8.69474C21.5415 8.75194 22.2114 8.91633 22.4365 9.60909C22.6616 10.3019 22.2163 10.8286 21.9957 11.0595C21.7462 11.3208 21.3758 11.6154 20.9776 11.932L17.4732 14.7197C17.4546 14.7346 17.4374 14.7482 17.4215 14.7609C17.4269 14.7806 17.4328 14.8017 17.4391 14.8247L18.6195 19.0814C18.6249 19.1009 18.6303 19.1204 18.6357 19.1398C18.7717 19.6301 18.8982 20.0861 18.9465 20.4441C18.9892 20.7606 19.0399 21.4485 18.4506 21.8766C17.8613 22.3048 17.2227 22.044 16.9349 21.9056C16.6093 21.7491 16.2147 21.4878 15.7905 21.207C15.7737 21.1958 15.7568 21.1847 15.7399 21.1735L12.0563 18.7355C12.0364 18.7224 12.0181 18.7103 12.0011 18.6991C11.9841 18.7103 11.9658 18.7224 11.9459 18.7355L8.26235 21.1735C8.24544 21.1847 8.22857 21.1958 8.21175 21.207C7.78754 21.4878 7.39292 21.7491 7.06737 21.9056C6.77959 22.044 6.14101 22.3048 5.55171 21.8766C4.96242 21.4485 5.01307 20.7606 5.05576 20.4441C5.10405 20.0861 5.23058 19.63 5.3666 19.1398L6.56313 14.8247C6.5695 14.8017 6.57536 14.7806 6.58078 14.7609C6.56485 14.7482 6.54768 14.7346 6.52902 14.7197L3.07212 11.9698C3.05626 11.9572 3.04043 11.9446 3.02465 11.932C2.62645 11.6154 2.25603 11.3208 2.00653 11.0595C1.78598 10.8286 1.34066 10.3019 1.56575 9.60909C1.79084 8.91633 2.46073 8.75194 2.77489 8.69474C3.1303 8.63004 3.60313 8.60945 4.11141 8.58732C4.13156 8.58644 4.15176 8.58556 4.17201 8.58468L8.58507 8.39184C8.60889 8.3908 8.63081 8.38984 8.65117 8.38892C8.65833 8.36985 8.66602 8.34929 8.67437 8.32696L10.2215 4.18948C10.2286 4.17048 10.2357 4.15153 10.2427 4.13263C10.4208 3.65608 10.5865 3.21277 10.7579 2.89476Z" fill="white"/>
</svg>
