<svg width="21" height="21" viewBox="0 0 21 21" fill="none" xmlns="http://www.w3.org/2000/svg">
<path d="M8.5 4H12.5C12.5 3.46957 12.2893 2.96086 11.9142 2.58579C11.5391 2.21071 11.0304 2 10.5 2C9.96957 2 9.46086 2.21071 9.08579 2.58579C8.71071 2.96086 8.5 3.46957 8.5 4ZM7 4C7 3.54037 7.09053 3.08525 7.26642 2.66061C7.44231 2.23597 7.70012 1.85013 8.02513 1.52513C8.35013 1.20012 8.73597 0.942313 9.16061 0.766422C9.58525 0.59053 10.0404 0.5 10.5 0.5C10.9596 0.5 11.4148 0.59053 11.8394 0.766422C12.264 0.942313 12.6499 1.20012 12.9749 1.52513C13.2999 1.85013 13.5577 2.23597 13.7336 2.66061C13.9095 3.08525 14 3.54037 14 4H19.75C19.9489 4 20.1397 4.07902 20.2803 4.21967C20.421 4.36032 20.5 4.55109 20.5 4.75C20.5 4.94891 20.421 5.13968 20.2803 5.28033C20.1397 5.42098 19.9489 5.5 19.75 5.5H18.43L17.26 17.611C17.1702 18.539 16.738 19.4002 16.0477 20.0268C15.3573 20.6534 14.4583 21.0004 13.526 21H7.474C6.54186 21.0001 5.6431 20.653 4.95295 20.0265C4.2628 19.3999 3.83073 18.5388 3.741 17.611L2.57 5.5H1.25C1.05109 5.5 0.860322 5.42098 0.71967 5.28033C0.579018 5.13968 0.5 4.94891 0.5 4.75C0.5 4.55109 0.579018 4.36032 0.71967 4.21967C0.860322 4.07902 1.05109 4 1.25 4H7ZM9 8.75C9 8.55109 8.92098 8.36032 8.78033 8.21967C8.63968 8.07902 8.44891 8 8.25 8C8.05109 8 7.86032 8.07902 7.71967 8.21967C7.57902 8.36032 7.5 8.55109 7.5 8.75V16.25C7.5 16.4489 7.57902 16.6397 7.71967 16.7803C7.86032 16.921 8.05109 17 8.25 17C8.44891 17 8.63968 16.921 8.78033 16.7803C8.92098 16.6397 9 16.4489 9 16.25V8.75ZM12.75 8C12.9489 8 13.1397 8.07902 13.2803 8.21967C13.421 8.36032 13.5 8.55109 13.5 8.75V16.25C13.5 16.4489 13.421 16.6397 13.2803 16.7803C13.1397 16.921 12.9489 17 12.75 17C12.5511 17 12.3603 16.921 12.2197 16.7803C12.079 16.6397 12 16.4489 12 16.25V8.75C12 8.55109 12.079 8.36032 12.2197 8.21967C12.3603 8.07902 12.5511 8 12.75 8ZM5.234 17.467C5.28794 18.0236 5.54724 18.5403 5.96137 18.9161C6.37549 19.292 6.91475 19.5001 7.474 19.5H13.526C14.0853 19.5001 14.6245 19.292 15.0386 18.9161C15.4528 18.5403 15.7121 18.0236 15.766 17.467L16.924 5.5H4.076L5.234 17.467Z" fill="white"/>
</svg>
