<svg width="24" height="24" viewBox="0 0 24 24" fill="none" xmlns="http://www.w3.org/2000/svg">
<g filter="url(#filter0_b_7639_15217)">
<path fill-rule="evenodd" clip-rule="evenodd" d="M11.7537 4.35222C10.1906 2.82463 8.14488 2.00903 5.77242 2.62937C2.73456 3.42371 1.1001 6.17062 1.1001 9.00011C1.1001 11.8973 2.46194 14.3279 4.22311 16.2385C5.98222 18.1469 8.19127 19.596 10.0373 20.5612L10.1339 20.6118C10.747 20.9334 11.2839 21.215 12.0001 21.215C12.7163 21.215 13.2532 20.9334 13.8663 20.6118L13.9629 20.5612C15.8089 19.596 18.018 18.1469 19.7771 16.2385C21.5383 14.3279 22.9001 11.8973 22.9001 9.00011C22.9001 6.17062 21.2656 3.42371 18.2278 2.62937C15.8553 2.00903 13.8096 2.82463 12.2465 4.35222C12.1506 4.44587 12.0706 4.52401 12.0001 4.59123C11.9296 4.52401 11.8496 4.44587 11.7537 4.35222ZM10.4957 5.63957C9.28897 4.4603 7.87007 3.9414 6.22777 4.37083C4.1267 4.92021 2.9001 6.8296 2.9001 9.00011C2.9001 11.2989 3.97558 13.3142 5.5466 15.0185C7.11969 16.7251 9.13772 18.0597 10.8712 18.966C11.6231 19.3591 11.7711 19.415 12.0001 19.415C12.2291 19.415 12.3771 19.3591 13.1289 18.966C14.8625 18.0597 16.8805 16.7251 18.4536 15.0185C20.0246 13.3142 21.1001 11.2989 21.1001 9.00011C21.1001 6.8296 19.8735 4.92021 17.7724 4.37083C16.1301 3.9414 14.7112 4.4603 13.5045 5.63957L13.477 5.66642C13.2772 5.86179 13.0808 6.05381 12.9068 6.19228C12.7413 6.32409 12.4263 6.55227 12.0001 6.55227C11.5739 6.55227 11.2589 6.32409 11.0933 6.19228C10.9194 6.05381 10.723 5.86179 10.5231 5.66642L10.4957 5.63957Z" fill="white"/>
<path d="M6.22777 4.37083C7.87007 3.9414 9.28897 4.4603 10.4957 5.63957L10.5231 5.66642C10.723 5.86179 10.9194 6.05381 11.0933 6.19228C11.2589 6.32409 11.5739 6.55227 12.0001 6.55227C12.4263 6.55227 12.7413 6.32409 12.9068 6.19228C13.0808 6.05381 13.2772 5.86179 13.477 5.66642L13.5045 5.63957C14.7112 4.4603 16.1301 3.9414 17.7724 4.37083C19.8735 4.92021 21.1001 6.8296 21.1001 9.00011C21.1001 11.2989 20.0246 13.3142 18.4536 15.0185C16.8805 16.7251 14.8625 18.0597 13.1289 18.966C12.3771 19.3591 12.2291 19.415 12.0001 19.415C11.7711 19.415 11.6231 19.3591 10.8712 18.966C9.13772 18.0597 7.11969 16.7251 5.5466 15.0185C3.97558 13.3142 2.9001 11.2989 2.9001 9.00011C2.9001 6.8296 4.1267 4.92021 6.22777 4.37083Z" fill="white"/>
</g>
<defs>
<filter id="filter0_b_7639_15217" x="-25.2999" y="-23.9796" width="74.5998" height="71.5944" filterUnits="userSpaceOnUse" color-interpolation-filters="sRGB">
<feFlood flood-opacity="0" result="BackgroundImageFix"/>
<feGaussianBlur in="BackgroundImageFix" stdDeviation="13.2"/>
<feComposite in2="SourceAlpha" operator="in" result="effect1_backgroundBlur_7639_15217"/>
<feBlend mode="normal" in="SourceGraphic" in2="effect1_backgroundBlur_7639_15217" result="shape"/>
</filter>
</defs>
</svg>
