<svg width="25" height="24" viewBox="0 0 25 24" fill="none" xmlns="http://www.w3.org/2000/svg">
<g filter="url(#filter0_b_9619_287)">
<path fill-rule="evenodd" clip-rule="evenodd" d="M12.6536 4.35222C11.0905 2.82463 9.04478 2.00903 6.67232 2.62937C3.63446 3.42371 2 6.17062 2 9.00011C2 11.8973 3.36184 14.3279 5.12301 16.2385C6.88212 18.1469 9.09117 19.596 10.9372 20.5612L11.0338 20.6118C11.6469 20.9334 12.1838 21.215 12.9 21.215C13.6162 21.215 14.1531 20.9334 14.7662 20.6118L14.8628 20.5612C16.7088 19.596 18.9179 18.1469 20.677 16.2385C22.4382 14.3279 23.8 11.8973 23.8 9.00011C23.8 6.17062 22.1655 3.42371 19.1277 2.62937C16.7552 2.00903 14.7095 2.82463 13.1464 4.35222C13.0505 4.44587 12.9705 4.52401 12.9 4.59123C12.8295 4.52401 12.7495 4.44587 12.6536 4.35222ZM11.3956 5.63957C10.1889 4.4603 8.76997 3.9414 7.12768 4.37083C5.0266 4.92021 3.8 6.8296 3.8 9.00011C3.8 11.2989 4.87548 13.3142 6.4465 15.0185C8.01959 16.7251 10.0376 18.0597 11.7712 18.966C12.523 19.3591 12.671 19.415 12.9 19.415C13.129 19.415 13.277 19.3591 14.0288 18.966C15.7624 18.0597 17.7804 16.7251 19.3535 15.0185C20.9245 13.3142 22 11.2989 22 9.00011C22 6.8296 20.7734 4.92021 18.6723 4.37083C17.03 3.9414 15.6111 4.4603 14.4044 5.63957L14.377 5.66642C14.1771 5.86179 13.9807 6.05381 13.8068 6.19228C13.6412 6.32409 13.3262 6.55227 12.9 6.55227C12.4738 6.55227 12.1588 6.32409 11.9932 6.19228C11.8193 6.05381 11.6229 5.86179 11.423 5.66642L11.3956 5.63957Z" fill="white"/>
</g>
<defs>
<filter id="filter0_b_9619_287" x="-24.4" y="-23.9796" width="74.5998" height="71.5944" filterUnits="userSpaceOnUse" color-interpolation-filters="sRGB">
<feFlood flood-opacity="0" result="BackgroundImageFix"/>
<feGaussianBlur in="BackgroundImageFix" stdDeviation="13.2"/>
<feComposite in2="SourceAlpha" operator="in" result="effect1_backgroundBlur_9619_287"/>
<feBlend mode="normal" in="SourceGraphic" in2="effect1_backgroundBlur_9619_287" result="shape"/>
</filter>
</defs>
</svg>
