<svg width="24" height="24" viewBox="0 0 24 24" fill="none" xmlns="http://www.w3.org/2000/svg">
<path fill-rule="evenodd" clip-rule="evenodd" d="M11.3212 5.04399C10.9436 5.33208 10.4928 5.7802 9.80816 6.46486L5.97973 10.2933C4.77168 11.5013 4.35621 11.9393 4.13616 12.4706C3.91612 13.0018 3.90019 13.6053 3.90019 15.3137V17C3.90019 17.9683 3.9021 18.6039 3.96539 19.0747C4.02519 19.5195 4.12457 19.6801 4.22237 19.7779C4.32017 19.8757 4.48074 19.975 4.92557 20.0348C5.39629 20.0981 6.03194 20.1 7.00019 20.1C8.04924 20.1 8.10019 20.073 8.10019 19V15.9707C8.10017 15.2843 8.05254 14.5382 8.32094 13.8903C8.61527 13.1797 9.17983 12.6151 9.89041 12.3208C10.2021 12.1917 10.5199 12.1433 10.8446 12.1212C11.6052 12.0693 12.3952 12.0693 13.1558 12.1212C13.4805 12.1433 13.7983 12.1917 14.11 12.3208C14.8206 12.6151 15.3851 13.1797 15.6794 13.8903C15.9478 14.5382 15.9002 15.2843 15.9002 15.9707V19C15.9002 20.0491 15.9272 20.1 17.0002 20.1C17.9684 20.1 18.6041 20.0981 19.0748 20.0348C19.5196 19.975 19.6802 19.8757 19.778 19.7779C19.8758 19.6801 19.9752 19.5195 20.035 19.0747C20.0983 18.6039 20.1002 17.9683 20.1002 17V15.3137C20.1002 13.6053 20.0843 13.0018 19.8642 12.4706C19.6442 11.9393 19.2287 11.5013 18.0206 10.2933L14.1922 6.46486C13.5076 5.78021 13.0567 5.33208 12.6791 5.04399C12.3223 4.77173 12.1385 4.72847 12.0002 4.72847C11.8619 4.72847 11.6781 4.77173 11.3212 5.04399ZM8.21739 21.8554C8.5895 21.8054 9.00215 21.6851 9.34369 21.3435C9.68523 21.002 9.80552 20.5893 9.85555 20.2172C9.90033 19.8842 9.90027 19.4782 9.9002 19.0508L9.90019 16C9.90019 15.5218 9.90068 15.2082 9.91713 14.967C9.94691 14.5306 10.1534 14.1602 10.5792 13.9838C10.6351 13.9606 10.7341 13.9329 10.9671 13.917C11.6469 13.8706 12.3535 13.8706 13.0332 13.917C13.2663 13.9329 13.3653 13.9606 13.4211 13.9838C13.847 14.1602 14.0535 14.5306 14.0832 14.967C14.0997 15.2082 14.1002 15.5218 14.1002 16L14.1002 19.0508C14.1001 19.4782 14.1 19.8842 14.1448 20.2172C14.1949 20.5893 14.3151 21.002 14.6567 21.3435C14.9982 21.6851 15.4109 21.8054 15.783 21.8554C16.2054 21.9122 16.6354 21.9001 17.0607 21.9C17.9518 21.9001 18.7098 21.9001 19.3147 21.8188C19.9591 21.7322 20.5628 21.5386 21.0508 21.0506C21.5388 20.5627 21.7323 19.9589 21.8189 19.3145C21.9003 18.7096 21.9002 17.9517 21.9002 17.0605C21.9002 16.4192 21.9 15.7778 21.9002 15.1364C21.9008 13.6732 21.9012 12.6847 21.5272 11.7817C21.1532 10.8788 20.4539 10.1801 19.4188 9.14583C19.3776 9.1046 19.3358 9.06283 19.2934 9.0205L15.4223 5.14932C14.7922 4.51915 14.2562 3.98317 13.771 3.61295C13.254 3.21853 12.6903 2.92847 12.0002 2.92847C11.3101 2.92847 10.7463 3.21853 10.2294 3.61295C9.74416 3.98317 9.20824 4.51914 8.57813 5.1493L4.70694 9.0205C4.6646 9.06283 4.6228 9.1046 4.58153 9.14584C3.54647 10.1801 2.84719 10.8788 2.47318 11.7817C2.09917 12.6847 2.09956 13.6732 2.10014 15.1364C2.1004 15.7778 2.10019 16.4192 2.10019 17.0605C2.10015 17.9517 2.10011 18.7096 2.18144 19.3145C2.26808 19.9589 2.46159 20.5627 2.94958 21.0506C3.43757 21.5386 4.0413 21.7322 4.68572 21.8188C5.29062 21.9001 6.04857 21.9001 6.93972 21.9C7.36498 21.9001 7.79496 21.9122 8.21739 21.8554Z" fill="white"/>
</svg>
