<svg width="24" height="24" viewBox="0 0 24 24" fill="none" xmlns="http://www.w3.org/2000/svg">
<path fill-rule="evenodd" clip-rule="evenodd" d="M8.21739 21.8554C8.58951 21.8054 9.00216 21.6851 9.3437 21.3436C9.68524 21.002 9.80553 20.5894 9.85556 20.2172C9.90034 19.8842 9.90027 19.4782 9.9002 19.0508L9.9002 16C9.9002 15.5218 9.90068 15.2082 9.91714 14.967C9.94691 14.5306 10.1534 14.1602 10.5792 13.9838C10.6351 13.9607 10.7341 13.9329 10.9671 13.917C11.6469 13.8706 12.3535 13.8706 13.0332 13.917C13.2663 13.9329 13.3653 13.9607 13.4211 13.9838C13.847 14.1602 14.0535 14.5306 14.0833 14.967C14.0997 15.2082 14.1002 15.5218 14.1002 16L14.1002 19.0508C14.1001 19.4782 14.1001 19.8842 14.1448 20.2172C14.1949 20.5894 14.3152 21.002 14.6567 21.3436C14.9982 21.6851 15.4109 21.8054 15.783 21.8554C16.2054 21.9122 16.6354 21.9001 17.0607 21.9C17.9518 21.9001 18.7098 21.9001 19.3147 21.8188C19.9591 21.7322 20.5628 21.5386 21.0508 21.0507C21.5388 20.5627 21.7323 19.9589 21.8189 19.3145C21.9003 18.7096 21.9002 17.9517 21.9002 17.0605C21.9002 16.4192 21.9 15.7778 21.9002 15.1364C21.9008 13.6732 21.9012 12.6847 21.5272 11.7817C21.1532 10.8788 20.4539 10.1801 19.4188 9.14584C19.3776 9.10461 19.3358 9.06284 19.2934 9.0205L15.4223 5.14931C14.7922 4.51915 14.2562 3.98317 13.771 3.61295C13.254 3.21853 12.6903 2.92847 12.0002 2.92847C11.3101 2.92847 10.7463 3.21853 10.2294 3.61295C9.74417 3.98317 9.20824 4.51914 8.57814 5.1493L4.70694 9.0205C4.66461 9.06284 4.62281 9.10461 4.58154 9.14585C3.54647 10.1801 2.84719 10.8788 2.47318 11.7817C2.09917 12.6847 2.09956 13.6732 2.10014 15.1364C2.1004 15.7778 2.10019 16.4192 2.10019 17.0605C2.10015 17.9517 2.10011 18.7096 2.18144 19.3145C2.26808 19.9589 2.4616 20.5627 2.94958 21.0507C3.43757 21.5386 4.0413 21.7322 4.68573 21.8188C5.29063 21.9001 6.04858 21.9001 6.93972 21.9C7.36498 21.9001 7.79497 21.9122 8.21739 21.8554Z" fill="white"/>
</svg>
