<svg width="24" height="24" viewBox="0 0 24 24" fill="none" xmlns="http://www.w3.org/2000/svg">
<g clip-path="url(#clip0_7639_15205)">
<path fill-rule="evenodd" clip-rule="evenodd" d="M9.5 18C13.6421 18 17 14.6421 17 10.5C17 6.35786 13.6421 3 9.5 3C5.35786 3 2 6.35786 2 10.5C2 11.6124 2.63826 13.0952 3.19366 14.175L2.5 17.5L5.7346 16.6889C6.86813 17.3236 8.3466 18 9.5 18ZM5.98535 8.85679C5.98535 8.4774 6.29326 8.1695 6.67264 8.1695H12.6669C12.7572 8.1695 12.8466 8.18728 12.9299 8.22182C13.0133 8.25635 13.0891 8.30698 13.1529 8.3708C13.2167 8.43462 13.2674 8.51039 13.3019 8.59377C13.3364 8.67716 13.3542 8.76653 13.3542 8.85679C13.3542 8.94704 13.3364 9.03642 13.3019 9.1198C13.2674 9.20319 13.2167 9.27895 13.1529 9.34278C13.0891 9.4066 13.0133 9.45722 12.9299 9.49176C12.8466 9.5263 12.7572 9.54408 12.6669 9.54408H6.67264C6.29326 9.54408 5.98535 9.23617 5.98535 8.85679ZM6.96994 11.3621C6.78766 11.3621 6.61285 11.4345 6.48396 11.5634C6.35506 11.6923 6.28265 11.8671 6.28265 12.0494C6.28265 12.2316 6.35506 12.4065 6.48396 12.5353C6.61285 12.6642 6.78766 12.7367 6.96994 12.7367H10.6969C10.8792 12.7367 11.054 12.6642 11.1829 12.5353C11.3118 12.4065 11.3842 12.2316 11.3842 12.0494C11.3842 11.8671 11.3118 11.6923 11.1829 11.5634C11.054 11.4345 10.8792 11.3621 10.6969 11.3621H6.96994Z" fill="white"/>
<path d="M9.48125 2C8.09394 1.99958 6.72893 2.34913 5.51256 3.01629C4.2962 3.68345 3.26778 4.64666 2.52249 5.81678C1.7772 6.9869 1.33912 8.32612 1.24879 9.7105C1.15847 11.0949 1.41881 12.4797 2.00574 13.7367L1.20959 16.8619C1.15107 17.0915 1.15288 17.3323 1.21483 17.561C1.27679 17.7896 1.39679 17.9984 1.5632 18.167C1.72961 18.3356 1.93677 18.4584 2.16459 18.5234C2.39241 18.5883 2.63316 18.5933 2.86348 18.5378C3.68823 18.3399 4.95614 18.0353 6.08549 17.7659C7.20684 18.2715 8.42709 18.52 9.65688 18.493C10.8867 18.466 12.0948 18.1642 13.1929 17.6098C14.291 17.0554 15.2511 16.2624 16.0031 15.2889C16.755 14.3154 17.2796 13.186 17.5385 11.9835C17.7975 10.781 17.7841 9.53577 17.4995 8.33906C17.2149 7.14236 16.6661 6.02449 15.8935 5.06731C15.1209 4.11013 14.144 3.33789 13.0343 2.80716C11.9246 2.27643 10.7102 2.00064 9.48015 2M2.88217 10.2475C2.88261 8.81274 3.35069 7.41725 4.21549 6.27245C5.0803 5.12765 6.29469 4.29593 7.67466 3.90333C9.05463 3.51072 10.525 3.57863 11.8629 4.09675C13.2008 4.61488 14.3333 5.55498 15.089 6.77462C15.8446 7.99425 16.182 9.42695 16.0502 10.8556C15.9184 12.2843 15.3245 13.631 14.3585 14.6919C13.3925 15.7527 12.1071 16.4697 10.697 16.7343C9.28684 16.9989 7.8289 16.7966 6.54405 16.1582L6.27573 16.0251L5.98542 16.0944C4.97043 16.3363 3.79709 16.6167 2.91956 16.8279L3.67833 13.85L3.75531 13.5465L3.61235 13.2682C3.13191 12.3338 2.88157 11.2982 2.88217 10.2475ZM14.9785 21.7939C12.8982 21.7964 10.8942 21.0105 9.37018 19.5946H9.48015C10.2697 19.5946 11.0362 19.4967 11.7674 19.312C12.7187 19.842 13.8128 20.1444 14.9785 20.1444C16.0341 20.1444 17.0304 19.897 17.9146 19.4571L18.1818 19.3241L18.4721 19.3934C19.486 19.6353 20.634 19.8827 21.4852 20.0642C21.2927 19.2383 21.0299 18.1332 20.7792 17.149L20.7022 16.8454L20.8452 16.5672C21.326 15.6329 21.5767 14.5972 21.5764 13.5465C21.5765 12.4434 21.3 11.358 20.7723 10.3894C20.2446 9.42082 19.4825 8.59998 18.5557 8.00196C18.3623 7.21633 18.0665 6.45952 17.6759 5.75095C18.7676 6.12896 19.7677 6.73202 20.6115 7.52107C21.4554 8.31012 22.1241 9.26759 22.5744 10.3315C23.0247 11.3954 23.2466 12.542 23.2256 13.697C23.2047 14.8521 22.9414 15.9899 22.4529 17.0368C22.7311 18.1453 23.0126 19.3461 23.1907 20.1191C23.243 20.3431 23.2379 20.5766 23.176 20.7981C23.1141 21.0196 22.9973 21.2219 22.8365 21.3863C22.6757 21.5507 22.4761 21.672 22.256 21.7388C22.036 21.8056 21.8026 21.8159 21.5775 21.7686C20.5072 21.546 19.4393 21.3114 18.3742 21.0649C17.3069 21.5462 16.1493 21.7947 14.9785 21.7939Z" fill="white"/>
</g>
<defs>
<clipPath id="clip0_7639_15205">
<rect width="24" height="24" fill="white"/>
</clipPath>
</defs>
</svg>
