<svg width="25" height="24" viewBox="0 0 25 24" fill="none" xmlns="http://www.w3.org/2000/svg">
<path d="M9.58086 2C8.19354 1.99958 6.82854 2.34913 5.61217 3.01629C4.39581 3.68345 3.36739 4.64666 2.6221 5.81678C1.87681 6.9869 1.43873 8.32612 1.3484 9.7105C1.25808 11.0949 1.51842 12.4797 2.10535 13.7367L1.3092 16.8619C1.25068 17.0915 1.25248 17.3323 1.31444 17.561C1.3764 17.7896 1.4964 17.9984 1.66281 18.167C1.82922 18.3356 2.03638 18.4584 2.2642 18.5234C2.49202 18.5883 2.73277 18.5933 2.96309 18.5378C3.78784 18.3399 5.05575 18.0353 6.1851 17.7659C7.30645 18.2715 8.5267 18.52 9.75649 18.493C10.9863 18.466 12.1945 18.1642 13.2925 17.6098C14.3906 17.0554 15.3508 16.2624 16.1027 15.2889C16.8546 14.3154 17.3792 13.186 17.6381 11.9835C17.8971 10.781 17.8837 9.53577 17.5991 8.33906C17.3145 7.14236 16.7657 6.02449 15.9931 5.06731C15.2205 4.11013 14.2436 3.33789 13.1339 2.80716C12.0242 2.27643 10.8098 2.00064 9.57976 2M2.98178 10.2475C2.98222 8.81274 3.4503 7.41725 4.3151 6.27245C5.17991 5.12765 6.3943 4.29593 7.77427 3.90333C9.15424 3.51072 10.6246 3.57863 11.9625 4.09675C13.3004 4.61488 14.433 5.55498 15.1886 6.77462C15.9442 7.99425 16.2816 9.42695 16.1498 10.8556C16.018 12.2843 15.4241 13.631 14.4581 14.6919C13.4921 15.7527 12.2067 16.4697 10.7966 16.7343C9.38645 16.9989 7.92851 16.7966 6.64366 16.1582L6.37534 16.0251L6.08503 16.0944C5.07004 16.3363 3.8967 16.6167 3.01917 16.8279L3.77794 13.85L3.85491 13.5465L3.71196 13.2682C3.23152 12.3338 2.98118 11.2982 2.98178 10.2475ZM15.0781 21.7939C12.9978 21.7964 10.9938 21.0105 9.46979 19.5946H9.57976C10.3693 19.5946 11.1358 19.4967 11.8671 19.312C12.8183 19.842 13.9124 20.1444 15.0781 20.1444C16.1338 20.1444 17.13 19.897 18.0142 19.4571L18.2814 19.3241L18.5717 19.3934C19.5856 19.6353 20.7336 19.8827 21.5848 20.0642C21.3923 19.2383 21.1295 18.1332 20.8788 17.149L20.8018 16.8454L20.9448 16.5672C21.4256 15.6329 21.6763 14.5972 21.6761 13.5465C21.6761 12.4434 21.3997 11.358 20.8719 10.3894C20.3442 9.42082 19.5821 8.59998 18.6553 8.00196C18.4619 7.21633 18.1661 6.45952 17.7755 5.75095C18.8672 6.12896 19.8673 6.73202 20.7112 7.52107C21.555 8.31012 22.2237 9.26759 22.674 10.3315C23.1243 11.3954 23.3462 12.542 23.3252 13.697C23.3043 14.8521 23.041 15.9899 22.5525 17.0368C22.8307 18.1453 23.1122 19.3461 23.2904 20.1191C23.3426 20.3431 23.3375 20.5766 23.2756 20.7981C23.2137 21.0196 23.0969 21.2219 22.9361 21.3863C22.7753 21.5507 22.5757 21.672 22.3556 21.7388C22.1356 21.8056 21.9022 21.8159 21.6772 21.7686C20.6068 21.546 19.5389 21.3114 18.4738 21.0649C17.4065 21.5462 16.2489 21.7947 15.0781 21.7939Z" fill="white"/>
<path d="M6.77232 8.16955C6.39294 8.16955 6.08503 8.47745 6.08503 8.85683C6.08503 9.23622 6.39294 9.54412 6.77232 9.54412H12.7666C12.8569 9.54412 12.9462 9.52635 13.0296 9.49181C13.113 9.45727 13.1888 9.40664 13.2526 9.34282C13.3164 9.279 13.367 9.20323 13.4016 9.11985C13.4361 9.03646 13.4539 8.94709 13.4539 8.85683C13.4539 8.76658 13.4361 8.67721 13.4016 8.59382C13.367 8.51044 13.3164 8.43467 13.2526 8.37085C13.1888 8.30703 13.113 8.2564 13.0296 8.22186C12.9462 8.18732 12.8569 8.16955 12.7666 8.16955H6.77232Z" fill="white"/>
<path d="M6.58364 11.5634C6.71253 11.4345 6.88734 11.3621 7.06962 11.3621H10.7966C10.9788 11.3621 11.1537 11.4345 11.2826 11.5634C11.4114 11.6923 11.4839 11.8671 11.4839 12.0494C11.4839 12.2317 11.4114 12.4065 11.2826 12.5354C11.1537 12.6643 10.9788 12.7367 10.7966 12.7367H7.06962C6.88734 12.7367 6.71253 12.6643 6.58364 12.5354C6.45474 12.4065 6.38233 12.2317 6.38233 12.0494C6.38233 11.8671 6.45474 11.6923 6.58364 11.5634Z" fill="white"/>
</svg>
