<svg width="16" height="16" viewBox="0 0 16 16" fill="none" xmlns="http://www.w3.org/2000/svg">
<path d="M7.9987 14.6693C4.3167 14.6693 1.33203 11.6846 1.33203 8.0026C1.33203 4.3206 4.3167 1.33594 7.9987 1.33594C11.6807 1.33594 14.6654 4.3206 14.6654 8.0026C14.6654 11.6846 11.6807 14.6693 7.9987 14.6693ZM7.9987 13.3359C9.41319 13.3359 10.7697 12.774 11.7699 11.7738C12.7701 10.7736 13.332 9.41709 13.332 8.0026C13.332 6.58812 12.7701 5.23156 11.7699 4.23137C10.7697 3.23117 9.41319 2.66927 7.9987 2.66927C6.58421 2.66927 5.22766 3.23117 4.22746 4.23137C3.22727 5.23156 2.66536 6.58812 2.66536 8.0026C2.66536 9.41709 3.22727 10.7736 4.22746 11.7738C5.22766 12.774 6.58421 13.3359 7.9987 13.3359ZM7.33203 4.66927H8.66536V6.0026H7.33203V4.66927ZM7.33203 7.33594H8.66536V11.3359H7.33203V7.33594Z" fill="white"/>
</svg>
