<svg width="25" height="24" viewBox="0 0 25 24" fill="none" xmlns="http://www.w3.org/2000/svg">
<path fill-rule="evenodd" clip-rule="evenodd" d="M12.9751 7.1506C10.7994 7.1506 9.0357 8.91433 9.0357 11.09C9.0357 13.2657 10.7994 15.0294 12.9751 15.0294C15.1508 15.0294 16.9145 13.2657 16.9145 11.09C16.9145 8.91433 15.1508 7.1506 12.9751 7.1506ZM10.8539 11.09C10.8539 9.91848 11.8036 8.96879 12.9751 8.96879C14.1466 8.96879 15.0963 9.91848 15.0963 11.09C15.0963 12.2615 14.1466 13.2112 12.9751 13.2112C11.8036 13.2112 10.8539 12.2615 10.8539 11.09Z" fill="white"/>
<path fill-rule="evenodd" clip-rule="evenodd" d="M12.9751 2.1001C7.45225 2.1001 2.9751 6.57725 2.9751 12.1001C2.9751 15.2419 4.42503 18.0457 6.68876 19.8775C8.40602 21.2671 10.5945 22.1001 12.9751 22.1001C15.3557 22.1001 17.5442 21.2671 19.2614 19.8775C21.5252 18.0457 22.9751 15.2419 22.9751 12.1001C22.9751 6.57725 18.4979 2.1001 12.9751 2.1001ZM4.79328 12.1001C4.79328 7.5814 8.4564 3.91828 12.9751 3.91828C17.4938 3.91828 21.1569 7.5814 21.1569 12.1001C21.1569 14.4186 20.1934 16.5116 18.6423 18.0014C17.0315 16.8917 15.0783 16.2415 12.9751 16.2415C10.8719 16.2415 8.91871 16.8917 7.30789 18.0014C5.75682 16.5116 4.79328 14.4186 4.79328 12.1001ZM12.9751 18.0597C14.4781 18.0597 15.8851 18.4643 17.0948 19.1708C15.8851 19.8773 14.4781 20.2819 12.9751 20.2819C11.4721 20.2819 10.0651 19.8773 8.85541 19.1708C10.0651 18.4643 11.4721 18.0597 12.9751 18.0597Z" fill="white"/>
</svg>
