<svg width="24" height="24" viewBox="0 0 24 24" fill="none" xmlns="http://www.w3.org/2000/svg">
<circle cx="12" cy="12" r="9" fill="white"/>
<path fill-rule="evenodd" clip-rule="evenodd" d="M18.4162 18.775C18.5165 18.6443 18.6085 18.4961 18.7002 18.359C18.7002 18.359 16.8579 15.5 12.0582 15.5C7.64001 15.5 5.7002 18.775 5.7002 18.775L5.9841 19.1054C6.73436 19.9825 7.66591 20.6866 8.71453 21.169C9.76315 21.6514 10.9039 21.9007 12.0582 21.8996C12.231 21.8996 12.4027 21.8943 12.5733 21.8836C14.0168 21.7926 15.4081 21.31 16.5979 20.4877C17.1669 20.0952 17.6827 19.6305 18.1322 19.1054L18.4162 18.775Z" fill="#222225"/>
<path fill-rule="evenodd" clip-rule="evenodd" d="M12.0001 7.1001C9.84619 7.1001 8.1001 8.84619 8.1001 11.0001C8.1001 13.154 9.84619 14.9001 12.0001 14.9001C14.154 14.9001 15.9001 13.154 15.9001 11.0001C15.9001 8.84619 14.154 7.1001 12.0001 7.1001ZM9.9001 11.0001C9.9001 9.8403 10.8403 8.9001 12.0001 8.9001C13.1599 8.9001 14.1001 9.8403 14.1001 11.0001C14.1001 12.1599 13.1599 13.1001 12.0001 13.1001C10.8403 13.1001 9.9001 12.1599 9.9001 11.0001Z" fill="#222225"/>
<path fill-rule="evenodd" clip-rule="evenodd" d="M12 22C17.5228 22 22 17.5228 22 12C22 6.47715 17.5228 2 12 2C6.47715 2 2 6.47715 2 12C2 17.5228 6.47715 22 12 22ZM12 20C16.4183 20 20 16.4183 20 12C20 7.58172 16.4183 4 12 4C7.58172 4 4 7.58172 4 12C4 16.4183 7.58172 20 12 20Z" fill="white"/>
</svg>
