<svg width="20" height="20" viewBox="0 0 20 20" fill="none" xmlns="http://www.w3.org/2000/svg">
<path fill-rule="evenodd" clip-rule="evenodd" d="M12.9848 14.2575C11.6175 15.3481 9.88489 16 8 16C3.58172 16 0 12.4183 0 8C0 3.58172 3.58172 0 8 0C12.4183 0 16 3.58172 16 8C16 9.88488 15.3481 11.6175 14.2576 12.9847L19.6364 18.3636C19.9879 18.7151 19.9879 19.2849 19.6364 19.6364C19.285 19.9879 18.7151 19.9879 18.3637 19.6364L12.9848 14.2575ZM14.2 8C14.2 11.4242 11.4242 14.2 8 14.2C4.57583 14.2 1.8 11.4242 1.8 8C1.8 4.57583 4.57583 1.8 8 1.8C11.4242 1.8 14.2 4.57583 14.2 8Z" fill="#757575"/>
</svg>
