<svg width="24" height="24" viewBox="0 0 24 24" fill="none" xmlns="http://www.w3.org/2000/svg">
<path d="M20.5714 5.57143H14.8571V3.42857C14.8564 3.05 14.7057 2.68643 14.4379 2.41857C14.1707 2.15143 13.8071 2.00071 13.4286 2H3.42857C3.05 2.00071 2.68643 2.15071 2.41857 2.41857C2.15071 2.68643 2.00071 3.05 2 3.42857V20.5714C2.00071 20.95 2.15143 21.3136 2.41857 21.5807C2.68643 21.8486 3.05 21.9993 3.42857 22H20.5714C20.95 21.9993 21.3129 21.8486 21.5807 21.5807C21.8486 21.3129 21.9993 20.95 22 20.5714V7C21.9993 6.62143 21.8486 6.25786 21.5807 5.99C21.3136 5.72286 20.95 5.57214 20.5714 5.57143ZM9.85714 20.5714H7V17H9.85714V20.5714ZM13.4286 20.5714H11.2857V17C11.285 16.6214 11.1343 16.2579 10.8664 15.9907C10.5993 15.7229 10.2357 15.5721 9.85714 15.5714H7C6.62143 15.5721 6.25786 15.7229 5.99 15.9907C5.72286 16.2579 5.57214 16.6214 5.57143 17V20.5714H3.42857L3.42786 3.42857H13.4286V20.5714ZM20.5714 20.5714H14.8571V7H20.5714V20.5714ZM18.4286 12C18.4286 12.1414 18.3864 12.2793 18.3079 12.3971C18.23 12.5143 18.1179 12.6057 17.9879 12.66C17.8571 12.7143 17.7136 12.7279 17.575 12.7007C17.4364 12.6729 17.3093 12.605 17.2093 12.505C17.1093 12.405 17.0414 12.2779 17.0136 12.1393C16.9864 12.0007 17 11.8571 17.0543 11.7264C17.1086 11.5964 17.2 11.4843 17.3171 11.4064C17.435 11.3279 17.5729 11.2857 17.7143 11.2857C17.9036 11.2857 18.0857 11.3607 18.2193 11.495C18.3536 11.6286 18.4286 11.8107 18.4286 12ZM17 9.14286C17 9.00143 17.0421 8.86357 17.1207 8.74571C17.1986 8.62857 17.3107 8.53714 17.4407 8.48286C17.5714 8.42857 17.715 8.415 17.8536 8.44214C17.9921 8.47 18.1193 8.53786 18.2193 8.63786C18.3193 8.73786 18.3871 8.865 18.415 9.00357C18.4421 9.14214 18.4286 9.28571 18.3743 9.41643C18.32 9.54643 18.2286 9.65857 18.1114 9.73643C17.9936 9.815 17.8557 9.85714 17.7143 9.85714C17.525 9.85714 17.3429 9.78214 17.2093 9.64786C17.075 9.51429 17 9.33214 17 9.14286ZM11.2857 12C11.2857 12.1414 11.2436 12.2793 11.165 12.3971C11.0871 12.5143 10.975 12.6057 10.845 12.66C10.7143 12.7143 10.5707 12.7279 10.4321 12.7007C10.2936 12.6729 10.1664 12.605 10.0664 12.505C9.96643 12.405 9.89857 12.2779 9.87071 12.1393C9.84357 12.0007 9.85714 11.8571 9.91143 11.7264C9.96571 11.5964 10.0571 11.4843 10.1743 11.4064C10.2921 11.3279 10.43 11.2857 10.5714 11.2857C10.7607 11.2857 10.9429 11.3607 11.0764 11.495C11.2107 11.6286 11.2857 11.8107 11.2857 12ZM11.2857 9.14286C11.2857 9.28429 11.2436 9.42214 11.165 9.54C11.0871 9.65714 10.975 9.74857 10.845 9.80286C10.7143 9.85714 10.5707 9.87072 10.4321 9.84357C10.2936 9.81572 10.1664 9.74786 10.0664 9.64786C9.96643 9.54786 9.89857 9.42071 9.87071 9.28214C9.84357 9.14357 9.85714 9 9.91143 8.86929C9.96571 8.73929 10.0571 8.62714 10.1743 8.54929C10.2921 8.47072 10.43 8.42857 10.5714 8.42857C10.7607 8.42857 10.9429 8.50357 11.0764 8.63786C11.2107 8.77143 11.2857 8.95357 11.2857 9.14286ZM11.2857 6.28571C11.2857 6.42714 11.2436 6.565 11.165 6.68286C11.0871 6.8 10.975 6.89143 10.845 6.94571C10.7143 7 10.5707 7.01357 10.4321 6.98643C10.2936 6.95857 10.1664 6.89071 10.0664 6.79071C9.96643 6.69071 9.89857 6.56357 9.87071 6.425C9.84357 6.28643 9.85714 6.14286 9.91143 6.01214C9.96571 5.88214 10.0571 5.77 10.1743 5.69214C10.2921 5.61357 10.43 5.57143 10.5714 5.57143C10.7607 5.57143 10.9429 5.64643 11.0764 5.78071C11.2107 5.91429 11.2857 6.09643 11.2857 6.28571ZM7 12C7 12.1414 6.95786 12.2793 6.87929 12.3971C6.80143 12.5143 6.68929 12.6057 6.55929 12.66C6.42857 12.7143 6.285 12.7279 6.14643 12.7007C6.00786 12.6729 5.88071 12.605 5.78071 12.505C5.68071 12.405 5.61286 12.2779 5.585 12.1393C5.55786 12.0007 5.57143 11.8571 5.62571 11.7264C5.68 11.5964 5.77143 11.4843 5.88857 11.4064C6.00643 11.3279 6.14429 11.2857 6.28571 11.2857C6.475 11.2857 6.65714 11.3607 6.79071 11.495C6.925 11.6286 7 11.8107 7 12ZM7 9.14286C7 9.28429 6.95786 9.42214 6.87929 9.54C6.80143 9.65714 6.68929 9.74857 6.55929 9.80286C6.42857 9.85714 6.285 9.87072 6.14643 9.84357C6.00786 9.81572 5.88071 9.74786 5.78071 9.64786C5.68071 9.54786 5.61286 9.42071 5.585 9.28214C5.55786 9.14357 5.57143 9 5.62571 8.86929C5.68 8.73929 5.77143 8.62714 5.88857 8.54929C6.00643 8.47072 6.14429 8.42857 6.28571 8.42857C6.475 8.42857 6.65714 8.50357 6.79071 8.63786C6.925 8.77143 7 8.95357 7 9.14286ZM7 6.28571C7 6.42714 6.95786 6.565 6.87929 6.68286C6.80143 6.8 6.68929 6.89143 6.55929 6.94571C6.42857 7 6.285 7.01357 6.14643 6.98643C6.00786 6.95857 5.88071 6.89071 5.78071 6.79071C5.68071 6.69071 5.61286 6.56357 5.585 6.425C5.55786 6.28643 5.57143 6.14286 5.62571 6.01214C5.68 5.88214 5.77143 5.77 5.88857 5.69214C6.00643 5.61357 6.14429 5.57143 6.28571 5.57143C6.475 5.57143 6.65714 5.64643 6.79071 5.78071C6.925 5.91429 7 6.09643 7 6.28571Z" fill="white"/>
</svg>
