<svg width="24" height="24" viewBox="0 0 24 24" fill="none" xmlns="http://www.w3.org/2000/svg">
<path fill-rule="evenodd" clip-rule="evenodd" d="M11.9997 8.06771C10.5638 8.06771 9.39974 9.23177 9.39974 10.6677C9.39974 12.1036 10.5638 13.2677 11.9997 13.2677C13.4357 13.2677 14.5997 12.1036 14.5997 10.6677C14.5997 9.23177 13.4357 8.06771 11.9997 8.06771ZM10.5997 10.6677C10.5997 9.89451 11.2265 9.26771 11.9997 9.26771C12.7729 9.26771 13.3997 9.89451 13.3997 10.6677C13.3997 11.4409 12.7729 12.0677 11.9997 12.0677C11.2265 12.0677 10.5997 11.4409 10.5997 10.6677Z" fill="white"/>
<path fill-rule="evenodd" clip-rule="evenodd" d="M11.9997 4.73438C9.05191 4.73438 6.06641 6.95493 6.06641 10.6677C6.06641 13.3473 7.96079 15.9144 10.0551 17.8343L10.0844 17.8612C10.3994 18.15 10.6845 18.4114 10.959 18.5936C11.2683 18.7989 11.5966 18.9275 11.9997 18.9275C12.4029 18.9275 12.7312 18.7989 13.0405 18.5936C13.315 18.4114 13.6001 18.15 13.9151 17.8612L13.9444 17.8343C16.0387 15.9144 17.9331 13.3473 17.9331 10.6677C17.9331 6.95493 14.9476 4.73438 11.9997 4.73438ZM7.26641 10.6677C7.26641 7.71382 9.61423 5.93438 11.9997 5.93438C14.3852 5.93438 16.7331 7.71382 16.7331 10.6677C16.7331 12.8189 15.1702 15.0826 13.1335 16.9497C12.7798 17.274 12.5637 17.4697 12.3769 17.5937C12.2164 17.7003 12.1153 17.7275 11.9997 17.7275C11.8842 17.7275 11.7831 17.7003 11.6226 17.5937C11.4357 17.4697 11.2197 17.274 10.866 16.9497C8.82931 15.0826 7.26641 12.8189 7.26641 10.6677Z" fill="white"/>
</svg>
