<svg width="16" height="17" viewBox="0 0 16 17" fill="none" xmlns="http://www.w3.org/2000/svg">
<path fill-rule="evenodd" clip-rule="evenodd" d="M7.99974 4.56673C6.5638 4.56673 5.39974 5.73079 5.39974 7.16673C5.39974 8.60267 6.5638 9.76673 7.99974 9.76673C9.43568 9.76673 10.5997 8.60267 10.5997 7.16673C10.5997 5.73079 9.43568 4.56673 7.99974 4.56673ZM6.59974 7.16673C6.59974 6.39353 7.22654 5.76673 7.99974 5.76673C8.77294 5.76673 9.39974 6.39353 9.39974 7.16673C9.39974 7.93993 8.77294 8.56673 7.99974 8.56673C7.22654 8.56673 6.59974 7.93993 6.59974 7.16673Z" fill="#757575"/>
<path fill-rule="evenodd" clip-rule="evenodd" d="M7.99974 1.2334C5.05191 1.2334 2.06641 3.45395 2.06641 7.16673C2.06641 9.84632 3.96079 12.4134 6.0551 14.3333L6.08444 14.3602C6.3994 14.649 6.68446 14.9104 6.95897 15.0926C7.26831 15.2979 7.59659 15.4266 7.99974 15.4266C8.40289 15.4266 8.73117 15.2979 9.04051 15.0926C9.31502 14.9104 9.60009 14.649 9.91505 14.3602L9.94438 14.3333C12.0387 12.4134 13.9331 9.84632 13.9331 7.16673C13.9331 3.45395 10.9476 1.2334 7.99974 1.2334ZM3.26641 7.16673C3.26641 4.21285 5.61423 2.4334 7.99974 2.4334C10.3852 2.4334 12.7331 4.21285 12.7331 7.16673C12.7331 9.31795 11.1702 11.5817 9.13348 13.4487C8.77977 13.773 8.56374 13.9688 8.3769 14.0928C8.2164 14.1993 8.11526 14.2266 7.99974 14.2266C7.88422 14.2266 7.78308 14.1993 7.62258 14.0928C7.43574 13.9688 7.21971 13.773 6.86599 13.4487C4.82931 11.5817 3.26641 9.31795 3.26641 7.16673Z" fill="#757575"/>
</svg>
