<svg width="16" height="16" viewBox="0 0 16 16" fill="none" xmlns="http://www.w3.org/2000/svg">
<path fill-rule="evenodd" clip-rule="evenodd" d="M8.0001 3.04704C7.98062 3.09874 7.95986 3.15413 7.93766 3.21352L6.90625 5.97184C6.9042 5.97733 6.90212 5.9829 6.90001 5.98856C6.86825 6.07363 6.82982 6.17657 6.78594 6.26391C6.73258 6.3701 6.64912 6.50078 6.50337 6.60667C6.35762 6.71257 6.20755 6.75155 6.09007 6.76949C5.99345 6.78424 5.88369 6.78897 5.79296 6.79289C5.78693 6.79315 5.78097 6.79341 5.77512 6.79366L2.83307 6.92222C2.76973 6.92499 2.71064 6.9276 2.65545 6.93016C2.69859 6.96467 2.74486 7.00152 2.79448 7.04099L5.09908 8.87429C5.10367 8.87794 5.10834 8.88165 5.11307 8.88541C5.18417 8.9419 5.27018 9.01025 5.33968 9.07897C5.42418 9.16253 5.52267 9.28228 5.57834 9.45362C5.63401 9.62497 5.62472 9.77974 5.60547 9.89701C5.58964 9.99345 5.56023 10.0993 5.53592 10.1868C5.5343 10.1926 5.53271 10.1984 5.53114 10.204L4.74426 13.0418C4.72732 13.1029 4.71155 13.1599 4.69692 13.2132C4.74308 13.1828 4.79243 13.1502 4.8453 13.1152L7.30102 11.4899C7.3059 11.4867 7.31086 11.4834 7.31589 11.4801C7.39159 11.4299 7.48319 11.3692 7.57004 11.3243C7.67562 11.2698 7.81994 11.2131 8.0001 11.2131C8.18026 11.2131 8.32459 11.2698 8.43017 11.3243C8.51701 11.3692 8.6086 11.4299 8.6843 11.4801C8.68934 11.4834 8.6943 11.4867 8.69919 11.4899L11.1549 13.1152C11.2078 13.1502 11.2571 13.1828 11.3033 13.2132C11.2887 13.1599 11.2729 13.1029 11.2559 13.0418L10.4691 10.204C10.4675 10.1984 10.4659 10.1926 10.4643 10.1868C10.44 10.0993 10.4106 9.99346 10.3947 9.89701C10.3755 9.77974 10.3662 9.62497 10.4219 9.45362C10.4775 9.28228 10.576 9.16253 10.6605 9.07897C10.73 9.01025 10.816 8.94189 10.8871 8.8854C10.8919 8.88164 10.8965 8.87794 10.9011 8.87429L13.2057 7.04099C13.2553 7.00152 13.3016 6.96467 13.3448 6.93016C13.2896 6.9276 13.2305 6.92499 13.1671 6.92222L10.2251 6.79366C10.2192 6.79341 10.2133 6.79315 10.2072 6.79289C10.1165 6.78897 10.0068 6.78424 9.91014 6.76949C9.79266 6.75155 9.64259 6.71257 9.49684 6.60667C9.35108 6.50078 9.26763 6.3701 9.21427 6.26391C9.17039 6.17657 9.13196 6.07363 9.10019 5.98856C9.09808 5.9829 9.096 5.97733 9.09395 5.97184L8.06255 3.21352C8.04034 3.15413 8.01959 3.09874 8.0001 3.04704ZM7.17127 1.93008C7.27226 1.74267 7.5145 1.35181 8.0001 1.35181C8.48571 1.35181 8.72795 1.74267 8.82893 1.93008C8.94318 2.1421 9.05364 2.43765 9.17239 2.75537C9.17709 2.76795 9.18181 2.78058 9.18654 2.79323L10.2179 5.55155C10.2235 5.56644 10.2286 5.58014 10.2334 5.59286C10.247 5.59347 10.2616 5.59411 10.2775 5.59481L13.2599 5.72512C13.5988 5.73988 13.914 5.7536 14.1509 5.79674C14.3604 5.83487 14.807 5.94446 14.957 6.4063C15.1071 6.86815 14.8102 7.21931 14.6632 7.37327C14.4968 7.54743 14.2499 7.74382 13.9844 7.95493L11.6482 9.81339C11.6357 9.82328 11.6243 9.83239 11.6137 9.84087C11.6173 9.85396 11.6212 9.86806 11.6254 9.88338L12.4123 12.7211C12.4159 12.7342 12.4195 12.7472 12.4231 12.7601C12.5138 13.087 12.5982 13.391 12.6304 13.6296C12.6588 13.8406 12.6926 14.2992 12.2997 14.5847C11.9069 14.8701 11.4811 14.6963 11.2893 14.604C11.0722 14.4996 10.8092 14.3255 10.5264 14.1382C10.5151 14.1308 10.5039 14.1234 10.4926 14.1159L8.0369 12.4906C8.02364 12.4818 8.01144 12.4738 8.0001 12.4663C7.98877 12.4738 7.97656 12.4818 7.96331 12.4906L5.50758 14.1159C5.49631 14.1234 5.48506 14.1308 5.47385 14.1382C5.19104 14.3255 4.92796 14.4996 4.71093 14.604C4.51908 14.6963 4.09336 14.8701 3.70049 14.5847C3.30763 14.2992 3.3414 13.8406 3.36986 13.6296C3.40205 13.391 3.4864 13.0869 3.57708 12.7601L4.37477 9.88338C4.37902 9.86806 4.38292 9.85396 4.38653 9.84087C4.37592 9.83239 4.36447 9.82328 4.35203 9.81339L2.04743 7.9801C2.03685 7.97168 2.0263 7.96329 2.01578 7.95493C1.75032 7.74382 1.50337 7.54743 1.33703 7.37327C1.19001 7.21931 0.893123 6.86815 1.04318 6.4063C1.19325 5.94446 1.63984 5.83487 1.84928 5.79674C2.08621 5.7536 2.40144 5.73988 2.74029 5.72512C2.75372 5.72454 2.76719 5.72395 2.78069 5.72336L5.72273 5.59481C5.73861 5.59411 5.75322 5.59347 5.76679 5.59286C5.77157 5.58014 5.7767 5.56644 5.78226 5.55155L6.81367 2.79323C6.8184 2.78057 6.82313 2.76793 6.82783 2.75533C6.94658 2.43763 7.05704 2.14209 7.17127 1.93008Z" fill="#757575"/>
</svg>
