<svg width="29" height="29" viewBox="0 0 29 29" fill="none" xmlns="http://www.w3.org/2000/svg">
<circle cx="14.5" cy="14.5" r="14.25" fill="#131313" stroke="#757575" stroke-width="0.5"/>
<path d="M12.2825 7.92524C12.0175 7.99055 11.6317 8.20517 11.4317 8.40112C11.3155 8.51309 11.1574 8.76036 11.0226 9.04029L10.7995 9.49285L9.14899 9.51617L7.49853 9.5395L7.14984 9.71213C6.60123 9.98273 6.21535 10.4539 6.06657 11.0325C6.00149 11.2704 5.99219 11.8349 5.99219 15.1941C5.99219 17.8908 6.00614 19.1504 6.04333 19.3231C6.20605 20.0882 6.82439 20.7227 7.57756 20.8953C7.85651 20.9607 21.1439 20.9607 21.4229 20.8953C22.176 20.7227 22.7944 20.0882 22.9571 19.3231C22.9943 19.1504 23.0082 17.8908 23.0082 15.1941C23.0082 11.8349 22.9989 11.2704 22.9339 11.0325C22.7851 10.4539 22.3992 9.98273 21.8506 9.71213L21.5019 9.5395L19.8514 9.51617L18.201 9.49285L17.9778 9.04029C17.7175 8.50842 17.4989 8.27048 17.0619 8.05587L16.7551 7.90657L14.5932 7.89724C13.403 7.89258 12.3662 7.90657 12.2825 7.92524ZM16.7272 9.09628C16.8295 9.17559 16.9689 9.39487 17.1642 9.7961C17.3502 10.174 17.4989 10.412 17.5826 10.4726C17.7082 10.5612 17.8058 10.5659 19.5213 10.5892L21.3252 10.6126L21.5251 10.7525C21.6321 10.8272 21.7669 10.9765 21.818 11.0791C21.9157 11.2611 21.9157 11.3171 21.9296 15.1381C21.9389 17.8441 21.9296 19.0618 21.8924 19.1878C21.8273 19.4164 21.5902 19.6823 21.3578 19.785C21.1811 19.8689 20.8557 19.8736 14.5002 19.8736C8.14476 19.8736 7.81932 19.8689 7.64265 19.785C7.41019 19.6823 7.17308 19.4164 7.10799 19.1878C7.0708 19.0618 7.0615 17.8441 7.0708 15.1381C7.08475 11.3171 7.08475 11.2611 7.18238 11.0791C7.23352 10.9765 7.36835 10.8272 7.47528 10.7525L7.6752 10.6126L9.47908 10.5892C11.1946 10.5659 11.2923 10.5612 11.4178 10.4726C11.5015 10.412 11.6503 10.1693 11.8316 9.80077C12.1384 9.18492 12.171 9.13827 12.3848 9.0263C12.5057 8.96564 12.7847 8.95631 14.5514 8.96564L16.5784 8.97964L16.7272 9.09628Z" fill="#757575"/>
<path d="M13.9658 11.3823C12.6361 11.5922 11.4924 12.5207 11.0321 13.7617C10.3673 15.5486 11.1112 17.5081 12.7802 18.3759C13.4032 18.7025 13.7287 18.7771 14.5004 18.7771C15.0769 18.7771 15.2257 18.7631 15.5233 18.6698C17.0714 18.1846 18.1036 16.8876 18.2058 15.3153C18.2988 13.827 17.4806 12.3994 16.1556 11.7555C15.8998 11.6295 15.5512 11.4942 15.3838 11.4523C14.9933 11.3636 14.3191 11.331 13.9658 11.3823ZM15.0351 12.4787C16.2625 12.7353 17.1458 13.8317 17.1505 15.0913C17.1505 15.7958 16.8901 16.407 16.3648 16.9389C15.8162 17.4894 15.2536 17.7274 14.5004 17.7274C13.7473 17.7274 13.1847 17.4894 12.6361 16.9389C11.5807 15.8752 11.5854 14.2656 12.6454 13.1972C13.273 12.5626 14.161 12.2967 15.0351 12.4787Z" fill="#757575"/>
</svg>
