<svg width="12" height="14" viewBox="0 0 12 14" fill="none" xmlns="http://www.w3.org/2000/svg">
<path fill-rule="evenodd" clip-rule="evenodd" d="M6.00026 3.55827C4.74381 3.55827 3.72526 4.57682 3.72526 5.83327C3.72526 7.08972 4.74381 8.10827 6.00026 8.10827C7.25671 8.10827 8.27526 7.08972 8.27526 5.83327C8.27526 4.57682 7.25671 3.55827 6.00026 3.55827ZM4.77526 5.83327C4.77526 5.15672 5.32371 4.60827 6.00026 4.60827C6.67681 4.60827 7.22526 5.15672 7.22526 5.83327C7.22526 6.50982 6.67681 7.05827 6.00026 7.05827C5.32371 7.05827 4.77526 6.50982 4.77526 5.83327Z" fill="white"/>
<path fill-rule="evenodd" clip-rule="evenodd" d="M6.00026 0.641602C3.42091 0.641602 0.808594 2.58459 0.808594 5.83327C0.808594 8.17791 2.46618 10.4241 4.2987 12.104L4.32437 12.1276C4.59996 12.3802 4.84939 12.609 5.08959 12.7684C5.36026 12.948 5.64751 13.0606 6.00026 13.0606C6.35302 13.0606 6.64026 12.948 6.91093 12.7684C7.15113 12.609 7.40057 12.3802 7.67616 12.1275L7.70182 12.104C9.53434 10.4241 11.1919 8.17791 11.1919 5.83327C11.1919 2.58459 8.57961 0.641602 6.00026 0.641602ZM1.85859 5.83327C1.85859 3.24862 3.91294 1.6916 6.00026 1.6916C8.08758 1.6916 10.1419 3.24862 10.1419 5.83327C10.1419 7.71558 8.77439 9.69634 6.99229 11.33C6.68279 11.6138 6.49376 11.785 6.33028 11.8935C6.18984 11.9868 6.10134 12.0106 6.00026 12.0106C5.89918 12.0106 5.81068 11.9868 5.67024 11.8935C5.50676 11.785 5.31773 11.6138 5.00823 11.33C3.22613 9.69634 1.85859 7.71558 1.85859 5.83327Z" fill="white"/>
</svg>
