<svg width="19" height="13" viewBox="0 0 19 13" fill="none" xmlns="http://www.w3.org/2000/svg">
<path d="M1.30013 0.0077343C0.664094 0.14756 0.175377 0.606003 0.0350754 1.19739C0.00467672 1.33034 0 1.97216 0 6.50157C0 11.0264 0.00467672 11.6751 0.0350754 11.8058C0.161347 12.333 0.570559 12.7662 1.11306 12.945L1.27674 13H9.49607H17.7154L17.8791 12.945C18.4216 12.7662 18.8285 12.3353 18.9571 11.8012C18.9921 11.6636 18.9968 11.1846 18.9992 7.1434C19.0015 4.66551 18.9992 2.31829 18.9898 1.92861C18.9758 1.23865 18.9734 1.21344 18.915 1.05069C18.8261 0.81001 18.7209 0.647263 18.5338 0.461593C18.3468 0.275924 18.155 0.154436 17.9095 0.0650396L17.7388 0.00314999L9.54284 0.000858307C5.03448 -0.00143337 1.32585 0.000858307 1.30013 0.0077343ZM13.5297 4.75949C11.4463 6.80185 9.7416 8.47288 9.7416 8.47288C9.7416 8.47288 8.03694 6.80185 5.95346 4.75949L2.16532 1.04611H9.7416H17.3179L13.5297 4.75949ZM13.822 5.9629L17.9025 1.96299L17.9142 2.1968C17.9212 2.32746 17.9258 4.48443 17.9235 6.9944C17.9212 11.9777 17.9305 11.6247 17.7879 11.7897C17.7551 11.8287 17.6803 11.8837 17.6265 11.9089L17.526 11.957H9.49607H1.46615L1.3656 11.9089C1.31182 11.8837 1.23699 11.8287 1.20425 11.7897C1.06161 11.6247 1.07097 11.9754 1.06863 7.00586C1.06629 4.50276 1.06863 2.23347 1.07331 1.96299L1.08032 1.47246L5.41096 5.71764L9.7416 9.96282L13.822 5.9629Z" fill="#757575"/>
</svg>
