<svg width="24" height="23" viewBox="0 0 24 23" fill="none" xmlns="http://www.w3.org/2000/svg">
<path d="M4.89246 0.408585C3.64264 1.01813 3.02734 2.06579 3.02734 3.53251C3.02734 4.48492 3.12348 4.84684 3.5465 5.47543C4.45022 6.82786 6.44993 7.43741 7.98817 6.78977C9.08417 6.35166 10.2378 4.67541 10.2378 3.53251C10.2378 2.92296 9.75715 1.81816 9.21876 1.20861C8.12277 -0.0295258 6.4307 -0.353347 4.89246 0.408585ZM7.62284 1.43719C9.3149 2.23722 9.3149 4.82779 7.62284 5.62782C5.95 6.4088 4.21948 5.3421 4.21948 3.53251C4.21948 1.72292 5.95 0.656213 7.62284 1.43719Z" fill="white"/>
<path d="M15.9484 0.389581C14.1794 1.342 13.5834 3.81828 14.7178 5.51358C15.8138 7.15173 18.2942 7.57079 19.8132 6.3517C20.7554 5.60882 21.1977 4.71355 21.1977 3.53255C21.1977 2.35156 20.7554 1.45629 19.794 0.694354C18.8326 -0.0675783 17.0636 -0.200917 15.9484 0.389581ZM19.4095 1.98964C19.9286 2.54204 20.044 2.82776 20.044 3.53255C20.044 4.23734 19.9286 4.52306 19.4095 5.07546C18.1596 6.42789 16.1022 6.02788 15.4485 4.31353C15.1985 3.68494 15.1985 3.47541 15.4485 2.80872C16.0638 1.03722 18.1404 0.618161 19.4095 1.98964Z" fill="white"/>
<path d="M10.3339 6.56128C8.56496 7.36131 7.62279 9.38043 8.12272 11.2281C8.23809 11.7043 8.6611 12.3901 9.10335 12.8663L9.87247 13.7044L9.12257 14.0854C8.04581 14.6378 6.68062 16.2188 6.27683 17.3807C5.66153 19.2094 6.23837 22.2952 7.23823 22.5619C7.77661 22.6952 16.1793 22.6952 16.6984 22.5619C17.4098 22.3714 17.8329 21.0951 17.8329 19.2475C17.8329 17.876 17.756 17.476 17.3137 16.6759C16.7561 15.5902 15.4486 14.3139 14.5449 13.952L13.968 13.7044L14.7756 12.9044C16.5638 11.1329 16.2754 8.31373 14.1411 6.86606C13.2951 6.29461 11.2569 6.12317 10.3339 6.56128ZM13.3143 7.79942C14.1988 8.25658 14.7179 9.1709 14.7179 10.2376C14.7179 11.19 14.3141 11.8567 13.3143 12.5234C11.6607 13.6473 9.21871 12.2758 9.21871 10.2376C9.21871 8.67565 10.4301 7.43751 11.9683 7.43751C12.3337 7.43751 12.9489 7.58989 13.3143 7.79942ZM14.0642 15.0568C16.1023 16.0854 17.1791 18.4093 16.6023 20.5427L16.3715 21.3428H11.9683H7.56511L7.33437 20.5427C6.64216 17.9903 8.25731 15.3426 10.9108 14.6568C11.7376 14.4473 13.2566 14.6378 14.0642 15.0568Z" fill="white"/>
<path d="M3.777 7.83764C2.39259 8.35194 1.31582 9.34245 0.623611 10.752C-0.145509 12.2759 -0.203193 14.1045 0.450559 15.6093L0.854347 16.5808H3.2963C5.89209 16.5808 6.35356 16.4475 5.98823 15.7808C5.8344 15.476 5.54598 15.4379 3.71932 15.4379H1.62347L1.41196 14.8474C0.450559 12.1235 2.41182 9.03768 5.33447 8.63767C6.25742 8.52338 6.69966 8.18051 6.50738 7.72335C6.35356 7.32333 4.98837 7.36143 3.777 7.83764Z" fill="white"/>
<path d="M17.5442 7.7231C17.2557 8.06597 17.5826 8.58027 18.1018 8.58027C18.8901 8.58027 20.4091 9.18982 21.1398 9.81841C22.1973 10.7137 22.7357 11.8947 22.7357 13.3233C22.7357 13.9519 22.6588 14.6757 22.5434 14.9424C22.3704 15.4186 22.3127 15.4186 20.1976 15.4758L18.0249 15.5329V16.0091V16.4853L20.5822 16.5425L23.1395 16.5996L23.5048 15.7805C24.9277 12.5614 23.1587 8.71361 19.7938 7.7231C18.5632 7.36118 17.8518 7.36118 17.5442 7.7231Z" fill="white"/>
</svg>
