<svg width="19" height="19" viewBox="0 0 19 19" fill="none" xmlns="http://www.w3.org/2000/svg">
<path d="M13.0507 12.9531L13.4945 12.486L12.4348 11.4795L11.991 11.9467L13.0507 12.9531ZM14.9547 12.2892L16.8161 13.3607L17.5452 12.0941L15.6838 11.0226L14.9547 12.2892ZM17.1754 15.5821L15.7912 17.0393L16.8509 18.0458L18.235 16.5886L17.1754 15.5821ZM14.9585 17.5062C13.5603 17.6442 9.91215 17.5264 5.95234 13.3575L4.89268 14.364C9.2083 18.9076 13.325 19.136 15.102 18.9607L14.9585 17.5062ZM5.95234 13.3575C2.17573 9.38136 1.54225 6.02749 1.46329 4.55643L0.00390225 4.63476C0.100604 6.43652 0.865626 10.1243 4.89268 14.364L5.95234 13.3575ZM7.29238 6.89078L7.57182 6.59657L6.51216 5.59006L6.23271 5.88427L7.29238 6.89078ZM7.79133 2.93357L6.56276 1.19587L5.36941 2.03961L6.59803 3.7773L7.79133 2.93357ZM2.40434 0.821242L0.875038 2.43131L1.9347 3.43782L3.464 1.82775L2.40434 0.821242ZM6.76254 6.38752C6.23271 5.88427 6.23136 5.88569 6.23136 5.88569L6.22999 5.88715L6.22716 5.89018C6.22524 5.89225 6.22325 5.8944 6.22121 5.89665C6.21712 5.90114 6.21279 5.906 6.20823 5.91125C6.19912 5.92173 6.1891 5.93371 6.17839 5.94725C6.15698 5.97431 6.13275 6.00758 6.10733 6.04729C6.05636 6.12695 6.00108 6.23186 5.95426 6.36341C5.85907 6.63093 5.8072 6.9852 5.87202 7.42761C5.99937 8.29684 6.56893 9.46574 8.05703 11.0325L9.11671 10.026C7.72576 8.56146 7.3831 7.65953 7.31807 7.21573C7.28669 7.00163 7.31857 6.88881 7.33118 6.85338C7.33826 6.83347 7.3429 6.82793 7.33836 6.83503C7.33617 6.83845 7.33178 6.8449 7.32442 6.85422C7.32072 6.85888 7.31629 6.86425 7.31099 6.87035C7.30834 6.87339 7.30547 6.87662 7.30238 6.88003C7.30083 6.88173 7.29922 6.88348 7.29756 6.88527L7.29501 6.88799L7.29371 6.88937C7.29371 6.88937 7.29238 6.89078 6.76254 6.38752ZM8.05703 11.0325C9.54084 12.5946 10.6614 13.2087 11.5164 13.3476C11.9551 13.4188 12.3103 13.3619 12.5792 13.2559C12.7106 13.204 12.8146 13.1431 12.8926 13.0878C12.9316 13.0601 12.964 13.0339 12.9901 13.011C13.0033 12.9995 13.0148 12.9888 13.0248 12.9791C13.0299 12.9743 13.0346 12.9696 13.0389 12.9653C13.041 12.9632 13.0431 12.961 13.045 12.959L13.0479 12.9561L13.0493 12.9546C13.0493 12.9546 13.0507 12.9531 12.5208 12.4499C11.991 11.9467 11.9923 11.9453 11.9923 11.9453L11.9936 11.9438L11.9962 11.9412C11.998 11.9395 11.9996 11.9377 12.0012 11.936C12.0045 11.9328 12.0076 11.9297 12.0106 11.9269C12.0164 11.9212 12.0218 11.9164 12.0264 11.9123C12.0357 11.9041 12.0426 11.8988 12.0471 11.8957C12.0563 11.8892 12.0553 11.8914 12.0429 11.8963C12.0241 11.9037 11.9355 11.935 11.7507 11.905C11.3584 11.8412 10.5121 11.4951 9.11671 10.026L8.05703 11.0325ZM6.56276 1.19587C5.57519 -0.200906 3.59904 -0.436556 2.40434 0.821242L3.464 1.82775C3.97342 1.29143 4.87022 1.33356 5.36941 2.03961L6.56276 1.19587ZM1.46329 4.55643C1.44241 4.16738 1.61181 3.77775 1.9347 3.43782L0.875038 2.43131C0.352945 2.98097 -0.0438787 3.74455 0.00390225 4.63476L1.46329 4.55643ZM15.7912 17.0393C15.5194 17.3255 15.235 17.4789 14.9585 17.5062L15.102 18.9607C15.8299 18.8888 16.419 18.5006 16.8509 18.0458L15.7912 17.0393ZM7.57182 6.59657C8.51458 5.60404 8.58132 4.0508 7.79133 2.93357L6.59803 3.7773C7.00933 4.35904 6.94626 5.13303 6.51216 5.59006L7.57182 6.59657ZM16.8161 13.3607C17.6159 13.8211 17.7724 14.9535 17.1754 15.5821L18.235 16.5886C19.5064 15.2499 19.1362 13.0099 17.5452 12.0941L16.8161 13.3607ZM13.4945 12.486C13.87 12.0906 14.4551 12.0017 14.9547 12.2892L15.6838 11.0226C14.6135 10.4065 13.286 10.5832 12.4348 11.4795L13.4945 12.486Z" fill="#757575"/>
</svg>
