<svg width="17" height="18" viewBox="0 0 17 18" fill="none" xmlns="http://www.w3.org/2000/svg">
<path d="M7.43663 0.5C9.40822 0.50239 11.2984 1.28666 12.6925 2.68078C14.0866 4.0749 14.8709 5.96505 14.8733 7.93663C14.868 9.5382 14.3409 11.0944 13.3718 12.3695L16.6868 15.6845C16.7859 15.783 16.8645 15.9002 16.9183 16.0292C16.972 16.1582 16.9998 16.2965 17 16.4363C17.0002 16.576 16.9728 16.7144 16.9194 16.8436C16.866 16.9727 16.7877 17.0901 16.6889 17.1889C16.5901 17.2877 16.4727 17.366 16.3436 17.4194C16.2144 17.4728 16.076 17.5002 15.9363 17.5C15.7965 17.4998 15.6582 17.472 15.5292 17.4183C15.4002 17.3645 15.283 17.2859 15.1845 17.1868L11.8695 13.8718C10.5944 14.8409 9.0382 15.368 7.43663 15.3733C5.46432 15.3733 3.57278 14.5898 2.17814 13.1951C0.783501 11.8005 0 9.90895 0 7.93663C0 5.96431 0.783501 4.07278 2.17814 2.67814C3.57278 1.2835 5.46432 0.5 7.43663 0.5ZM7.43663 13.2485C8.48722 13.2485 9.51422 12.937 10.3878 12.3533C11.2613 11.7696 11.9421 10.94 12.3442 9.9694C12.7462 8.99878 12.8514 7.93074 12.6464 6.90034C12.4415 5.86993 11.9356 4.92345 11.1927 4.18057C10.4498 3.43769 9.50333 2.93178 8.47293 2.72682C7.44252 2.52186 6.37448 2.62705 5.40386 3.02909C4.43324 3.43114 3.60364 4.11198 3.01996 4.98551C2.43629 5.85904 2.12475 6.88604 2.12475 7.93663C2.12641 9.34492 2.68658 10.6951 3.68239 11.6909C4.6782 12.6867 6.02834 13.2469 7.43663 13.2485Z" fill="#757575"/>
</svg>
