<svg width="24" height="24" viewBox="0 0 24 24" fill="none" xmlns="http://www.w3.org/2000/svg">
<path d="M10.5594 0.0671959C9.46021 0.421995 8.85193 1.26061 8.85193 2.40027C8.85193 2.76582 8.79858 2.90559 8.57448 3.07761C8.13695 3.42166 7.85949 3.35715 7.19787 2.77657C5.93864 1.65842 4.75411 1.76593 3.34549 3.10987C2.4064 4.00224 2.09693 4.60432 2.09693 5.44294C2.09693 6.19554 2.31036 6.70086 2.86527 7.3137C3.3775 7.87277 3.43086 8.23832 3.03602 8.62538C2.83326 8.84041 2.66252 8.89417 2.26767 8.89417C1.25389 8.90492 0.346821 9.60376 0.11205 10.5714C-0.0373499 11.1627 -0.0373499 12.8615 0.11205 13.4528C0.357492 14.4204 1.25389 15.1193 2.26767 15.13C3.31347 15.13 3.4522 15.5063 2.73722 16.3127C2.01156 17.1191 1.83015 18.0867 2.23566 18.9791C2.4811 19.5274 3.56959 20.6993 4.24189 21.1509C5.12761 21.7422 6.10938 21.6777 6.93108 20.9896C7.43264 20.5595 7.89151 20.5058 8.31836 20.7961C8.72388 21.0756 8.84126 21.2799 8.85193 21.6992C8.85193 22.5593 9.33215 23.3657 10.0578 23.7635C10.4633 23.9785 10.6554 24 12 24C13.3446 24 13.5367 23.9785 13.9422 23.7635C14.6999 23.3549 15.1481 22.5485 15.1481 21.6239C15.1481 21.2584 15.2014 21.1186 15.4255 20.9466C15.8204 20.6348 16.1405 20.667 16.5674 21.0433C16.7701 21.2154 17.0582 21.4089 17.2183 21.4734C17.5918 21.6132 18.3602 21.6132 18.7337 21.4734C19.1392 21.3121 21.092 19.3661 21.3482 18.8715C21.711 18.1512 21.5723 17.2803 20.9853 16.5707C20.4091 15.8826 20.7932 15.13 21.7323 15.13C22.7461 15.1193 23.6532 14.4204 23.888 13.4528C24.0373 12.8615 24.0373 11.1627 23.888 10.5714C23.7492 10.0231 23.269 9.38873 22.8101 9.1522C22.6287 9.05544 22.1912 8.93717 21.8284 8.89417C21.2948 8.8189 21.1241 8.73289 20.8893 8.46411C20.5478 8.0878 20.4731 7.39971 20.7612 7.17393C20.8466 7.08792 21.0494 6.81913 21.1988 6.55034C21.5936 5.88375 21.5936 5.02363 21.1988 4.35704C20.8466 3.7442 19.5127 2.47553 18.9471 2.21749C18.0507 1.80894 16.9942 2.03472 16.1298 2.80882C15.4789 3.41091 15.1481 3.29264 15.1481 2.43252C15.1481 1.46489 14.7105 0.680031 13.9422 0.271475C13.558 0.0671959 13.3019 0.0241909 12.1601 0.00268745C11.4237 -0.00806427 10.7088 0.0134392 10.5594 0.0671959ZM13.5794 1.56165C13.8035 1.79819 13.8675 1.97021 13.8675 2.34651C13.8675 3.3894 14.3477 4.14201 15.1694 4.35704C15.8417 4.53981 16.45 4.32479 17.0582 3.69045C17.4958 3.23888 17.976 3.10987 18.4135 3.33565C18.5843 3.42166 19.0751 3.86247 19.502 4.30328C20.4197 5.26016 20.4624 5.4967 19.9075 6.20629C19.1925 7.10942 19.1498 8.14156 19.7688 9.07694C20.1636 9.66827 20.8573 10.0768 21.4655 10.0768C21.9458 10.0768 22.458 10.3134 22.6181 10.6037C22.7568 10.8724 22.7568 13.1518 22.6181 13.4205C22.458 13.7216 21.9458 13.9474 21.4335 13.9474C20.5265 13.9474 19.7581 14.5709 19.47 15.5386C19.3313 16.0116 19.5233 16.7212 19.9182 17.2481C20.5265 18.0544 20.4838 18.205 19.2886 19.3876C18.1467 20.5273 17.944 20.6025 17.3677 20.0865C16.8341 19.6241 16.546 19.5059 15.9484 19.5059C14.7105 19.5059 13.8675 20.4305 13.8675 21.8067C13.8675 22.0862 13.7821 22.269 13.5687 22.4733C13.2806 22.7528 13.2272 22.7636 12 22.7636C10.7728 22.7636 10.7194 22.7528 10.4313 22.4733C10.2392 22.2905 10.1325 22.0755 10.1325 21.882C10.1325 21.2154 9.88706 20.581 9.44953 20.1295C8.58515 19.2156 7.21921 19.1296 6.28012 19.9252C5.56514 20.5273 5.26634 20.4628 4.25256 19.4629C3.04669 18.2802 2.98266 17.8932 3.84704 16.904C4.4233 16.2482 4.55136 15.8181 4.38061 15.173C4.17786 14.4204 3.51623 13.9474 2.66252 13.9474C2.06492 13.9474 1.55269 13.7323 1.38195 13.4205C1.24322 13.1518 1.24322 10.8724 1.38195 10.6037C1.54202 10.3026 2.05425 10.0768 2.56647 10.0768C3.23877 10.0768 3.9004 9.71128 4.22054 9.16295C4.77546 8.20607 4.66874 7.44271 3.83637 6.48583C3.3775 5.95901 3.3028 5.80849 3.3028 5.43219C3.3028 5.01288 3.36683 4.91612 4.13517 4.14201C4.9462 3.33565 4.98888 3.30339 5.47977 3.30339C5.92797 3.30339 6.03468 3.35715 6.48288 3.77646C7.15518 4.40005 7.40062 4.51831 8.07292 4.51831C8.51045 4.51831 8.75589 4.44305 9.14006 4.20652C9.73766 3.83022 10.0151 3.3249 10.1005 2.47553C10.1432 2.01322 10.2285 1.77668 10.4313 1.5509C10.6981 1.26061 10.7301 1.26061 12 1.26061C13.2806 1.26061 13.3019 1.26061 13.5794 1.56165Z" fill="white"/>
<path d="M10.6555 7.80824C8.61724 8.46408 7.28331 10.6574 7.66748 12.7217C8.32911 16.3879 12.7471 17.6996 15.2442 14.9687C16.1406 13.9903 16.5674 12.5711 16.3433 11.3562C15.9272 9.10917 14.1557 7.59321 11.9574 7.61471C11.5732 7.61471 10.9863 7.70072 10.6555 7.80824ZM13.4087 9.18443C14.0063 9.46397 14.4865 9.93703 14.8493 10.6466C15.0521 11.0122 15.0948 11.2702 15.0948 12.0121C15.0948 12.7539 15.0521 13.012 14.8493 13.3775C14.2304 14.5602 13.2593 15.1623 12.0001 15.1623C10.7408 15.1623 9.76975 14.5602 9.15081 13.3775C8.79865 12.7324 8.79865 11.2917 9.15081 10.6466C10.0152 9.00165 11.7546 8.39957 13.4087 9.18443Z" fill="white"/>
</svg>
