<svg width="18" height="18" viewBox="0 0 18 18" fill="none" xmlns="http://www.w3.org/2000/svg">
<path d="M16.7143 3.21429H11.5714V1.28571C11.5708 0.945 11.4351 0.617786 11.1941 0.376715C10.9536 0.136286 10.6264 0.000642857 10.2857 0H1.28571C0.945 0.000642857 0.617786 0.135643 0.376715 0.376715C0.135643 0.617786 0.000642857 0.945 0 1.28571V16.7143C0.000642857 17.055 0.136286 17.3822 0.376715 17.6226C0.617786 17.8637 0.945 17.9994 1.28571 18H16.7143C17.055 17.9994 17.3816 17.8637 17.6226 17.6226C17.8637 17.3816 17.9994 17.055 18 16.7143V4.5C17.9994 4.15929 17.8637 3.83207 17.6226 3.591C17.3822 3.35057 17.055 3.21493 16.7143 3.21429ZM7.07143 16.7143H4.5V13.5H7.07143V16.7143ZM10.2857 16.7143H8.35714V13.5C8.3565 13.1593 8.22086 12.8321 7.97979 12.5916C7.73936 12.3506 7.41214 12.2149 7.07143 12.2143H4.5C4.15929 12.2149 3.83207 12.3506 3.591 12.5916C3.35057 12.8321 3.21493 13.1593 3.21429 13.5V16.7143H1.28571L1.28507 1.28571H10.2857V16.7143ZM16.7143 16.7143H11.5714V4.5H16.7143V16.7143ZM14.7857 9C14.7857 9.12729 14.7478 9.25136 14.6771 9.35743C14.607 9.46286 14.5061 9.54514 14.3891 9.594C14.2714 9.64286 14.1422 9.65507 14.0175 9.63064C13.8928 9.60557 13.7784 9.5445 13.6884 9.4545C13.5984 9.3645 13.5373 9.25007 13.5122 9.12536C13.4878 9.00064 13.5 8.87143 13.5489 8.75379C13.5977 8.63679 13.68 8.53586 13.7854 8.46579C13.8915 8.39507 14.0156 8.35714 14.1429 8.35714C14.3132 8.35714 14.4771 8.42464 14.5974 8.5455C14.7182 8.66571 14.7857 8.82964 14.7857 9ZM13.5 6.42857C13.5 6.30129 13.5379 6.17721 13.6086 6.07114C13.6787 5.96571 13.7796 5.88343 13.8966 5.83457C14.0143 5.78571 14.1435 5.7735 14.2682 5.79793C14.3929 5.823 14.5074 5.88407 14.5974 5.97407C14.6874 6.06407 14.7484 6.1785 14.7735 6.30321C14.7979 6.42793 14.7857 6.55714 14.7369 6.67479C14.688 6.79179 14.6057 6.89271 14.5003 6.96279C14.3942 7.0335 14.2701 7.07143 14.1429 7.07143C13.9725 7.07143 13.8086 7.00393 13.6884 6.88307C13.5675 6.76286 13.5 6.59893 13.5 6.42857ZM8.35714 9C8.35714 9.12729 8.31921 9.25136 8.2485 9.35743C8.17843 9.46286 8.0775 9.54514 7.9605 9.594C7.84286 9.64286 7.71364 9.65507 7.58893 9.63064C7.46421 9.60557 7.34979 9.5445 7.25979 9.4545C7.16979 9.3645 7.10871 9.25007 7.08364 9.12536C7.05921 9.00064 7.07143 8.87143 7.12029 8.75379C7.16914 8.63679 7.25143 8.53586 7.35686 8.46579C7.46293 8.39507 7.587 8.35714 7.71429 8.35714C7.88464 8.35714 8.04857 8.42464 8.16879 8.5455C8.28964 8.66571 8.35714 8.82964 8.35714 9ZM8.35714 6.42857C8.35714 6.55586 8.31921 6.67993 8.2485 6.786C8.17843 6.89143 8.0775 6.97371 7.9605 7.02257C7.84286 7.07143 7.71364 7.08364 7.58893 7.05921C7.46421 7.03414 7.34979 6.97307 7.25979 6.88307C7.16979 6.79307 7.10871 6.67864 7.08364 6.55393C7.05921 6.42921 7.07143 6.3 7.12029 6.18236C7.16914 6.06536 7.25143 5.96443 7.35686 5.89436C7.46293 5.82364 7.587 5.78571 7.71429 5.78571C7.88464 5.78571 8.04857 5.85321 8.16879 5.97407C8.28964 6.09429 8.35714 6.25821 8.35714 6.42857ZM8.35714 3.85714C8.35714 3.98443 8.31921 4.1085 8.2485 4.21457C8.17843 4.32 8.0775 4.40229 7.9605 4.45114C7.84286 4.5 7.71364 4.51221 7.58893 4.48779C7.46421 4.46271 7.34979 4.40164 7.25979 4.31164C7.16979 4.22164 7.10871 4.10721 7.08364 3.9825C7.05921 3.85779 7.07143 3.72857 7.12029 3.61093C7.16914 3.49393 7.25143 3.393 7.35686 3.32293C7.46293 3.25221 7.587 3.21429 7.71429 3.21429C7.88464 3.21429 8.04857 3.28179 8.16879 3.40264C8.28964 3.52286 8.35714 3.68679 8.35714 3.85714ZM4.5 9C4.5 9.12729 4.46207 9.25136 4.39136 9.35743C4.32129 9.46286 4.22036 9.54514 4.10336 9.594C3.98571 9.64286 3.8565 9.65507 3.73179 9.63064C3.60707 9.60557 3.49264 9.5445 3.40264 9.4545C3.31264 9.3645 3.25157 9.25007 3.2265 9.12536C3.20207 9.00064 3.21429 8.87143 3.26314 8.75379C3.312 8.63679 3.39429 8.53586 3.49971 8.46579C3.60579 8.39507 3.72986 8.35714 3.85714 8.35714C4.0275 8.35714 4.19143 8.42464 4.31164 8.5455C4.4325 8.66571 4.5 8.82964 4.5 9ZM4.5 6.42857C4.5 6.55586 4.46207 6.67993 4.39136 6.786C4.32129 6.89143 4.22036 6.97371 4.10336 7.02257C3.98571 7.07143 3.8565 7.08364 3.73179 7.05921C3.60707 7.03414 3.49264 6.97307 3.40264 6.88307C3.31264 6.79307 3.25157 6.67864 3.2265 6.55393C3.20207 6.42921 3.21429 6.3 3.26314 6.18236C3.312 6.06536 3.39429 5.96443 3.49971 5.89436C3.60579 5.82364 3.72986 5.78571 3.85714 5.78571C4.0275 5.78571 4.19143 5.85321 4.31164 5.97407C4.4325 6.09429 4.5 6.25821 4.5 6.42857ZM4.5 3.85714C4.5 3.98443 4.46207 4.1085 4.39136 4.21457C4.32129 4.32 4.22036 4.40229 4.10336 4.45114C3.98571 4.5 3.8565 4.51221 3.73179 4.48779C3.60707 4.46271 3.49264 4.40164 3.40264 4.31164C3.31264 4.22164 3.25157 4.10721 3.2265 3.9825C3.20207 3.85779 3.21429 3.72857 3.26314 3.61093C3.312 3.49393 3.39429 3.393 3.49971 3.32293C3.60579 3.25221 3.72986 3.21429 3.85714 3.21429C4.0275 3.21429 4.19143 3.28179 4.31164 3.40264C4.4325 3.52286 4.5 3.68679 4.5 3.85714Z" fill="white"/>
</svg>
