<svg width="20" height="20" viewBox="0 0 20 20" fill="none" xmlns="http://www.w3.org/2000/svg">
<path d="M14.9996 13.6001C14.2264 13.6001 13.5996 14.2269 13.5996 15.0001C13.5996 15.7733 14.2264 16.4001 14.9996 16.4001C15.7728 16.4001 16.3996 15.7733 16.3996 15.0001C16.3996 14.2269 15.7728 13.6001 14.9996 13.6001Z" fill="white"/>
<path fill-rule="evenodd" clip-rule="evenodd" d="M5.99966 0.100098C6.49672 0.100098 6.89966 0.503041 6.89966 1.0001V2.1001L13.0997 2.1001V1.0001C13.0997 0.503041 13.5026 0.100098 13.9997 0.100098C14.4967 0.100098 14.8997 0.503041 14.8997 1.0001V2.1001H15.0601C15.9512 2.10006 16.7092 2.10002 17.3141 2.18135C17.9585 2.26799 18.5622 2.46151 19.0502 2.94949C19.5382 3.43748 19.7317 4.04121 19.8184 4.68563C19.8997 5.29052 19.8997 6.04843 19.8996 6.93954V15.0606C19.8997 15.9517 19.8997 16.7097 19.8184 17.3146C19.7317 17.959 19.5382 18.5627 19.0502 19.0507C18.5622 19.5387 17.9585 19.7322 17.3141 19.8189C16.7092 19.9002 15.9513 19.9001 15.0602 19.9001H4.93909C4.04801 19.9001 3.29002 19.9002 2.68515 19.8189C2.04072 19.7322 1.43699 19.5387 0.949005 19.0507C0.46102 18.5627 0.267505 17.959 0.180864 17.3146C0.0995386 16.7097 0.0995719 15.9518 0.0996111 15.0606L0.0996139 9.00237L0.0996111 9.0001L0.0996139 8.99782L0.0996111 6.93963C0.0995719 6.04851 0.0995386 5.29052 0.180864 4.68563C0.267505 4.04121 0.46102 3.43748 0.949005 2.94949C1.43699 2.46151 2.04072 2.26799 2.68515 2.18135C3.29005 2.10002 4.048 2.10006 4.93914 2.1001L5.09966 2.1001V1.0001C5.09966 0.503041 5.5026 0.100098 5.99966 0.100098ZM13.0997 3.9001V5.0001C13.0997 5.49715 13.5026 5.9001 13.9997 5.9001C14.4967 5.9001 14.8997 5.49715 14.8997 5.0001V3.9001H14.9996C15.9679 3.9001 16.6035 3.90201 17.0742 3.9653C17.5191 4.0251 17.6796 4.12448 17.7774 4.22228C17.8752 4.32009 17.9746 4.48065 18.0344 4.92548C18.0977 5.3962 18.0996 6.03185 18.0996 7.0001V8.1001L1.89961 8.1001V7.0001C1.89961 6.03185 1.90153 5.3962 1.96481 4.92548C2.02462 4.48065 2.124 4.32009 2.2218 4.22228C2.3196 4.12448 2.48017 4.0251 2.92499 3.9653C3.39571 3.90201 4.03136 3.9001 4.99962 3.9001H5.09966V5.0001C5.09966 5.49715 5.5026 5.9001 5.99966 5.9001C6.49672 5.9001 6.89966 5.49715 6.89966 5.0001V3.9001H13.0997ZM1.89961 9.9001L18.0996 9.9001V15.0001C18.0996 15.9684 18.0977 16.604 18.0344 17.0747C17.9746 17.5196 17.8752 17.6801 17.7774 17.7779C17.6796 17.8757 17.5191 17.9751 17.0742 18.0349C16.6035 18.0982 15.9679 18.1001 14.9996 18.1001H4.99961C4.03136 18.1001 3.39571 18.0982 2.92499 18.0349C2.48017 17.9751 2.3196 17.8757 2.2218 17.7779C2.124 17.6801 2.02462 17.5196 1.96481 17.0747C1.90153 16.604 1.89961 15.9684 1.89961 15.0001V9.9001Z" fill="white"/>
</svg>
