<svg width="18" height="18" viewBox="0 0 18 18" fill="none" xmlns="http://www.w3.org/2000/svg">
<path d="M16.7143 0C17.3919 0 17.9473 0.524571 17.9968 1.18993L18 1.28571V16.7143C18 17.3919 17.4754 17.9473 16.8101 17.9961L16.7143 18H1.28571C0.608143 18 0.0527144 17.4754 0.00321436 16.8101L0 16.7143V1.28571C0 0.608143 0.524571 0.0527144 1.18993 0.00321436L1.28571 0H16.7143ZM9 3.15964L7.01614 5.14286H1.28571V16.7143H6.42857V13.5C6.42857 12.8224 6.95314 12.267 7.6185 12.2175L7.71429 12.2143H10.2857C10.9633 12.2143 11.5187 12.7389 11.5682 13.4042L11.5714 13.5V16.7143H16.7143V5.14286H10.9839L9 3.15964ZM10.2857 13.5H7.71429V16.7143H10.2857V13.5ZM14.1429 12.2143C14.4977 12.2143 14.7857 12.5023 14.7857 12.8571C14.7857 13.212 14.4977 13.5 14.1429 13.5C13.788 13.5 13.5 13.212 13.5 12.8571C13.5 12.5023 13.788 12.2143 14.1429 12.2143ZM3.85714 12.2143C4.212 12.2143 4.5 12.5023 4.5 12.8571C4.5 13.212 4.212 13.5 3.85714 13.5C3.50229 13.5 3.21429 13.212 3.21429 12.8571C3.21429 12.5023 3.50229 12.2143 3.85714 12.2143ZM14.1429 9.64286C14.4977 9.64286 14.7857 9.93086 14.7857 10.2857C14.7857 10.6406 14.4977 10.9286 14.1429 10.9286C13.788 10.9286 13.5 10.6406 13.5 10.2857C13.5 9.93086 13.788 9.64286 14.1429 9.64286ZM3.85714 9.64286C4.212 9.64286 4.5 9.93086 4.5 10.2857C4.5 10.6406 4.212 10.9286 3.85714 10.9286C3.50229 10.9286 3.21429 10.6406 3.21429 10.2857C3.21429 9.93086 3.50229 9.64286 3.85714 9.64286ZM14.1429 7.07143C14.4977 7.07143 14.7857 7.35943 14.7857 7.71429C14.7857 8.06914 14.4977 8.35714 14.1429 8.35714C13.788 8.35714 13.5 8.06914 13.5 7.71429C13.5 7.35943 13.788 7.07143 14.1429 7.07143ZM9 7.07143C9.35486 7.07143 9.64286 7.35943 9.64286 7.71429C9.64286 8.06914 9.35486 8.35714 9 8.35714C8.64514 8.35714 8.35714 8.06914 8.35714 7.71429C8.35714 7.35943 8.64514 7.07143 9 7.07143ZM3.85714 7.07143C4.212 7.07143 4.5 7.35943 4.5 7.71429C4.5 8.06914 4.212 8.35714 3.85714 8.35714C3.50229 8.35714 3.21429 8.06914 3.21429 7.71429C3.21429 7.35943 3.50229 7.07143 3.85714 7.07143ZM16.7143 3.85714V1.28571H1.28571V3.85714H6.48257L8.091 2.25C8.56672 1.77429 9.32207 1.74921 9.82736 2.17479L9.909 2.25L11.5168 3.85714H16.7143Z" fill="white"/>
</svg>
