<svg width="20" height="20" viewBox="0 0 20 20" fill="none" xmlns="http://www.w3.org/2000/svg">
<path fill-rule="evenodd" clip-rule="evenodd" d="M9.32075 3.04423C8.94315 3.33233 8.49233 3.78045 7.80767 4.4651L3.97924 8.29353C2.7712 9.50158 2.35572 9.93959 2.13567 10.4708C1.91563 11.0021 1.8997 11.6056 1.8997 13.314V15.0003C1.8997 15.9685 1.90161 16.6042 1.9649 17.0749C2.02471 17.5197 2.12408 17.6803 2.22188 17.7781C2.31969 17.8759 2.48025 17.9753 2.92508 18.0351C3.3958 18.0984 4.03145 18.1003 4.9997 18.1003C6.04875 18.1003 6.0997 18.0733 6.0997 17.0003V13.9709C6.09969 13.2845 6.05205 12.5385 6.32045 11.8905C6.61478 11.1799 7.17934 10.6154 7.88992 10.321C8.20163 10.1919 8.51939 10.1436 8.84412 10.1214C9.60475 10.0695 10.3947 10.0695 11.1553 10.1214C11.48 10.1436 11.7978 10.1919 12.1095 10.321C12.8201 10.6154 13.3846 11.1799 13.679 11.8905C13.9474 12.5385 13.8997 13.2845 13.8997 13.9709V17.0003C13.8997 18.0493 13.9267 18.1003 14.9997 18.1003C15.968 18.1003 16.6036 18.0984 17.0743 18.0351C17.5191 17.9753 17.6797 17.8759 17.7775 17.7781C17.8753 17.6803 17.9747 17.5197 18.0345 17.0749C18.0978 16.6042 18.0997 15.9685 18.0997 15.0003V13.314C18.0997 11.6056 18.0838 11.0021 17.8637 10.4708C17.6437 9.93959 17.2282 9.50158 16.0202 8.29354L12.1917 4.46511C11.5071 3.78045 11.0562 3.33233 10.6787 3.04423C10.3218 2.77198 10.138 2.72871 9.9997 2.72871C9.86139 2.72871 9.67758 2.77198 9.32075 3.04423ZM6.2169 19.8556C6.58901 19.8056 7.00167 19.6853 7.34321 19.3438C7.68474 19.0022 7.80504 18.5896 7.85507 18.2175C7.89984 17.8844 7.89978 17.4784 7.89971 17.0511L7.8997 14.0003C7.8997 13.522 7.90019 13.2084 7.91664 12.9672C7.94642 12.5308 8.15294 12.1604 8.57875 11.984C8.63458 11.9609 8.73356 11.9331 8.96665 11.9172C9.64637 11.8708 10.353 11.8708 11.0328 11.9172C11.2658 11.9331 11.3648 11.9609 11.4207 11.984C11.8465 12.1604 12.053 12.5308 12.0828 12.9672C12.0992 13.2084 12.0997 13.522 12.0997 14.0003L12.0997 17.0511C12.0996 17.4785 12.0996 17.8844 12.1443 18.2175C12.1944 18.5896 12.3147 19.0022 12.6562 19.3438C12.9977 19.6853 13.4104 19.8056 13.7825 19.8556C14.2049 19.9124 14.6349 19.9003 15.0602 19.9003C15.9513 19.9003 16.7093 19.9004 17.3142 19.819C17.9586 19.7324 18.5623 19.5389 19.0503 19.0509C19.5383 18.5629 19.7318 17.9592 19.8185 17.3148C19.8998 16.7098 19.8997 15.9519 19.8997 15.0608C19.8997 14.4194 19.8995 13.778 19.8997 13.1367C19.9003 11.6735 19.9007 10.6849 19.5267 9.78199C19.1527 8.87905 18.4534 8.18033 17.4184 7.14608C17.3771 7.10485 17.3353 7.06308 17.293 7.02074L13.4218 3.14956C12.7917 2.51939 12.2557 1.98342 11.7705 1.61319C11.2536 1.21878 10.6898 0.928711 9.9997 0.928711C9.30959 0.928711 8.74585 1.21878 8.22891 1.61319C7.74367 1.98341 7.20775 2.51938 6.57765 3.14954L2.70645 7.02074C2.66412 7.06308 2.62231 7.10485 2.58104 7.14608C1.54598 8.18033 0.8467 8.87905 0.472692 9.78199C0.098683 10.6849 0.0990743 11.6735 0.0996542 13.1367C0.0999084 13.778 0.0997006 14.4194 0.0996999 15.0608C0.0996589 15.9519 0.0996244 16.7099 0.180951 17.3148C0.267592 17.9592 0.461107 18.5629 0.949092 19.0509C1.43708 19.5389 2.04081 19.7324 2.68524 19.819C3.29014 19.9004 4.04809 19.9003 4.93923 19.9003C5.36449 19.9003 5.79448 19.9124 6.2169 19.8556Z" fill="white"/>
</svg>
