<svg width="16" height="20" viewBox="0 0 16 20" fill="none" xmlns="http://www.w3.org/2000/svg">
<path fill-rule="evenodd" clip-rule="evenodd" d="M7.99961 0.100098C5.29341 0.100098 3.09961 2.2939 3.09961 5.0001C3.09961 7.70629 5.29341 9.9001 7.99961 9.9001C10.7058 9.9001 12.8996 7.70629 12.8996 5.0001C12.8996 2.2939 10.7058 0.100098 7.99961 0.100098ZM4.89961 5.0001C4.89961 3.28802 6.28753 1.9001 7.99961 1.9001C9.71169 1.9001 11.0996 3.28802 11.0996 5.0001C11.0996 6.71218 9.71169 8.1001 7.99961 8.1001C6.28753 8.1001 4.89961 6.71218 4.89961 5.0001Z" fill="white"/>
<path fill-rule="evenodd" clip-rule="evenodd" d="M7.99961 12.1001C5.97465 12.1001 4.09868 12.4501 2.69534 13.0515C1.99526 13.3516 1.37123 13.732 0.909132 14.2002C0.443221 14.6723 0.0996094 15.2815 0.0996094 16.0001C0.0996094 16.7187 0.443221 17.3279 0.909132 17.8C1.37123 18.2682 1.99526 18.6486 2.69534 18.9486C4.09868 19.5501 5.97465 19.9001 7.99961 19.9001C10.0246 19.9001 11.9005 19.5501 13.3039 18.9486C14.004 18.6486 14.628 18.2682 15.0901 17.8C15.556 17.3279 15.8996 16.7187 15.8996 16.0001C15.8996 15.2815 15.556 14.6723 15.0901 14.2002C14.628 13.732 14.004 13.3516 13.3039 13.0515C11.9005 12.4501 10.0246 12.1001 7.99961 12.1001ZM1.89961 16.0001C1.89961 15.8902 1.94775 15.7103 2.19028 15.4646C2.43662 15.2149 2.83771 14.9489 3.40439 14.706C4.53454 14.2217 6.15858 13.9001 7.99961 13.9001C9.84064 13.9001 11.4647 14.2217 12.5948 14.706C13.1615 14.9489 13.5626 15.2149 13.8089 15.4646C14.0515 15.7103 14.0996 15.8902 14.0996 16.0001C14.0996 16.11 14.0515 16.2899 13.8089 16.5356C13.5626 16.7853 13.1615 17.0513 12.5948 17.2942C11.4647 17.7785 9.84064 18.1001 7.99961 18.1001C6.15858 18.1001 4.53454 17.7785 3.40439 17.2942C2.83771 17.0513 2.43662 16.7853 2.19028 16.5356C1.94775 16.2899 1.89961 16.11 1.89961 16.0001Z" fill="white"/>
</svg>
