<svg width="20" height="20" viewBox="0 0 20 20" fill="none" xmlns="http://www.w3.org/2000/svg">
<path d="M14.9996 13.5996C14.2264 13.5996 13.5996 14.2264 13.5996 14.9996C13.5996 15.7728 14.2264 16.3996 14.9996 16.3996C15.7728 16.3996 16.3996 15.7728 16.3996 14.9996C16.3996 14.2264 15.7728 13.5996 14.9996 13.5996Z" fill="white"/>
<path fill-rule="evenodd" clip-rule="evenodd" d="M5.99966 0.0996094C6.49672 0.0996094 6.89966 0.502553 6.89966 0.999609V2.09961L13.0997 2.09961V0.999609C13.0997 0.502553 13.5026 0.0996094 13.9997 0.0996094C14.4967 0.0996094 14.8997 0.502553 14.8997 0.999609V2.09961H15.0601C15.9512 2.09957 16.7092 2.09954 17.3141 2.18086C17.9585 2.2675 18.5622 2.46102 19.0502 2.949C19.5382 3.43699 19.7317 4.04072 19.8184 4.68515C19.8997 5.29003 19.8997 6.04795 19.8996 6.93905V15.0601C19.8997 15.9512 19.8997 16.7092 19.8184 17.3141C19.7317 17.9585 19.5382 18.5622 19.0502 19.0502C18.5622 19.5382 17.9585 19.7317 17.3141 19.8184C16.7092 19.8997 15.9513 19.8997 15.0602 19.8996H4.93909C4.04801 19.8997 3.29002 19.8997 2.68515 19.8184C2.04072 19.7317 1.43699 19.5382 0.949005 19.0502C0.46102 18.5622 0.267505 17.9585 0.180864 17.3141C0.0995386 16.7092 0.0995719 15.9513 0.0996111 15.0601L0.0996139 9.00188L0.0996111 8.99961L0.0996139 8.99733L0.0996111 6.93914C0.0995719 6.04802 0.0995386 5.29003 0.180864 4.68515C0.267505 4.04072 0.46102 3.43699 0.949005 2.949C1.43699 2.46102 2.04072 2.2675 2.68515 2.18086C3.29005 2.09954 4.048 2.09957 4.93914 2.09961L5.09966 2.09961V0.999609C5.09966 0.502553 5.5026 0.0996094 5.99966 0.0996094ZM13.0997 3.89961V4.99961C13.0997 5.49667 13.5026 5.89961 13.9997 5.89961C14.4967 5.89961 14.8997 5.49667 14.8997 4.99961V3.89961H14.9996C15.9679 3.89961 16.6035 3.90152 17.0742 3.96481C17.5191 4.02462 17.6796 4.12399 17.7774 4.2218C17.8752 4.3196 17.9746 4.48016 18.0344 4.92499C18.0977 5.39571 18.0996 6.03136 18.0996 6.99961V8.09961L1.89961 8.09961V6.99961C1.89961 6.03136 1.90153 5.39571 1.96481 4.92499C2.02462 4.48016 2.124 4.3196 2.2218 4.2218C2.3196 4.12399 2.48017 4.02462 2.92499 3.96481C3.39571 3.90152 4.03136 3.89961 4.99962 3.89961H5.09966V4.99961C5.09966 5.49667 5.5026 5.89961 5.99966 5.89961C6.49672 5.89961 6.89966 5.49667 6.89966 4.99961V3.89961H13.0997ZM1.89961 9.89961L18.0996 9.89961V14.9996C18.0996 15.9679 18.0977 16.6035 18.0344 17.0742C17.9746 17.5191 17.8752 17.6796 17.7774 17.7774C17.6796 17.8752 17.5191 17.9746 17.0742 18.0344C16.6035 18.0977 15.9679 18.0996 14.9996 18.0996H4.99961C4.03136 18.0996 3.39571 18.0977 2.92499 18.0344C2.48017 17.9746 2.3196 17.8752 2.2218 17.7774C2.124 17.6796 2.02462 17.5191 1.96481 17.0742C1.90153 16.6035 1.89961 15.9679 1.89961 14.9996V9.89961Z" fill="white"/>
</svg>
