<svg width="14" height="14" viewBox="0 0 14 14" fill="none" xmlns="http://www.w3.org/2000/svg">
<path d="M10.3337 9.40039C9.81826 9.40039 9.40039 9.81826 9.40039 10.3337C9.40039 10.8492 9.81826 11.2671 10.3337 11.2671C10.8492 11.2671 11.2671 10.8492 11.2671 10.3337C11.2671 9.81826 10.8492 9.40039 10.3337 9.40039Z" fill="#757575"/>
<path fill-rule="evenodd" clip-rule="evenodd" d="M4.33376 0.400391C4.66513 0.400391 4.93376 0.66902 4.93376 1.00039V1.73373L9.06709 1.73373V1.00039C9.06709 0.66902 9.33572 0.400391 9.66709 0.400391C9.99846 0.400391 10.2671 0.66902 10.2671 1.00039V1.73373H10.374C10.9681 1.7337 11.4734 1.73367 11.8767 1.78789C12.3063 1.84565 12.7088 1.97466 13.0341 2.29999C13.3595 2.62531 13.4885 3.0278 13.5462 3.45742C13.6004 3.86067 13.6004 4.36595 13.6004 4.96002V10.374C13.6004 10.9681 13.6004 11.4734 13.5462 11.8767C13.4885 12.3063 13.3595 12.7088 13.0341 13.0341C12.7088 13.3595 12.3063 13.4885 11.8767 13.5462C11.4735 13.6004 10.9682 13.6004 10.3741 13.6004H3.62671C3.03266 13.6004 2.52733 13.6004 2.12408 13.5462C1.69446 13.4885 1.29198 13.3595 0.966655 13.0341C0.641331 12.7088 0.512321 12.3063 0.45456 11.8767C0.400343 11.4734 0.400366 10.9682 0.400392 10.3741L0.400394 6.33524L0.400392 6.33372L0.400394 6.33221L0.400392 4.96008C0.400366 4.366 0.400343 3.86067 0.45456 3.45742C0.512321 3.0278 0.641331 2.62531 0.966655 2.29999C1.29198 1.97466 1.69446 1.84565 2.12408 1.78789C2.52735 1.73367 3.03265 1.7337 3.62674 1.73373L3.73376 1.73373V1.00039C3.73376 0.66902 4.00239 0.400391 4.33376 0.400391ZM9.06709 2.93373V3.66706C9.06709 3.99843 9.33572 4.26706 9.66709 4.26706C9.99846 4.26706 10.2671 3.99843 10.2671 3.66706V2.93373H10.3337C10.9792 2.93373 11.403 2.935 11.7168 2.97719C12.0134 3.01706 12.1204 3.08331 12.1856 3.14851C12.2508 3.21372 12.3171 3.32076 12.3569 3.61731C12.3991 3.93113 12.4004 4.35489 12.4004 5.00039V5.73373L1.60039 5.73372V5.00039C1.60039 4.35489 1.60167 3.93113 1.64386 3.61731C1.68373 3.32076 1.74998 3.21372 1.81518 3.14851C1.88038 3.08331 1.98743 3.01706 2.28398 2.97719C2.59779 2.935 3.02156 2.93373 3.66706 2.93373H3.73376V3.66706C3.73376 3.99843 4.00239 4.26706 4.33376 4.26706C4.66513 4.26706 4.93376 3.99843 4.93376 3.66706V2.93373H9.06709ZM1.60039 6.93372L12.4004 6.93372V10.3337C12.4004 10.9792 12.3991 11.403 12.3569 11.7168C12.3171 12.0134 12.2508 12.1204 12.1856 12.1856C12.1204 12.2508 12.0134 12.3171 11.7168 12.3569C11.403 12.3991 10.9792 12.4004 10.3337 12.4004H3.66706C3.02156 12.4004 2.59779 12.3991 2.28398 12.3569C1.98743 12.3171 1.88038 12.2508 1.81518 12.1856C1.74998 12.1204 1.68373 12.0134 1.64386 11.7168C1.60167 11.403 1.60039 10.9792 1.60039 10.3337V6.93372Z" fill="#757575"/>
</svg>
