<svg width="10" height="12" viewBox="0 0 10 12" fill="none" xmlns="http://www.w3.org/2000/svg">
<path fill-rule="evenodd" clip-rule="evenodd" d="M2.734 2.30597L3.66667 1.37264L4.59933 2.30597C4.7056 2.41223 4.84972 2.47192 5 2.47192C5.15028 2.47192 5.2944 2.41223 5.40067 2.30597L6.33333 1.37264L7.266 2.30597C7.37227 2.41223 7.51639 2.47192 7.66667 2.47192C7.81694 2.47192 7.96106 2.41223 8.06733 2.30597L8.5 1.87264V10.126L8.06733 9.69264C7.96106 9.58639 7.81694 9.52669 7.66667 9.52669C7.51639 9.52669 7.37227 9.58639 7.266 9.69264L6.33333 10.626L5.40067 9.69264C5.2944 9.58639 5.15028 9.52669 5 9.52669C4.84972 9.52669 4.7056 9.58639 4.59933 9.69264L3.66667 10.626L2.734 9.69264C2.62773 9.58639 2.48361 9.52669 2.33333 9.52669C2.18306 9.52669 2.03894 9.58639 1.93267 9.69264L1.5 10.126V1.87264L1.93267 2.30597C2.03894 2.41223 2.18306 2.47192 2.33333 2.47192C2.48361 2.47192 2.62773 2.41223 2.734 2.30597ZM4.06733 0.359305C3.96106 0.253051 3.81694 0.193359 3.66667 0.193359C3.51639 0.193359 3.37227 0.253051 3.266 0.359305L2.33333 1.29264L1.46733 0.425972C1.11067 0.0693051 0.5 0.321972 0.5 0.826639V11.1726C0.5 11.6773 1.11067 11.93 1.46733 11.5726L2.33333 10.7073L3.266 11.64C3.37227 11.7462 3.51639 11.8059 3.66667 11.8059C3.81694 11.8059 3.96106 11.7462 4.06733 11.64L5 10.706L5.93267 11.6393C6.03894 11.7456 6.18306 11.8053 6.33333 11.8053C6.48361 11.8053 6.62773 11.7456 6.734 11.6393L7.66667 10.706L8.53267 11.5726C8.88933 11.9293 9.5 11.6766 9.5 11.172V0.825972C9.5 0.321305 8.88933 0.0686385 8.53267 0.425972L7.66667 1.29131L6.734 0.359305C6.62773 0.253051 6.48361 0.193359 6.33333 0.193359C6.18306 0.193359 6.03894 0.253051 5.93267 0.359305L5 1.29264L4.06733 0.359305ZM3.66667 3.49931C3.53406 3.49931 3.40688 3.55198 3.31311 3.64575C3.21935 3.73952 3.16667 3.8667 3.16667 3.99931C3.16667 4.13191 3.21935 4.25909 3.31311 4.35286C3.40688 4.44663 3.53406 4.49931 3.66667 4.49931H6.33333C6.46594 4.49931 6.59312 4.44663 6.68689 4.35286C6.78065 4.25909 6.83333 4.13191 6.83333 3.99931C6.83333 3.8667 6.78065 3.73952 6.68689 3.64575C6.59312 3.55198 6.46594 3.49931 6.33333 3.49931H3.66667ZM3.16667 5.99931C3.16667 5.8667 3.21935 5.73952 3.31311 5.64575C3.40688 5.55198 3.53406 5.49931 3.66667 5.49931H6.33333C6.46594 5.49931 6.59312 5.55198 6.68689 5.64575C6.78065 5.73952 6.83333 5.8667 6.83333 5.99931C6.83333 6.13191 6.78065 6.25909 6.68689 6.35286C6.59312 6.44663 6.46594 6.49931 6.33333 6.49931H3.66667C3.53406 6.49931 3.40688 6.44663 3.31311 6.35286C3.21935 6.25909 3.16667 6.13191 3.16667 5.99931ZM3.66667 7.49931C3.53406 7.49931 3.40688 7.55198 3.31311 7.64575C3.21935 7.73952 3.16667 7.8667 3.16667 7.99931C3.16667 8.13191 3.21935 8.25909 3.31311 8.35286C3.40688 8.44663 3.53406 8.49931 3.66667 8.49931H6.33333C6.46594 8.49931 6.59312 8.44663 6.68689 8.35286C6.78065 8.25909 6.83333 8.13191 6.83333 7.99931C6.83333 7.8667 6.78065 7.73952 6.68689 7.64575C6.59312 7.55198 6.46594 7.49931 6.33333 7.49931H3.66667Z" fill="#757575"/>
</svg>
