<svg width="12" height="15" viewBox="0 0 12 15" fill="none" xmlns="http://www.w3.org/2000/svg">
<path fill-rule="evenodd" clip-rule="evenodd" d="M6.00006 0.900391C4.19593 0.900391 2.7334 2.36293 2.7334 4.16706C2.7334 5.97119 4.19593 7.43372 6.00006 7.43372C7.8042 7.43372 9.26673 5.97119 9.26673 4.16706C9.26673 2.36293 7.8042 0.900391 6.00006 0.900391ZM3.9334 4.16706C3.9334 3.02567 4.85868 2.10039 6.00006 2.10039C7.14145 2.10039 8.06673 3.02567 8.06673 4.16706C8.06673 5.30845 7.14145 6.23372 6.00006 6.23372C4.85868 6.23372 3.9334 5.30845 3.9334 4.16706Z" fill="white"/>
<path fill-rule="evenodd" clip-rule="evenodd" d="M6.00006 8.90039C4.65009 8.90039 3.39945 9.13373 2.46388 9.53469C1.99717 9.73471 1.58114 9.98829 1.27308 10.3004C0.962473 10.6152 0.733398 11.0213 0.733398 11.5004C0.733398 11.9794 0.962473 12.3856 1.27308 12.7003C1.58114 13.0125 1.99717 13.2661 2.46388 13.4661C3.39945 13.867 4.65009 14.1004 6.00006 14.1004C7.35004 14.1004 8.60068 13.867 9.53625 13.4661C10.003 13.2661 10.419 13.0125 10.7271 12.7003C11.0377 12.3856 11.2667 11.9794 11.2667 11.5004C11.2667 11.0213 11.0377 10.6152 10.7271 10.3004C10.419 9.98829 10.003 9.73471 9.53625 9.53469C8.60068 9.13373 7.35004 8.90039 6.00006 8.90039ZM1.9334 11.5004C1.9334 11.4271 1.96549 11.3072 2.12718 11.1434C2.29141 10.977 2.5588 10.7996 2.93658 10.6377C3.69002 10.3148 4.77271 10.1004 6.00006 10.1004C7.22742 10.1004 8.31011 10.3148 9.06355 10.6377C9.44133 10.7996 9.70872 10.977 9.87295 11.1434C10.0346 11.3072 10.0667 11.4271 10.0667 11.5004C10.0667 11.5736 10.0346 11.6936 9.87295 11.8574C9.70872 12.0238 9.44133 12.2012 9.06355 12.3631C8.31011 12.686 7.22742 12.9004 6.00006 12.9004C4.77271 12.9004 3.69002 12.686 2.93658 12.3631C2.5588 12.2012 2.29141 12.0238 2.12718 11.8574C1.96549 11.6936 1.9334 11.5736 1.9334 11.5004Z" fill="white"/>
</svg>
