<svg width="24" height="24" viewBox="0 0 24 24" fill="none" xmlns="http://www.w3.org/2000/svg">
<path d="M16.5455 15.9545C15.8425 15.9545 15.2727 16.556 15.2727 17.298C15.2727 18.0399 15.8425 18.6414 16.5455 18.6414C17.2484 18.6414 17.8182 18.0399 17.8182 17.298C17.8182 16.556 17.2484 15.9545 16.5455 15.9545Z" fill="white"/>
<path fill-rule="evenodd" clip-rule="evenodd" d="M8.36368 3C8.81555 3 9.18186 3.38666 9.18186 3.86364V4.91919L14.8182 4.91919V3.86364C14.8182 3.38666 15.1845 3 15.6364 3C16.0883 3 16.4546 3.38666 16.4546 3.86364V4.91919H16.6004C17.4106 4.91915 18.0996 4.91912 18.6495 4.99716C19.2354 5.0803 19.7842 5.266 20.2278 5.73427C20.6714 6.20254 20.8474 6.78187 20.9261 7.40026C21.0001 7.9807 21 8.708 21 9.5631V17.356C21 18.2111 21.0001 18.9385 20.9261 19.5189C20.8474 20.1373 20.6714 20.7167 20.2278 21.1849C19.7842 21.6532 19.2354 21.8389 18.6495 21.922C18.0996 22.0001 17.4106 22 16.6006 22H7.39952C6.58945 22 5.90037 22.0001 5.35049 21.922C4.76465 21.8389 4.2158 21.6532 3.77218 21.1849C3.32855 20.7167 3.15263 20.1373 3.07387 19.5189C2.99994 18.9385 2.99997 18.2112 3 17.3561L3 11.5426L3 11.5404L3 11.5382L3 9.56318C2.99997 8.70807 2.99994 7.98071 3.07387 7.40026C3.15263 6.78187 3.32855 6.20254 3.77218 5.73427C4.2158 5.266 4.76465 5.0803 5.35049 4.99716C5.9004 4.91912 6.58944 4.91915 7.39957 4.91919L7.5455 4.9192V3.86364C7.5455 3.38666 7.91181 3 8.36368 3ZM14.8182 6.64647V7.70202C14.8182 8.17899 15.1845 8.56566 15.6364 8.56566C16.0883 8.56566 16.4546 8.17899 16.4546 7.70202V6.64647H16.5455C17.4257 6.64647 18.0035 6.6483 18.4315 6.70903C18.8359 6.76642 18.9818 6.86178 19.0707 6.95563C19.1597 7.04948 19.25 7.20356 19.3044 7.63042C19.3619 8.08212 19.3636 8.69208 19.3636 9.62121V10.6768L4.63637 10.6768V9.62121C4.63637 8.69208 4.63811 8.08212 4.69564 7.63042C4.75001 7.20356 4.84035 7.04948 4.92926 6.95563C5.01817 6.86178 5.16414 6.76642 5.56853 6.70903C5.99646 6.6483 6.57432 6.64647 7.45455 6.64647H7.5455V7.70202C7.5455 8.17899 7.91181 8.56566 8.36368 8.56566C8.81555 8.56566 9.18186 8.17899 9.18186 7.70202V6.64647H14.8182ZM4.63637 12.404L19.3636 12.404V17.298C19.3636 18.2271 19.3619 18.8371 19.3044 19.2888C19.25 19.7156 19.1597 19.8697 19.0707 19.9636C18.9818 20.0574 18.8359 20.1528 18.4315 20.2102C18.0035 20.2709 17.4257 20.2727 16.5455 20.2727H7.45455C6.57432 20.2727 5.99646 20.2709 5.56853 20.2102C5.16414 20.1528 5.01817 20.0574 4.92926 19.9636C4.84035 19.8697 4.75001 19.7156 4.69564 19.2888C4.63811 18.8371 4.63637 18.2271 4.63637 17.298V12.404Z" fill="white"/>
</svg>
