<svg width="51" height="47" viewBox="0 0 51 47" fill="none" xmlns="http://www.w3.org/2000/svg">
<path d="M49.0899 23.5C49.0899 35.8842 38.5715 46 25.5 46C12.4285 46 1.91016 35.8842 1.91016 23.5C1.91016 11.1158 12.4285 1 25.5 1C38.5715 1 49.0899 11.1158 49.0899 23.5Z" stroke="#3BF044" stroke-width="2"/>
<path fill-rule="evenodd" clip-rule="evenodd" d="M36.6769 17.8183C37.1672 18.2869 37.1672 19.0467 36.6769 19.5153L24.1204 31.5153C23.63 31.984 22.835 31.984 22.3446 31.5153L15.3687 24.8487C14.8784 24.38 14.8784 23.6202 15.3687 23.1516C15.8591 22.683 16.6541 22.683 17.1445 23.1516L23.2325 28.9697L34.9011 17.8183C35.3915 17.3496 36.1865 17.3496 36.6769 17.8183Z" fill="#3BF044"/>
</svg>
