<svg width="24" height="24" viewBox="0 0 24 24" fill="none" xmlns="http://www.w3.org/2000/svg">
<path fill-rule="evenodd" clip-rule="evenodd" d="M11.3208 5.04399C10.9432 5.33208 10.4923 5.7802 9.80767 6.46486L5.97924 10.2933C4.7712 11.5013 4.35572 11.9393 4.13567 12.4706C3.91563 13.0018 3.8997 13.6053 3.8997 15.3137V17C3.8997 17.9683 3.90161 18.6039 3.9649 19.0747C4.02471 19.5195 4.12408 19.6801 4.22188 19.7779C4.31969 19.8757 4.48025 19.975 4.92508 20.0348C5.3958 20.0981 6.03145 20.1 6.9997 20.1C8.04875 20.1 8.0997 20.073 8.0997 19V15.9707C8.09969 15.2843 8.05205 14.5382 8.32045 13.8903C8.61478 13.1797 9.17934 12.6151 9.88992 12.3208C10.2016 12.1917 10.5194 12.1433 10.8441 12.1212C11.6047 12.0693 12.3947 12.0693 13.1553 12.1212C13.48 12.1433 13.7978 12.1917 14.1095 12.3208C14.8201 12.6151 15.3846 13.1797 15.679 13.8903C15.9474 14.5382 15.8997 15.2843 15.8997 15.9707V19C15.8997 20.0491 15.9267 20.1 16.9997 20.1C17.968 20.1 18.6036 20.0981 19.0743 20.0348C19.5191 19.975 19.6797 19.8757 19.7775 19.7779C19.8753 19.6801 19.9747 19.5195 20.0345 19.0747C20.0978 18.6039 20.0997 17.9683 20.0997 17V15.3137C20.0997 13.6053 20.0838 13.0018 19.8637 12.4706C19.6437 11.9393 19.2282 11.5013 18.0202 10.2933L14.1917 6.46486C13.5071 5.78021 13.0562 5.33208 12.6787 5.04399C12.3218 4.77173 12.138 4.72847 11.9997 4.72847C11.8614 4.72847 11.6776 4.77173 11.3208 5.04399ZM8.2169 21.8554C8.58901 21.8054 9.00167 21.6851 9.34321 21.3435C9.68474 21.002 9.80504 20.5893 9.85507 20.2172C9.89984 19.8842 9.89978 19.4782 9.89971 19.0508L9.8997 16C9.8997 15.5218 9.90019 15.2082 9.91664 14.967C9.94642 14.5306 10.1529 14.1602 10.5788 13.9838C10.6346 13.9606 10.7336 13.9329 10.9667 13.917C11.6464 13.8706 12.353 13.8706 13.0328 13.917C13.2658 13.9329 13.3648 13.9606 13.4207 13.9838C13.8465 14.1602 14.053 14.5306 14.0828 14.967C14.0992 15.2082 14.0997 15.5218 14.0997 16L14.0997 19.0508C14.0996 19.4782 14.0996 19.8842 14.1443 20.2172C14.1944 20.5893 14.3147 21.002 14.6562 21.3435C14.9977 21.6851 15.4104 21.8054 15.7825 21.8554C16.2049 21.9122 16.6349 21.9001 17.0602 21.9C17.9513 21.9001 18.7093 21.9001 19.3142 21.8188C19.9586 21.7322 20.5623 21.5386 21.0503 21.0506C21.5383 20.5627 21.7318 19.9589 21.8185 19.3145C21.8998 18.7096 21.8997 17.9517 21.8997 17.0605C21.8997 16.4192 21.8995 15.7778 21.8997 15.1364C21.9003 13.6732 21.9007 12.6847 21.5267 11.7817C21.1527 10.8788 20.4534 10.1801 19.4184 9.14583C19.3771 9.1046 19.3353 9.06283 19.293 9.0205L15.4218 5.14932C14.7917 4.51915 14.2557 3.98317 13.7705 3.61295C13.2536 3.21853 12.6898 2.92847 11.9997 2.92847C11.3096 2.92847 10.7458 3.21853 10.2289 3.61295C9.74367 3.98317 9.20775 4.51914 8.57765 5.1493L4.70645 9.0205C4.66412 9.06283 4.62231 9.1046 4.58104 9.14584C3.54598 10.1801 2.8467 10.8788 2.47269 11.7817C2.09868 12.6847 2.09907 13.6732 2.09965 15.1364C2.09991 15.7778 2.0997 16.4192 2.0997 17.0605C2.09966 17.9517 2.09962 18.7096 2.18095 19.3145C2.26759 19.9589 2.46111 20.5627 2.94909 21.0506C3.43708 21.5386 4.04081 21.7322 4.68524 21.8188C5.29014 21.9001 6.04809 21.9001 6.93923 21.9C7.36449 21.9001 7.79448 21.9122 8.2169 21.8554Z" fill="white"/>
</svg>
