<svg width="22" height="18" viewBox="0 0 22 18" fill="none" xmlns="http://www.w3.org/2000/svg">
<path fill-rule="evenodd" clip-rule="evenodd" d="M9.944 0.25H12.056C13.894 0.25 15.35 0.25 16.489 0.403C17.661 0.561 18.61 0.893 19.359 1.641C20.107 2.39 20.439 3.339 20.597 4.511C20.748 5.637 20.75 7.071 20.75 8.879C21.094 9.162 21.367 9.529 21.54 9.948C21.661 10.238 21.708 10.538 21.73 10.855C21.75 11.159 21.75 11.53 21.75 11.975V12.025C21.75 12.47 21.75 12.841 21.73 13.145C21.7175 13.4558 21.6533 13.7623 21.54 14.052C21.4019 14.3857 21.1994 14.689 20.9441 14.9445C20.6888 15.2 20.3857 15.4027 20.052 15.541C19.762 15.661 19.462 15.708 19.145 15.729C19.0135 15.7379 18.8818 15.7436 18.75 15.746V17C18.75 17.1989 18.671 17.3897 18.5303 17.5303C18.3897 17.671 18.1989 17.75 18 17.75C17.8011 17.75 17.6103 17.671 17.4697 17.5303C17.329 17.3897 17.25 17.1989 17.25 17V15.75H4.75V17C4.75 17.1989 4.67098 17.3897 4.53033 17.5303C4.38968 17.671 4.19891 17.75 4 17.75C3.80109 17.75 3.61032 17.671 3.46967 17.5303C3.32902 17.3897 3.25 17.1989 3.25 17V15.745C3.11822 15.7429 2.98651 15.7376 2.855 15.729C2.54433 15.7171 2.2378 15.6536 1.948 15.541C1.61416 15.4028 1.31082 15.2002 1.05533 14.9447C0.799843 14.6892 0.597204 14.3858 0.459 14.052C0.339 13.762 0.292 13.462 0.271 13.145C0.25 12.841 0.25 12.47 0.25 12.025V11.975C0.25 11.53 0.25 11.159 0.27 10.855C0.292 10.537 0.34 10.238 0.46 9.948C0.631816 9.53207 0.903083 9.16465 1.25 8.878C1.25 7.072 1.252 5.637 1.403 4.511C1.561 3.339 1.893 2.39 2.641 1.641C3.39 0.893 4.339 0.561 5.511 0.403C6.651 0.25 8.106 0.25 9.944 0.25ZM2.75 8.279L2.855 8.271C3.106 8.254 3.404 8.251 3.75 8.251V7.448C3.75 6.55 3.75 5.8 3.83 5.206C3.914 4.578 4.1 4.011 4.555 3.556C5.011 3.1 5.578 2.914 6.205 2.83C6.8 2.75 7.55 2.75 8.448 2.75H13.552C14.451 2.75 15.2 2.75 15.794 2.83C16.422 2.914 16.989 3.1 17.444 3.555C17.9 4.011 18.086 4.578 18.17 5.205C18.25 5.8 18.25 6.55 18.25 7.448V8.25C18.5836 8.24775 18.9171 8.25742 19.25 8.279C19.247 6.744 19.23 5.604 19.11 4.711C18.975 3.705 18.721 3.125 18.298 2.701C17.875 2.279 17.295 2.025 16.289 1.89C15.262 1.752 13.907 1.75 12 1.75H10C8.093 1.75 6.739 1.752 5.71 1.89C4.705 2.025 4.125 2.279 3.702 2.702C3.279 3.125 3.025 3.705 2.89 4.71C2.77 5.603 2.753 6.743 2.75 8.278M16.75 8.249V7.499C16.75 6.535 16.748 5.887 16.683 5.404C16.621 4.943 16.514 4.745 16.383 4.615C16.252 4.485 16.056 4.378 15.595 4.315C15.112 4.251 14.464 4.249 13.5 4.249H11.75V8.249H16.75ZM10.25 8.249V4.249H8.5C7.536 4.249 6.888 4.251 6.405 4.316C5.944 4.378 5.746 4.485 5.616 4.616C5.486 4.747 5.379 4.943 5.316 5.404C5.252 5.887 5.25 6.535 5.25 7.499V8.249H10.25ZM2.957 9.766C2.716 9.783 2.599 9.812 2.522 9.844C2.3702 9.90682 2.23228 9.99895 2.11611 10.1151C1.99995 10.2313 1.90782 10.3692 1.845 10.521C1.813 10.598 1.784 10.715 1.767 10.956C1.75 11.203 1.75 11.523 1.75 11.999C1.75 12.475 1.75 12.795 1.767 13.042C1.784 13.283 1.813 13.4 1.845 13.477C1.972 13.784 2.215 14.027 2.522 14.154C2.599 14.186 2.716 14.215 2.957 14.232C3.204 14.249 3.524 14.249 4 14.249H18C18.476 14.249 18.796 14.249 19.043 14.232C19.284 14.215 19.401 14.186 19.478 14.154C19.785 14.027 20.028 13.784 20.155 13.477C20.187 13.4 20.216 13.283 20.233 13.042C20.25 12.795 20.25 12.475 20.25 11.999C20.25 11.523 20.25 11.203 20.233 10.956C20.216 10.715 20.187 10.598 20.155 10.521C20.0922 10.3692 20.0001 10.2313 19.8839 10.1151C19.7677 9.99895 19.6298 9.90682 19.478 9.844C19.401 9.812 19.284 9.783 19.043 9.766C18.6956 9.75 18.3477 9.74466 18 9.75H4C3.524 9.75 3.204 9.75 2.957 9.767" fill="white"/>
</svg>
