<svg width="24" height="24" viewBox="0 0 24 24" fill="none" xmlns="http://www.w3.org/2000/svg">
<path d="M4.5625 21C4.25184 21 4 20.7482 4 20.4375C4 20.1268 4.25184 19.875 4.5625 19.875H6.13333V4C6.13333 3.44771 6.58105 3 7.13333 3H13.6667C14.219 3 14.6667 3.44772 14.6667 4V4.125H16.8667C17.419 4.125 17.8667 4.57272 17.8667 5.125V18.875C17.8667 19.4273 18.3144 19.875 18.8667 19.875H19.4375C19.7482 19.875 20 20.1268 20 20.4375C20 20.7482 19.7482 21 19.4375 21H17.8C17.2477 21 16.8 20.5523 16.8 20V5.25H14.6667V20C14.6667 20.5523 14.219 21 13.6667 21H4.5625ZM11.4667 12.8663C11.6871 12.8663 11.8791 12.78 12.0427 12.6075C12.2062 12.435 12.288 12.2325 12.288 12C12.288 11.7675 12.2062 11.565 12.0427 11.3925C11.8791 11.22 11.6871 11.1337 11.4667 11.1337C11.2462 11.1337 11.0542 11.22 10.8907 11.3925C10.7271 11.565 10.6453 11.7675 10.6453 12C10.6453 12.2325 10.7271 12.435 10.8907 12.6075C11.0542 12.78 11.2462 12.8663 11.4667 12.8663ZM7.2 19.875H13.6V4.125H7.2V19.875Z" fill="white"/>
</svg>
