<svg width="22" height="16" viewBox="0 0 22 16" fill="none" xmlns="http://www.w3.org/2000/svg">
<path fill-rule="evenodd" clip-rule="evenodd" d="M1.80866 5.8076C6.88548 0.730803 15.1167 0.730803 20.1935 5.8076C20.584 6.1981 21.2172 6.1981 21.6077 5.8076C21.9982 5.4171 21.9982 4.78392 21.6077 4.3934C15.7498 -1.46447 6.25231 -1.46447 0.394453 4.3934C0.00393251 4.78392 0.00393251 5.4171 0.394453 5.8076C0.784983 6.1981 1.41814 6.1981 1.80866 5.8076ZM4.63709 8.636C8.15181 5.1213 13.8503 5.1213 17.3651 8.636C17.7556 9.0266 18.3887 9.0266 18.7793 8.636C19.1698 8.2455 19.1698 7.6123 18.7793 7.2218C14.4835 2.92606 7.51865 2.92606 3.22288 7.2218C2.83235 7.6123 2.83235 8.2455 3.22288 8.636C3.6134 9.0266 4.24657 9.0266 4.63709 8.636ZM7.46552 11.4645C9.41816 9.5118 12.584 9.5118 14.5366 11.4645C14.9272 11.855 15.5603 11.855 15.9508 11.4645C16.3414 11.0739 16.3414 10.4408 15.9508 10.0503C13.2172 7.3166 8.78497 7.3166 6.0513 10.0503C5.66078 10.4408 5.66078 11.0739 6.0513 11.4645C6.44183 11.855 7.07499 11.855 7.46552 11.4645ZM8.87956 12.8787C10.0512 11.7071 11.9507 11.7071 13.1222 12.8787C13.5128 13.2692 13.5128 13.9024 13.1222 14.2929L11.708 15.7071C11.3175 16.0976 10.6843 16.0976 10.2938 15.7071L8.87956 14.2929C8.48903 13.9024 8.48903 13.2692 8.87956 12.8787Z" fill="white"/>
</svg>
