<svg width="25" height="24" viewBox="0 0 25 24" fill="none" xmlns="http://www.w3.org/2000/svg">
<path fill-rule="evenodd" clip-rule="evenodd" d="M11.444 3.25H13.556C15.394 3.25 16.85 3.25 17.989 3.403C19.161 3.561 20.11 3.893 20.859 4.641C21.607 5.39 21.939 6.339 22.097 7.511C22.248 8.637 22.25 10.071 22.25 11.879C22.594 12.162 22.867 12.529 23.04 12.948C23.161 13.238 23.208 13.538 23.23 13.855C23.25 14.159 23.25 14.53 23.25 14.975V15.025C23.25 15.47 23.25 15.841 23.23 16.145C23.2175 16.4558 23.1533 16.7623 23.04 17.052C22.9019 17.3857 22.6994 17.689 22.4441 17.9445C22.1888 18.2 21.8857 18.4027 21.552 18.541C21.262 18.661 20.962 18.708 20.645 18.729C20.5135 18.7379 20.3818 18.7436 20.25 18.746V20C20.25 20.1989 20.171 20.3897 20.0303 20.5303C19.8897 20.671 19.6989 20.75 19.5 20.75C19.3011 20.75 19.1103 20.671 18.9697 20.5303C18.829 20.3897 18.75 20.1989 18.75 20V18.75H6.25V20C6.25 20.1989 6.17098 20.3897 6.03033 20.5303C5.88968 20.671 5.69891 20.75 5.5 20.75C5.30109 20.75 5.11032 20.671 4.96967 20.5303C4.82902 20.3897 4.75 20.1989 4.75 20V18.745C4.61822 18.7429 4.48651 18.7376 4.355 18.729C4.04433 18.7171 3.7378 18.6536 3.448 18.541C3.11416 18.4028 2.81082 18.2002 2.55533 17.9447C2.29984 17.6892 2.0972 17.3858 1.959 17.052C1.839 16.762 1.792 16.462 1.771 16.145C1.75 15.841 1.75 15.47 1.75 15.025V14.975C1.75 14.53 1.75 14.159 1.77 13.855C1.792 13.537 1.84 13.238 1.96 12.948C2.13182 12.5321 2.40308 12.1647 2.75 11.878C2.75 10.072 2.752 8.637 2.903 7.511C3.061 6.339 3.393 5.39 4.141 4.641C4.89 3.893 5.839 3.561 7.011 3.403C8.151 3.25 9.606 3.25 11.444 3.25ZM4.25 11.279L4.355 11.271C4.606 11.254 4.904 11.251 5.25 11.251V10.448C5.25 9.55 5.25 8.8 5.33 8.206C5.414 7.578 5.6 7.011 6.055 6.556C6.511 6.1 7.078 5.914 7.705 5.83C8.3 5.75 9.05 5.75 9.948 5.75H15.052C15.951 5.75 16.7 5.75 17.294 5.83C17.922 5.914 18.489 6.1 18.944 6.555C19.4 7.011 19.586 7.578 19.67 8.205C19.75 8.8 19.75 9.55 19.75 10.448V11.25C20.0836 11.2477 20.4171 11.2574 20.75 11.279C20.747 9.744 20.73 8.604 20.61 7.711C20.475 6.705 20.221 6.125 19.798 5.701C19.375 5.279 18.795 5.025 17.789 4.89C16.762 4.752 15.407 4.75 13.5 4.75H11.5C9.593 4.75 8.239 4.752 7.21 4.89C6.205 5.025 5.625 5.279 5.202 5.702C4.779 6.125 4.525 6.705 4.39 7.71C4.27 8.603 4.253 9.743 4.25 11.278M18.25 11.249V10.499C18.25 9.535 18.248 8.887 18.183 8.404C18.121 7.943 18.014 7.745 17.883 7.615C17.752 7.485 17.556 7.378 17.095 7.315C16.612 7.251 15.964 7.249 15 7.249H13.25V11.249H18.25ZM11.75 11.249V7.249H10C9.036 7.249 8.388 7.251 7.905 7.316C7.444 7.378 7.246 7.485 7.116 7.616C6.986 7.747 6.879 7.943 6.816 8.404C6.752 8.887 6.75 9.535 6.75 10.499V11.249H11.75ZM4.457 12.766C4.216 12.783 4.099 12.812 4.022 12.844C3.8702 12.9068 3.73228 12.9989 3.61611 13.1151C3.49995 13.2313 3.40782 13.3692 3.345 13.521C3.313 13.598 3.284 13.715 3.267 13.956C3.25 14.203 3.25 14.523 3.25 14.999C3.25 15.475 3.25 15.795 3.267 16.042C3.284 16.283 3.313 16.4 3.345 16.477C3.472 16.784 3.715 17.027 4.022 17.154C4.099 17.186 4.216 17.215 4.457 17.232C4.704 17.249 5.024 17.249 5.5 17.249H19.5C19.976 17.249 20.296 17.249 20.543 17.232C20.784 17.215 20.901 17.186 20.978 17.154C21.285 17.027 21.528 16.784 21.655 16.477C21.687 16.4 21.716 16.283 21.733 16.042C21.75 15.795 21.75 15.475 21.75 14.999C21.75 14.523 21.75 14.203 21.733 13.956C21.716 13.715 21.687 13.598 21.655 13.521C21.5922 13.3692 21.5001 13.2313 21.3839 13.1151C21.2677 12.9989 21.1298 12.9068 20.978 12.844C20.901 12.812 20.784 12.783 20.543 12.766C20.1956 12.75 19.8477 12.7447 19.5 12.75H5.5C5.024 12.75 4.704 12.75 4.457 12.767" fill="white"/>
</svg>
