<svg width="24" height="24" viewBox="0 0 24 24" fill="none" xmlns="http://www.w3.org/2000/svg">
<g filter="url(#filter0_b_9513_11999)">
<path d="M5.65679 3.17696C7.4615 2.66821 9.02073 3.28296 10.3468 4.68006L10.377 4.71188C10.5966 4.94333 10.8124 5.17082 11.0036 5.33487C11.1855 5.49102 11.5316 5.76135 12 5.76135C12.4684 5.76135 12.8145 5.49102 12.9964 5.33487C13.1876 5.17082 13.4034 4.94333 13.623 4.71188L13.6532 4.68006C14.9793 3.28296 16.5385 2.66821 18.3432 3.17696C20.6521 3.82782 22 6.08991 22 8.66135C22 11.3847 20.8182 13.7724 19.0918 15.7915C17.3631 17.8133 15.1455 19.3944 13.2405 20.4682C12.4143 20.9339 12.2517 21 12 21C11.7483 21 11.5857 20.9339 10.7595 20.4682C8.85452 19.3944 6.63691 17.8133 4.90824 15.7915C3.18184 13.7724 2 11.3847 2 8.66135C2 6.08991 3.34791 3.82782 5.65679 3.17696Z" fill="white" fill-opacity="0.2"/>
</g>
<g filter="url(#filter1_b_9513_11999)">
<path fill-rule="evenodd" clip-rule="evenodd" d="M11.7533 4.35222C10.1901 2.82463 8.14439 2.00903 5.77193 2.62937C2.73407 3.42371 1.09961 6.17062 1.09961 9.00011C1.09961 11.8973 2.46145 14.3279 4.22262 16.2385C5.98173 18.1469 8.19078 19.596 10.0368 20.5612L10.1334 20.6118C10.7465 20.9334 11.2834 21.215 11.9996 21.215C12.7158 21.215 13.2527 20.9334 13.8658 20.6118L13.9624 20.5612C15.8084 19.596 18.0175 18.1469 19.7766 16.2385C21.5378 14.3279 22.8996 11.8973 22.8996 9.00011C22.8996 6.17062 21.2651 3.42371 18.2273 2.62937C15.8548 2.00903 13.8091 2.82463 12.246 4.35222C12.1501 4.44587 12.0701 4.52401 11.9996 4.59123C11.9291 4.52401 11.8491 4.44587 11.7533 4.35222ZM10.4952 5.63957C9.28848 4.4603 7.86958 3.9414 6.22728 4.37083C4.12621 4.92021 2.89961 6.8296 2.89961 9.00011C2.89961 11.2989 3.97509 13.3142 5.54611 15.0185C7.1192 16.7251 9.13723 18.0597 10.8708 18.966C11.6226 19.3591 11.7706 19.415 11.9996 19.415C12.2286 19.415 12.3766 19.3591 13.1285 18.966C14.862 18.0597 16.88 16.7251 18.4531 15.0185C20.0241 13.3142 21.0996 11.2989 21.0996 9.00011C21.0996 6.8296 19.873 4.92021 17.7719 4.37083C16.1296 3.9414 14.7107 4.4603 13.504 5.63957L13.4766 5.66642C13.2767 5.86179 13.0803 6.05381 12.9064 6.19228C12.7408 6.32409 12.4258 6.55227 11.9996 6.55227C11.5734 6.55227 11.2584 6.32409 11.0929 6.19228C10.9189 6.05381 10.7225 5.86179 10.5227 5.66642L10.4952 5.63957Z" fill="white"/>
</g>
<defs>
<filter id="filter0_b_9513_11999" x="0" y="1" width="24" height="22" filterUnits="userSpaceOnUse" color-interpolation-filters="sRGB">
<feFlood flood-opacity="0" result="BackgroundImageFix"/>
<feGaussianBlur in="BackgroundImageFix" stdDeviation="1"/>
<feComposite in2="SourceAlpha" operator="in" result="effect1_backgroundBlur_9513_11999"/>
<feBlend mode="normal" in="SourceGraphic" in2="effect1_backgroundBlur_9513_11999" result="shape"/>
</filter>
<filter id="filter1_b_9513_11999" x="-25.3004" y="-23.9796" width="74.5998" height="71.5944" filterUnits="userSpaceOnUse" color-interpolation-filters="sRGB">
<feFlood flood-opacity="0" result="BackgroundImageFix"/>
<feGaussianBlur in="BackgroundImageFix" stdDeviation="13.2"/>
<feComposite in2="SourceAlpha" operator="in" result="effect1_backgroundBlur_9513_11999"/>
<feBlend mode="normal" in="SourceGraphic" in2="effect1_backgroundBlur_9513_11999" result="shape"/>
</filter>
</defs>
</svg>
