<svg width="12" height="15" viewBox="0 0 12 15" fill="none" xmlns="http://www.w3.org/2000/svg">
<path fill-rule="evenodd" clip-rule="evenodd" d="M5.99974 4.06771C4.5638 4.06771 3.39974 5.23177 3.39974 6.66771C3.39974 8.10365 4.5638 9.26771 5.99974 9.26771C7.43568 9.26771 8.59974 8.10365 8.59974 6.66771C8.59974 5.23177 7.43568 4.06771 5.99974 4.06771ZM4.59974 6.66771C4.59974 5.89451 5.22654 5.26771 5.99974 5.26771C6.77294 5.26771 7.39974 5.89451 7.39974 6.66771C7.39974 7.44091 6.77294 8.06771 5.99974 8.06771C5.22654 8.06771 4.59974 7.44091 4.59974 6.66771Z" fill="white"/>
<path fill-rule="evenodd" clip-rule="evenodd" d="M5.99974 0.734375C3.05191 0.734375 0.0664062 2.95493 0.0664062 6.66771C0.0664062 9.3473 1.96079 11.9144 4.0551 13.8343L4.08444 13.8612C4.3994 14.15 4.68446 14.4114 4.95897 14.5936C5.26831 14.7989 5.59659 14.9275 5.99974 14.9275C6.40289 14.9275 6.73117 14.7989 7.04051 14.5936C7.31502 14.4114 7.60009 14.15 7.91505 13.8612L7.94438 13.8343C10.0387 11.9144 11.9331 9.3473 11.9331 6.66771C11.9331 2.95493 8.94757 0.734375 5.99974 0.734375ZM1.26641 6.66771C1.26641 3.71382 3.61423 1.93438 5.99974 1.93438C8.38525 1.93438 10.7331 3.71382 10.7331 6.66771C10.7331 8.81893 9.17017 11.0826 7.13348 12.9497C6.77977 13.274 6.56374 13.4697 6.3769 13.5937C6.2164 13.7003 6.11526 13.7275 5.99974 13.7275C5.88422 13.7275 5.78308 13.7003 5.62258 13.5937C5.43574 13.4697 5.21971 13.274 4.86599 12.9497C2.82931 11.0826 1.26641 8.81893 1.26641 6.66771Z" fill="white"/>
</svg>
