<svg width="14" height="14" viewBox="0 0 14 14" fill="none" xmlns="http://www.w3.org/2000/svg">
<path d="M10.3318 9.39844C9.81631 9.39844 9.39844 9.81631 9.39844 10.3318C9.39844 10.8472 9.81631 11.2651 10.3318 11.2651C10.8472 11.2651 11.2651 10.8472 11.2651 10.3318C11.2651 9.81631 10.8472 9.39844 10.3318 9.39844Z" fill="white"/>
<path fill-rule="evenodd" clip-rule="evenodd" d="M4.3318 0.398438C4.66318 0.398438 4.9318 0.667067 4.9318 0.998438V1.73177L9.06514 1.73177V0.998438C9.06514 0.667067 9.33377 0.398438 9.66514 0.398438C9.99651 0.398438 10.2651 0.667067 10.2651 0.998438V1.73177H10.3721C10.9662 1.73174 11.4715 1.73172 11.8748 1.78594C12.3044 1.8437 12.7069 1.97271 13.0322 2.29803C13.3575 2.62336 13.4865 3.02584 13.5443 3.45546C13.5985 3.85872 13.5985 4.36399 13.5984 4.95807V10.3721C13.5985 10.9662 13.5985 11.4715 13.5443 11.8748C13.4865 12.3044 13.3575 12.7069 13.0322 13.0322C12.7069 13.3575 12.3044 13.4865 11.8748 13.5443C11.4715 13.5985 10.9662 13.5985 10.3722 13.5984H3.62476C3.0307 13.5985 2.52538 13.5985 2.12213 13.5443C1.69251 13.4865 1.29002 13.3575 0.964701 13.0322C0.639378 12.7069 0.510368 12.3044 0.452607 11.8748C0.39839 11.4715 0.398413 10.9662 0.398439 10.3721L0.398441 6.33329L0.398439 6.33177L0.398441 6.33025L0.398439 4.95812C0.398413 4.36404 0.39839 3.85872 0.452607 3.45546C0.510368 3.02584 0.639378 2.62336 0.964701 2.29803C1.29002 1.97271 1.69251 1.8437 2.12213 1.78594C2.5254 1.73172 3.03069 1.73174 3.62479 1.73177L3.7318 1.73177V0.998438C3.7318 0.667067 4.00043 0.398438 4.3318 0.398438ZM9.06514 2.93177V3.6651C9.06514 3.99648 9.33377 4.2651 9.66514 4.2651C9.99651 4.2651 10.2651 3.99648 10.2651 3.6651V2.93177H10.3318C10.9773 2.93177 11.401 2.93305 11.7149 2.97524C12.0114 3.01511 12.1185 3.08136 12.1837 3.14656C12.2489 3.21176 12.3151 3.31881 12.355 3.61536C12.3972 3.92917 12.3984 4.35294 12.3984 4.99844V5.73177L1.59844 5.73177V4.99844C1.59844 4.35294 1.59972 3.92917 1.64191 3.61536C1.68178 3.31881 1.74803 3.21176 1.81323 3.14656C1.87843 3.08136 1.98548 3.01511 2.28203 2.97524C2.59584 2.93305 3.01961 2.93177 3.66511 2.93177H3.7318V3.6651C3.7318 3.99648 4.00043 4.2651 4.3318 4.2651C4.66318 4.2651 4.9318 3.99648 4.9318 3.6651V2.93177H9.06514ZM1.59844 6.93177L12.3984 6.93177V10.3318C12.3984 10.9773 12.3972 11.401 12.355 11.7149C12.3151 12.0114 12.2489 12.1185 12.1837 12.1837C12.1185 12.2489 12.0114 12.3151 11.7149 12.355C11.401 12.3972 10.9773 12.3984 10.3318 12.3984H3.66511C3.01961 12.3984 2.59584 12.3972 2.28203 12.355C1.98548 12.3151 1.87843 12.2489 1.81323 12.1837C1.74803 12.1185 1.68178 12.0114 1.64191 11.7149C1.59972 11.401 1.59844 10.9773 1.59844 10.3318V6.93177Z" fill="white"/>
</svg>
