<svg width="19" height="19" viewBox="0 0 19 19" fill="none" xmlns="http://www.w3.org/2000/svg">
<path d="M2.19239 18H17.1492M11.8636 6.91165L15.877 5.57593C16.0893 5.49977 16.3117 5.47696 16.5311 5.50884C16.7506 5.54071 16.9627 5.62663 17.1551 5.76156C17.3475 5.8965 17.5163 6.07774 17.6517 6.29469C17.787 6.51164 17.8862 6.75994 17.9434 7.02507C18.0006 7.2902 18.0146 7.56683 17.9847 7.83878C17.9548 8.11073 17.8815 8.37255 17.7692 8.60891C17.6569 8.84527 17.5077 9.05143 17.3305 9.21534C17.1533 9.37924 16.9515 9.4976 16.737 9.56348L4.69765 13.5717L1 8.38982L3.40721 7.5888L5.443 9.04839L7.85021 8.24737L4.74003 1.80205L7.14807 1L11.8636 6.91165Z" stroke="white" stroke-width="1.5" stroke-linecap="round" stroke-linejoin="round"/>
</svg>
