<svg width="12" height="12" viewBox="0 0 12 12" fill="none" xmlns="http://www.w3.org/2000/svg">
<path d="M11.1429 0C11.5946 0 11.9649 0.349714 11.9979 0.793286L12 0.857143V11.1429C12 11.5946 11.6503 11.9649 11.2067 11.9974L11.1429 12H0.857143C0.405429 12 0.0351429 11.6503 0.00214291 11.2067L0 11.1429V0.857143C0 0.405429 0.349714 0.0351429 0.793286 0.00214291L0.857143 0H11.1429ZM6 2.10643L4.67743 3.42857H0.857143V11.1429H4.28571V9C4.28571 8.54829 4.63543 8.178 5.079 8.145L5.14286 8.14286H6.85714C7.30886 8.14286 7.67914 8.49257 7.71214 8.93614L7.71429 9V11.1429H11.1429V3.42857H7.32257L6 2.10643ZM6.85714 9H5.14286V11.1429H6.85714V9ZM9.42857 8.14286C9.66514 8.14286 9.85714 8.33486 9.85714 8.57143C9.85714 8.808 9.66514 9 9.42857 9C9.192 9 9 8.808 9 8.57143C9 8.33486 9.192 8.14286 9.42857 8.14286ZM2.57143 8.14286C2.808 8.14286 3 8.33486 3 8.57143C3 8.808 2.808 9 2.57143 9C2.33486 9 2.14286 8.808 2.14286 8.57143C2.14286 8.33486 2.33486 8.14286 2.57143 8.14286ZM9.42857 6.42857C9.66514 6.42857 9.85714 6.62057 9.85714 6.85714C9.85714 7.09371 9.66514 7.28571 9.42857 7.28571C9.192 7.28571 9 7.09371 9 6.85714C9 6.62057 9.192 6.42857 9.42857 6.42857ZM2.57143 6.42857C2.808 6.42857 3 6.62057 3 6.85714C3 7.09371 2.808 7.28571 2.57143 7.28571C2.33486 7.28571 2.14286 7.09371 2.14286 6.85714C2.14286 6.62057 2.33486 6.42857 2.57143 6.42857ZM9.42857 4.71429C9.66514 4.71429 9.85714 4.90629 9.85714 5.14286C9.85714 5.37943 9.66514 5.57143 9.42857 5.57143C9.192 5.57143 9 5.37943 9 5.14286C9 4.90629 9.192 4.71429 9.42857 4.71429ZM6 4.71429C6.23657 4.71429 6.42857 4.90629 6.42857 5.14286C6.42857 5.37943 6.23657 5.57143 6 5.57143C5.76343 5.57143 5.57143 5.37943 5.57143 5.14286C5.57143 4.90629 5.76343 4.71429 6 4.71429ZM2.57143 4.71429C2.808 4.71429 3 4.90629 3 5.14286C3 5.37943 2.808 5.57143 2.57143 5.57143C2.33486 5.57143 2.14286 5.37943 2.14286 5.14286C2.14286 4.90629 2.33486 4.71429 2.57143 4.71429ZM11.1429 2.57143V0.857143H0.857143V2.57143H4.32171L5.394 1.5C5.71114 1.18286 6.21471 1.16614 6.55157 1.44986L6.606 1.5L7.67786 2.57143H11.1429Z" fill="#757575"/>
</svg>
