<svg width="12" height="12" viewBox="0 0 12 12" fill="none" xmlns="http://www.w3.org/2000/svg">
<path d="M11.1429 2.14286H7.71429V0.857143C7.71386 0.63 7.62343 0.411857 7.46271 0.251143C7.30243 0.0908573 7.08429 0.000428571 6.85714 0H0.857143C0.63 0.000428571 0.411857 0.0904288 0.251143 0.251143C0.0904288 0.411857 0.000428571 0.63 0 0.857143V11.1429C0.000428571 11.37 0.0908573 11.5881 0.251143 11.7484C0.411857 11.9091 0.63 11.9996 0.857143 12H11.1429C11.37 11.9996 11.5877 11.9091 11.7484 11.7484C11.9091 11.5877 11.9996 11.37 12 11.1429V3C11.9996 2.77286 11.9091 2.55471 11.7484 2.394C11.5881 2.23371 11.37 2.14329 11.1429 2.14286ZM4.71429 11.1429H3V9H4.71429V11.1429ZM6.85714 11.1429H5.57143V9C5.571 8.77286 5.48057 8.55471 5.31986 8.39443C5.15957 8.23371 4.94143 8.14329 4.71429 8.14286H3C2.77286 8.14329 2.55471 8.23371 2.394 8.39443C2.23371 8.55471 2.14329 8.77286 2.14286 9V11.1429H0.857143L0.856714 0.857143H6.85714V11.1429ZM11.1429 11.1429H7.71429V3H11.1429V11.1429ZM9.85714 6C9.85714 6.08486 9.83186 6.16757 9.78471 6.23829C9.738 6.30857 9.67071 6.36343 9.59271 6.396C9.51429 6.42857 9.42814 6.43671 9.345 6.42043C9.26186 6.40371 9.18557 6.363 9.12557 6.303C9.06557 6.243 9.02486 6.16671 9.00814 6.08357C8.99186 6.00043 9 5.91429 9.03257 5.83586C9.06514 5.75786 9.12 5.69057 9.19029 5.64386C9.261 5.59671 9.34371 5.57143 9.42857 5.57143C9.54214 5.57143 9.65143 5.61643 9.73157 5.697C9.81214 5.77714 9.85714 5.88643 9.85714 6ZM9 4.28571C9 4.20086 9.02529 4.11814 9.07243 4.04743C9.11914 3.97714 9.18643 3.92229 9.26443 3.88971C9.34286 3.85714 9.429 3.849 9.51214 3.86529C9.59529 3.882 9.67157 3.92271 9.73157 3.98271C9.79157 4.04271 9.83229 4.119 9.849 4.20214C9.86529 4.28529 9.85714 4.37143 9.82457 4.44986C9.792 4.52786 9.73714 4.59514 9.66686 4.64186C9.59614 4.689 9.51343 4.71429 9.42857 4.71429C9.315 4.71429 9.20571 4.66929 9.12557 4.58871C9.045 4.50857 9 4.39929 9 4.28571ZM5.57143 6C5.57143 6.08486 5.54614 6.16757 5.499 6.23829C5.45229 6.30857 5.385 6.36343 5.307 6.396C5.22857 6.42857 5.14243 6.43671 5.05929 6.42043C4.97614 6.40371 4.89986 6.363 4.83986 6.303C4.77986 6.243 4.73914 6.16671 4.72243 6.08357C4.70614 6.00043 4.71429 5.91429 4.74686 5.83586C4.77943 5.75786 4.83429 5.69057 4.90457 5.64386C4.97529 5.59671 5.058 5.57143 5.14286 5.57143C5.25643 5.57143 5.36571 5.61643 5.44586 5.697C5.52643 5.77714 5.57143 5.88643 5.57143 6ZM5.57143 4.28571C5.57143 4.37057 5.54614 4.45329 5.499 4.524C5.45229 4.59429 5.385 4.64914 5.307 4.68171C5.22857 4.71429 5.14243 4.72243 5.05929 4.70614C4.97614 4.68943 4.89986 4.64871 4.83986 4.58871C4.77986 4.52871 4.73914 4.45243 4.72243 4.36929C4.70614 4.28614 4.71429 4.2 4.74686 4.12157C4.77943 4.04357 4.83429 3.97629 4.90457 3.92957C4.97529 3.88243 5.058 3.85714 5.14286 3.85714C5.25643 3.85714 5.36571 3.90214 5.44586 3.98271C5.52643 4.06286 5.57143 4.17214 5.57143 4.28571ZM5.57143 2.57143C5.57143 2.65629 5.54614 2.739 5.499 2.80971C5.45229 2.88 5.385 2.93486 5.307 2.96743C5.22857 3 5.14243 3.00814 5.05929 2.99186C4.97614 2.97514 4.89986 2.93443 4.83986 2.87443C4.77986 2.81443 4.73914 2.73814 4.72243 2.655C4.70614 2.57186 4.71429 2.48571 4.74686 2.40729C4.77943 2.32929 4.83429 2.262 4.90457 2.21529C4.97529 2.16814 5.058 2.14286 5.14286 2.14286C5.25643 2.14286 5.36571 2.18786 5.44586 2.26843C5.52643 2.34857 5.57143 2.45786 5.57143 2.57143ZM3 6C3 6.08486 2.97471 6.16757 2.92757 6.23829C2.88086 6.30857 2.81357 6.36343 2.73557 6.396C2.65714 6.42857 2.571 6.43671 2.48786 6.42043C2.40471 6.40371 2.32843 6.363 2.26843 6.303C2.20843 6.243 2.16771 6.16671 2.151 6.08357C2.13471 6.00043 2.14286 5.91429 2.17543 5.83586C2.208 5.75786 2.26286 5.69057 2.33314 5.64386C2.40386 5.59671 2.48657 5.57143 2.57143 5.57143C2.685 5.57143 2.79429 5.61643 2.87443 5.697C2.955 5.77714 3 5.88643 3 6ZM3 4.28571C3 4.37057 2.97471 4.45329 2.92757 4.524C2.88086 4.59429 2.81357 4.64914 2.73557 4.68171C2.65714 4.71429 2.571 4.72243 2.48786 4.70614C2.40471 4.68943 2.32843 4.64871 2.26843 4.58871C2.20843 4.52871 2.16771 4.45243 2.151 4.36929C2.13471 4.28614 2.14286 4.2 2.17543 4.12157C2.208 4.04357 2.26286 3.97629 2.33314 3.92957C2.40386 3.88243 2.48657 3.85714 2.57143 3.85714C2.685 3.85714 2.79429 3.90214 2.87443 3.98271C2.955 4.06286 3 4.17214 3 4.28571ZM3 2.57143C3 2.65629 2.97471 2.739 2.92757 2.80971C2.88086 2.88 2.81357 2.93486 2.73557 2.96743C2.65714 3 2.571 3.00814 2.48786 2.99186C2.40471 2.97514 2.32843 2.93443 2.26843 2.87443C2.20843 2.81443 2.16771 2.73814 2.151 2.655C2.13471 2.57186 2.14286 2.48571 2.17543 2.40729C2.208 2.32929 2.26286 2.262 2.33314 2.21529C2.40386 2.16814 2.48657 2.14286 2.57143 2.14286C2.685 2.14286 2.79429 2.18786 2.87443 2.26843C2.955 2.34857 3 2.45786 3 2.57143Z" fill="#757575"/>
</svg>
