<svg width="40" height="40" viewBox="0 0 40 40" fill="none" xmlns="http://www.w3.org/2000/svg">
<path d="M35.6886 16.8664H34.3998V16.8H19.9998V23.2H29.0422C27.723 26.9256 24.1782 29.6 19.9998 29.6C14.6982 29.6 10.3998 25.3016 10.3998 20C10.3998 14.6984 14.6982 10.4 19.9998 10.4C22.447 10.4 24.6734 11.3232 26.3686 12.8312L30.8942 8.3056C28.0366 5.6424 24.2142 4 19.9998 4C11.1638 4 3.99976 11.164 3.99976 20C3.99976 28.836 11.1638 36 19.9998 36C28.8358 36 35.9998 28.836 35.9998 20C35.9998 18.9272 35.8894 17.88 35.6886 16.8664Z" fill="#FFC107"/>
<path d="M5.84473 12.5528L11.1015 16.408C12.5239 12.8864 15.9687 10.4 19.9999 10.4C22.4471 10.4 24.6735 11.3232 26.3687 12.8312L30.8943 8.3056C28.0367 5.6424 24.2143 4 19.9999 4C13.8543 4 8.52473 7.4696 5.84473 12.5528Z" fill="#FF3D00"/>
<path d="M20.0001 36C24.1329 36 27.8881 34.4184 30.7273 31.8464L25.7753 27.656C24.1149 28.9187 22.0861 29.6016 20.0001 29.6C15.8385 29.6 12.3049 26.9464 10.9737 23.2432L5.7561 27.2632C8.4041 32.4448 13.7817 36 20.0001 36Z" fill="#4CAF50"/>
<path d="M35.6888 16.8664H34.4V16.8H20V23.2001H29.0424C28.4114 24.9732 27.2747 26.5226 25.7728 27.6569L25.7752 27.6553L30.7272 31.8457C30.3768 32.1641 36 28.0001 36 20.0001C36 18.9272 35.8896 17.88 35.6888 16.8664Z" fill="#1976D2"/>
</svg>
