<svg width="41" height="40" viewBox="0 0 41 40" fill="none" xmlns="http://www.w3.org/2000/svg">
<path d="M21.5 36C19.3333 36 17.2604 35.5781 15.2812 34.7344C13.3021 33.8906 11.599 32.7552 10.1719 31.3281C8.74479 29.901 7.60938 28.1979 6.76562 26.2188C5.92188 24.2396 5.5 22.1667 5.5 20C5.5 17.8333 5.92188 15.7604 6.76562 13.7812C7.60938 11.8021 8.74479 10.099 10.1719 8.67188C11.599 7.24479 13.3021 6.10938 15.2812 5.26562C17.2604 4.42188 19.3333 4 21.5 4C23.6667 4 25.7396 4.42188 27.7188 5.26562C29.6979 6.10938 31.401 7.24479 32.8281 8.67188C34.2552 10.099 35.3906 11.8021 36.2344 13.7812C37.0781 15.7604 37.5 17.8333 37.5 20C37.5 22.1667 37.0781 24.2396 36.2344 26.2188C35.3906 28.1979 34.2552 29.901 32.8281 31.3281C31.401 32.7552 29.6979 33.8906 27.7188 34.7344C25.7396 35.5781 23.6667 36 21.5 36ZM30.9062 12C30.7812 12.0625 30.5938 12.1771 30.3438 12.3438L29.7344 12.75L29.1562 13.0625L28.5 13.2812C27.7292 12.4271 26.7812 12 25.6562 12C23.2188 12 22 13.0208 22 15.0625V16.9062C18.6458 16.7396 16.0729 15.5104 14.2812 13.2188C13.7604 13.7604 13.5 14.3542 13.5 15C13.5 16.375 14.0104 17.4167 15.0312 18.125C14.9062 18.125 14.7292 18.1354 14.5 18.1562C14.2708 18.1771 14.0885 18.1771 13.9531 18.1562C13.8177 18.1354 13.6667 18.0833 13.5 18C13.5 18.9583 13.7552 19.7552 14.2656 20.3906C14.776 21.026 15.4792 21.4375 16.375 21.625C16.1667 21.875 15.875 22 15.5 22C15.1667 22 14.875 21.9062 14.625 21.7188C14.625 22.5312 15.0156 23.1615 15.7969 23.6094C16.5781 24.0573 17.4583 24.2917 18.4375 24.3125C18.0625 24.875 17.5156 25.2969 16.7969 25.5781C16.0781 25.8594 15.3125 26 14.5 26C14.2083 26 13.8073 25.9271 13.2969 25.7812C12.7865 25.6354 12.5208 25.5625 12.5 25.5625C12.8333 26.2292 13.5156 26.8021 14.5469 27.2812C15.5781 27.7604 16.8854 28 18.4688 28C19.8646 28 21.1667 27.7552 22.375 27.2656C23.5833 26.776 24.6146 26.125 25.4688 25.3125C26.3229 24.5 27.0573 23.5729 27.6719 22.5312C28.2865 21.4896 28.7448 20.4115 29.0469 19.2969C29.349 18.1823 29.5 17.0833 29.5 16C29.5 15.9583 29.625 15.8698 29.875 15.7344C30.125 15.599 30.4167 15.4167 30.75 15.1875C31.0833 14.9583 31.3333 14.7188 31.5 14.4688C30.375 14.4688 29.625 14.4896 29.25 14.5312C29.9792 14.0938 30.5312 13.25 30.9062 12Z" fill="#1DA1F2"/>
</svg>
