<svg width="20" height="20" viewBox="0 0 20 20" fill="none" xmlns="http://www.w3.org/2000/svg">
<path d="M18.9524 1.04712C18.2811 0.376618 17.3711 0 16.4224 0C15.4736 0 14.5636 0.376618 13.8924 1.04712L1.94036 12.9991C1.53389 13.4052 1.24827 13.9162 1.11536 14.4751L0.0203556 19.0771C-0.00929281 19.2018 -0.00651306 19.3319 0.0284298 19.4552C0.0633727 19.5785 0.129314 19.6907 0.219964 19.7813C0.310614 19.8718 0.42295 19.9377 0.546259 19.9725C0.669568 20.0073 0.799739 20.0099 0.924356 19.9801L5.52536 18.8841C6.08466 18.7514 6.59604 18.4657 7.00236 18.0591L18.9524 6.10912C19.6229 5.43785 19.9995 4.52788 19.9995 3.57912C19.9995 2.63035 19.6229 1.72038 18.9524 1.04912M14.9524 2.10912C15.1454 1.91607 15.3746 1.76294 15.6268 1.65847C15.879 1.55399 16.1494 1.50022 16.4224 1.50022C16.6954 1.50022 16.9657 1.55399 17.2179 1.65847C17.4701 1.76294 17.6993 1.91607 17.8924 2.10912C18.0854 2.30216 18.2385 2.53133 18.343 2.78356C18.4475 3.03578 18.5012 3.30611 18.5012 3.57912C18.5012 3.85212 18.4475 4.12245 18.343 4.37467C18.2385 4.6269 18.0854 4.85607 17.8924 5.04912L17.0004 5.93812L14.0604 2.99912L14.9524 2.10912ZM13.0004 4.06112L15.9404 6.99912L5.94036 16.9991C5.73036 17.2091 5.46636 17.3561 5.17736 17.4251L1.76136 18.2391L2.57436 14.8231C2.64336 14.5331 2.79136 14.2691 3.00136 14.0591L13.0004 4.06112Z" fill="white"/>
</svg>
