<svg width="24" height="24" viewBox="0 0 24 24" fill="none" xmlns="http://www.w3.org/2000/svg">
<path d="M19.7143 3C20.3919 3 20.9473 3.52457 20.9968 4.18993L21 4.28571V19.7143C21 20.3919 20.4754 20.9473 19.8101 20.9961L19.7143 21H4.28571C3.60814 21 3.05271 20.4754 3.00321 19.8101L3 19.7143V4.28571C3 3.60814 3.52457 3.05271 4.18993 3.00321L4.28571 3H19.7143ZM12 6.15964L10.0161 8.14286H4.28571V19.7143H9.42857V16.5C9.42857 15.8224 9.95314 15.267 10.6185 15.2175L10.7143 15.2143H13.2857C13.9633 15.2143 14.5187 15.7389 14.5682 16.4042L14.5714 16.5V19.7143H19.7143V8.14286H13.9839L12 6.15964ZM13.2857 16.5H10.7143V19.7143H13.2857V16.5ZM17.1429 15.2143C17.4977 15.2143 17.7857 15.5023 17.7857 15.8571C17.7857 16.212 17.4977 16.5 17.1429 16.5C16.788 16.5 16.5 16.212 16.5 15.8571C16.5 15.5023 16.788 15.2143 17.1429 15.2143ZM6.85714 15.2143C7.212 15.2143 7.5 15.5023 7.5 15.8571C7.5 16.212 7.212 16.5 6.85714 16.5C6.50229 16.5 6.21429 16.212 6.21429 15.8571C6.21429 15.5023 6.50229 15.2143 6.85714 15.2143ZM17.1429 12.6429C17.4977 12.6429 17.7857 12.9309 17.7857 13.2857C17.7857 13.6406 17.4977 13.9286 17.1429 13.9286C16.788 13.9286 16.5 13.6406 16.5 13.2857C16.5 12.9309 16.788 12.6429 17.1429 12.6429ZM6.85714 12.6429C7.212 12.6429 7.5 12.9309 7.5 13.2857C7.5 13.6406 7.212 13.9286 6.85714 13.9286C6.50229 13.9286 6.21429 13.6406 6.21429 13.2857C6.21429 12.9309 6.50229 12.6429 6.85714 12.6429ZM17.1429 10.0714C17.4977 10.0714 17.7857 10.3594 17.7857 10.7143C17.7857 11.0691 17.4977 11.3571 17.1429 11.3571C16.788 11.3571 16.5 11.0691 16.5 10.7143C16.5 10.3594 16.788 10.0714 17.1429 10.0714ZM12 10.0714C12.3549 10.0714 12.6429 10.3594 12.6429 10.7143C12.6429 11.0691 12.3549 11.3571 12 11.3571C11.6451 11.3571 11.3571 11.0691 11.3571 10.7143C11.3571 10.3594 11.6451 10.0714 12 10.0714ZM6.85714 10.0714C7.212 10.0714 7.5 10.3594 7.5 10.7143C7.5 11.0691 7.212 11.3571 6.85714 11.3571C6.50229 11.3571 6.21429 11.0691 6.21429 10.7143C6.21429 10.3594 6.50229 10.0714 6.85714 10.0714ZM19.7143 6.85714V4.28571H4.28571V6.85714H9.48257L11.091 5.25C11.5667 4.77429 12.3221 4.74921 12.8274 5.17479L12.909 5.25L14.5168 6.85714H19.7143Z" fill="white"/>
</svg>
