<svg width="24" height="24" viewBox="0 0 24 24" fill="none" xmlns="http://www.w3.org/2000/svg">
<path fill-rule="evenodd" clip-rule="evenodd" d="M11.9996 2.09998C9.29341 2.09998 7.09961 4.29378 7.09961 6.99998C7.09961 9.70617 9.29341 11.9 11.9996 11.9C14.7058 11.9 16.8996 9.70617 16.8996 6.99998C16.8996 4.29378 14.7058 2.09998 11.9996 2.09998ZM8.89961 6.99998C8.89961 5.28789 10.2875 3.89998 11.9996 3.89998C13.7117 3.89998 15.0996 5.28789 15.0996 6.99998C15.0996 8.71206 13.7117 10.1 11.9996 10.1C10.2875 10.1 8.89961 8.71206 8.89961 6.99998Z" fill="white"/>
<path fill-rule="evenodd" clip-rule="evenodd" d="M11.9996 14.1C9.97465 14.1 8.09868 14.45 6.69534 15.0514C5.99526 15.3515 5.37123 15.7318 4.90913 16.2C4.44322 16.6721 4.09961 17.2814 4.09961 18C4.09961 18.7185 4.44322 19.3278 4.90913 19.7999C5.37123 20.2681 5.99526 20.6485 6.69534 20.9485C8.09868 21.55 9.97465 21.9 11.9996 21.9C14.0246 21.9 15.9005 21.55 17.3039 20.9485C18.004 20.6485 18.628 20.2681 19.0901 19.7999C19.556 19.3278 19.8996 18.7185 19.8996 18C19.8996 17.2814 19.556 16.6721 19.0901 16.2C18.628 15.7318 18.004 15.3515 17.3039 15.0514C15.9005 14.45 14.0246 14.1 11.9996 14.1ZM5.89961 18C5.89961 17.8901 5.94775 17.7102 6.19028 17.4644C6.43662 17.2148 6.83771 16.9487 7.40439 16.7059C8.53454 16.2215 10.1586 15.9 11.9996 15.9C13.8406 15.9 15.4647 16.2215 16.5948 16.7059C17.1615 16.9487 17.5626 17.2148 17.8089 17.4644C18.0515 17.7102 18.0996 17.8901 18.0996 18C18.0996 18.1098 18.0515 18.2898 17.8089 18.5355C17.5626 18.7851 17.1615 19.0512 16.5948 19.2941C15.4647 19.7784 13.8406 20.1 11.9996 20.1C10.1586 20.1 8.53454 19.7784 7.40439 19.2941C6.83771 19.0512 6.43662 18.7851 6.19028 18.5355C5.94775 18.2898 5.89961 18.1098 5.89961 18Z" fill="white"/>
</svg>
