<svg width="24" height="24" viewBox="0 0 24 24" fill="none" xmlns="http://www.w3.org/2000/svg">
<path d="M16.9996 15.6C16.2264 15.6 15.5996 16.2268 15.5996 17C15.5996 17.7732 16.2264 18.4 16.9996 18.4C17.7728 18.4 18.3996 17.7732 18.3996 17C18.3996 16.2268 17.7728 15.6 16.9996 15.6Z" fill="white"/>
<path fill-rule="evenodd" clip-rule="evenodd" d="M7.99966 2.09998C8.49672 2.09998 8.89966 2.50292 8.89966 2.99998V4.09998L15.0997 4.09998V2.99998C15.0997 2.50292 15.5026 2.09998 15.9997 2.09998C16.4967 2.09998 16.8997 2.50292 16.8997 2.99998V4.09998H17.0601C17.9512 4.09994 18.7092 4.0999 19.3141 4.18123C19.9585 4.26787 20.5622 4.46138 21.0502 4.94937C21.5382 5.43736 21.7317 6.04109 21.8184 6.68551C21.8997 7.29039 21.8997 8.04831 21.8996 8.93942V17.0604C21.8997 17.9516 21.8997 18.7096 21.8184 19.3144C21.7317 19.9589 21.5382 20.5626 21.0502 21.0506C20.5622 21.5386 19.9585 21.7321 19.3141 21.8187C18.7092 21.9001 17.9513 21.9 17.0602 21.9H6.93909C6.04801 21.9 5.29002 21.9001 4.68515 21.8187C4.04072 21.7321 3.43699 21.5386 2.94901 21.0506C2.46102 20.5626 2.2675 19.9589 2.18086 19.3144C2.09954 18.7096 2.09957 17.9516 2.09961 17.0605L2.09961 11.0022L2.09961 11L2.09961 10.9977L2.09961 8.9395C2.09957 8.04838 2.09954 7.2904 2.18086 6.68551C2.2675 6.04109 2.46102 5.43736 2.94901 4.94937C3.43699 4.46138 4.04072 4.26787 4.68515 4.18123C5.29005 4.0999 6.048 4.09994 6.93914 4.09998L7.09966 4.09998V2.99998C7.09966 2.50292 7.5026 2.09998 7.99966 2.09998ZM15.0997 5.89998V6.99998C15.0997 7.49703 15.5026 7.89998 15.9997 7.89998C16.4967 7.89998 16.8997 7.49703 16.8997 6.99998V5.89998H16.9996C17.9679 5.89998 18.6035 5.90189 19.0742 5.96518C19.5191 6.02498 19.6796 6.12436 19.7774 6.22216C19.8752 6.31996 19.9746 6.48053 20.0344 6.92536C20.0977 7.39608 20.0996 8.03173 20.0996 8.99998V10.1L3.89961 10.1V8.99998C3.89961 8.03173 3.90153 7.39608 3.96481 6.92536C4.02462 6.48053 4.124 6.31996 4.2218 6.22216C4.3196 6.12436 4.48017 6.02498 4.92499 5.96518C5.39571 5.90189 6.03136 5.89998 6.99962 5.89998H7.09966V6.99998C7.09966 7.49703 7.5026 7.89998 7.99966 7.89998C8.49672 7.89998 8.89966 7.49703 8.89966 6.99998V5.89998H15.0997ZM3.89961 11.9L20.0996 11.9V17C20.0996 17.9682 20.0977 18.6039 20.0344 19.0746C19.9746 19.5194 19.8752 19.68 19.7774 19.7778C19.6796 19.8756 19.5191 19.975 19.0742 20.0348C18.6035 20.0981 17.9679 20.1 16.9996 20.1H6.99961C6.03136 20.1 5.39571 20.0981 4.92499 20.0348C4.48017 19.975 4.3196 19.8756 4.2218 19.7778C4.124 19.68 4.02462 19.5194 3.96481 19.0746C3.90153 18.6039 3.89961 17.9682 3.89961 17V11.9Z" fill="white"/>
</svg>
