<svg width="24" height="24" viewBox="0 0 24 24" fill="none" xmlns="http://www.w3.org/2000/svg">
<path d="M19.7143 6.21429H14.5714V4.28571C14.5708 3.945 14.4351 3.61779 14.1941 3.37671C13.9536 3.13629 13.6264 3.00064 13.2857 3H4.28571C3.945 3.00064 3.61779 3.13564 3.37671 3.37671C3.13564 3.61779 3.00064 3.945 3 4.28571V19.7143C3.00064 20.055 3.13629 20.3822 3.37671 20.6226C3.61779 20.8637 3.945 20.9994 4.28571 21H19.7143C20.055 20.9994 20.3816 20.8637 20.6226 20.6226C20.8637 20.3816 20.9994 20.055 21 19.7143V7.5C20.9994 7.15929 20.8637 6.83207 20.6226 6.591C20.3822 6.35057 20.055 6.21493 19.7143 6.21429ZM10.0714 19.7143H7.5V16.5H10.0714V19.7143ZM13.2857 19.7143H11.3571V16.5C11.3565 16.1593 11.2209 15.8321 10.9798 15.5916C10.7394 15.3506 10.4121 15.2149 10.0714 15.2143H7.5C7.15929 15.2149 6.83207 15.3506 6.591 15.5916C6.35057 15.8321 6.21493 16.1593 6.21429 16.5V19.7143H4.28571L4.28507 4.28571H13.2857V19.7143ZM19.7143 19.7143H14.5714V7.5H19.7143V19.7143ZM17.7857 12C17.7857 12.1273 17.7478 12.2514 17.6771 12.3574C17.607 12.4629 17.5061 12.5451 17.3891 12.594C17.2714 12.6429 17.1422 12.6551 17.0175 12.6306C16.8928 12.6056 16.7784 12.5445 16.6884 12.4545C16.5984 12.3645 16.5373 12.2501 16.5122 12.1254C16.4878 12.0006 16.5 11.8714 16.5489 11.7538C16.5977 11.6368 16.68 11.5359 16.7854 11.4658C16.8915 11.3951 17.0156 11.3571 17.1429 11.3571C17.3132 11.3571 17.4771 11.4246 17.5974 11.5455C17.7182 11.6657 17.7857 11.8296 17.7857 12ZM16.5 9.42857C16.5 9.30129 16.5379 9.17721 16.6086 9.07114C16.6787 8.96571 16.7796 8.88343 16.8966 8.83457C17.0143 8.78571 17.1435 8.7735 17.2682 8.79793C17.3929 8.823 17.5074 8.88407 17.5974 8.97407C17.6874 9.06407 17.7484 9.1785 17.7735 9.30321C17.7979 9.42793 17.7857 9.55714 17.7369 9.67479C17.688 9.79179 17.6057 9.89271 17.5003 9.96279C17.3942 10.0335 17.2701 10.0714 17.1429 10.0714C16.9725 10.0714 16.8086 10.0039 16.6884 9.88307C16.5675 9.76286 16.5 9.59893 16.5 9.42857ZM11.3571 12C11.3571 12.1273 11.3192 12.2514 11.2485 12.3574C11.1784 12.4629 11.0775 12.5451 10.9605 12.594C10.8429 12.6429 10.7136 12.6551 10.5889 12.6306C10.4642 12.6056 10.3498 12.5445 10.2598 12.4545C10.1698 12.3645 10.1087 12.2501 10.0836 12.1254C10.0592 12.0006 10.0714 11.8714 10.1203 11.7538C10.1691 11.6368 10.2514 11.5359 10.3569 11.4658C10.4629 11.3951 10.587 11.3571 10.7143 11.3571C10.8846 11.3571 11.0486 11.4246 11.1688 11.5455C11.2896 11.6657 11.3571 11.8296 11.3571 12ZM11.3571 9.42857C11.3571 9.55586 11.3192 9.67993 11.2485 9.786C11.1784 9.89143 11.0775 9.97371 10.9605 10.0226C10.8429 10.0714 10.7136 10.0836 10.5889 10.0592C10.4642 10.0341 10.3498 9.97307 10.2598 9.88307C10.1698 9.79307 10.1087 9.67864 10.0836 9.55393C10.0592 9.42921 10.0714 9.3 10.1203 9.18236C10.1691 9.06536 10.2514 8.96443 10.3569 8.89436C10.4629 8.82364 10.587 8.78571 10.7143 8.78571C10.8846 8.78571 11.0486 8.85321 11.1688 8.97407C11.2896 9.09429 11.3571 9.25821 11.3571 9.42857ZM11.3571 6.85714C11.3571 6.98443 11.3192 7.1085 11.2485 7.21457C11.1784 7.32 11.0775 7.40229 10.9605 7.45114C10.8429 7.5 10.7136 7.51221 10.5889 7.48779C10.4642 7.46271 10.3498 7.40164 10.2598 7.31164C10.1698 7.22164 10.1087 7.10721 10.0836 6.9825C10.0592 6.85779 10.0714 6.72857 10.1203 6.61093C10.1691 6.49393 10.2514 6.393 10.3569 6.32293C10.4629 6.25221 10.587 6.21429 10.7143 6.21429C10.8846 6.21429 11.0486 6.28179 11.1688 6.40264C11.2896 6.52286 11.3571 6.68679 11.3571 6.85714ZM7.5 12C7.5 12.1273 7.46207 12.2514 7.39136 12.3574C7.32129 12.4629 7.22036 12.5451 7.10336 12.594C6.98571 12.6429 6.8565 12.6551 6.73179 12.6306C6.60707 12.6056 6.49264 12.5445 6.40264 12.4545C6.31264 12.3645 6.25157 12.2501 6.2265 12.1254C6.20207 12.0006 6.21429 11.8714 6.26314 11.7538C6.312 11.6368 6.39429 11.5359 6.49971 11.4658C6.60579 11.3951 6.72986 11.3571 6.85714 11.3571C7.0275 11.3571 7.19143 11.4246 7.31164 11.5455C7.4325 11.6657 7.5 11.8296 7.5 12ZM7.5 9.42857C7.5 9.55586 7.46207 9.67993 7.39136 9.786C7.32129 9.89143 7.22036 9.97371 7.10336 10.0226C6.98571 10.0714 6.8565 10.0836 6.73179 10.0592C6.60707 10.0341 6.49264 9.97307 6.40264 9.88307C6.31264 9.79307 6.25157 9.67864 6.2265 9.55393C6.20207 9.42921 6.21429 9.3 6.26314 9.18236C6.312 9.06536 6.39429 8.96443 6.49971 8.89436C6.60579 8.82364 6.72986 8.78571 6.85714 8.78571C7.0275 8.78571 7.19143 8.85321 7.31164 8.97407C7.4325 9.09429 7.5 9.25821 7.5 9.42857ZM7.5 6.85714C7.5 6.98443 7.46207 7.1085 7.39136 7.21457C7.32129 7.32 7.22036 7.40229 7.10336 7.45114C6.98571 7.5 6.8565 7.51221 6.73179 7.48779C6.60707 7.46271 6.49264 7.40164 6.40264 7.31164C6.31264 7.22164 6.25157 7.10721 6.2265 6.9825C6.20207 6.85779 6.21429 6.72857 6.26314 6.61093C6.312 6.49393 6.39429 6.393 6.49971 6.32293C6.60579 6.25221 6.72986 6.21429 6.85714 6.21429C7.0275 6.21429 7.19143 6.28179 7.31164 6.40264C7.4325 6.52286 7.5 6.68679 7.5 6.85714Z" fill="white"/>
</svg>
