<svg width="24" height="24" viewBox="0 0 24 24" fill="none" xmlns="http://www.w3.org/2000/svg">
<path d="M10.1523 7.85938H14.8248V16.8494H10.1523V7.85938Z" fill="#FF600E" stroke="#757575"/>
<path d="M10.0136 12.3541C10.0136 10.3243 10.9859 8.52398 12.4806 7.35904C11.3822 6.51184 9.99559 6 8.48293 6C4.89923 6 2 8.84165 2 12.3541C2 15.8665 4.89923 18.7082 8.48285 18.7082C9.9955 18.7082 11.3821 18.1963 12.4806 17.3491C10.9859 16.2018 10.0136 14.3838 10.0136 12.3541Z" fill="#EB261D"/>
<path d="M22.9806 12.3541C22.9806 15.8665 20.0813 18.7082 16.4977 18.7082C14.9851 18.7082 13.5985 18.1963 12.5 17.3491C14.0127 16.1842 14.9671 14.3838 14.9671 12.3541C14.9671 10.3243 13.9946 8.52398 12.5 7.35904C13.5984 6.51184 14.9851 6 16.4977 6C20.0813 6 22.9806 8.85934 22.9806 12.3541Z" fill="#FEC76F"/>
</svg>
