<svg width="24" height="8" viewBox="0 0 24 8" fill="none" xmlns="http://www.w3.org/2000/svg">
<path d="M9.112 0.261047L5.97 7.75705H3.92L2.374 1.77405C2.28 1.40605 2.199 1.27105 1.913 1.11605C1.447 0.863047 0.677 0.626047 0 0.478047L0.046 0.261047H3.346C3.56165 0.260831 3.77027 0.337712 3.93421 0.477812C4.09815 0.617912 4.2066 0.812001 4.24 1.02505L5.057 5.36305L7.075 0.261047H9.112ZM17.145 5.31005C17.153 3.33105 14.409 3.22205 14.428 2.33805C14.434 2.06905 14.69 1.78305 15.25 1.71005C15.9063 1.64772 16.5672 1.76381 17.163 2.04605L17.503 0.456047C16.923 0.237847 16.3087 0.125073 15.689 0.123047C13.772 0.123047 12.423 1.14305 12.411 2.60205C12.399 3.68105 13.374 4.28205 14.109 4.64205C14.865 5.00905 15.119 5.24505 15.115 5.57305C15.11 6.07705 14.513 6.29805 13.955 6.30705C12.98 6.32205 12.415 6.04405 11.963 5.83405L11.612 7.47605C12.065 7.68405 12.901 7.86605 13.768 7.87405C15.805 7.87405 17.138 6.86805 17.145 5.31005ZM22.206 7.75705H24L22.435 0.261047H20.779C20.602 0.258996 20.4284 0.310389 20.2811 0.408511C20.1337 0.506633 20.0194 0.646922 19.953 0.811048L17.044 7.75705H19.08L19.485 6.63705H21.973L22.206 7.75705ZM20.043 5.10105L21.063 2.28605L21.651 5.10105H20.043ZM11.883 0.261047L10.28 7.75705H8.34L9.945 0.261047H11.883Z" fill="white"/>
</svg>
