<svg width="14" height="14" viewBox="0 0 14 14" fill="none" xmlns="http://www.w3.org/2000/svg">
<path fill-rule="evenodd" clip-rule="evenodd" d="M6.99913 2.0468C6.97964 2.09849 6.95889 2.15389 6.93668 2.21327L5.90528 4.9716C5.90323 4.97708 5.90115 4.98266 5.89904 4.98831C5.86727 5.07339 5.82885 5.17633 5.78496 5.26367C5.7316 5.36986 5.64815 5.50053 5.5024 5.60643C5.35664 5.71232 5.20658 5.75131 5.0891 5.76924C4.99248 5.78399 4.88271 5.78873 4.79198 5.79264C4.78595 5.79291 4.78 5.79316 4.77414 5.79342L1.8321 5.92197C1.76876 5.92474 1.70966 5.92736 1.65447 5.92992C1.69762 5.96442 1.74389 6.00128 1.7935 6.04075L4.0981 7.87404C4.1027 7.87769 4.10736 7.8814 4.11209 7.88516C4.18319 7.94166 4.2692 8.01001 4.3387 8.07873C4.4232 8.16229 4.52169 8.28204 4.57736 8.45338C4.63304 8.62472 4.62374 8.77949 4.60449 8.89676C4.58866 8.99321 4.55925 9.09907 4.53494 9.18656C4.53332 9.19238 4.53173 9.19812 4.53016 9.20378L3.74328 12.0416C3.72634 12.1026 3.71057 12.1597 3.69595 12.2129C3.7421 12.1826 3.79145 12.15 3.84432 12.115L6.30004 10.4897C6.30493 10.4864 6.30988 10.4832 6.31491 10.4798C6.39062 10.4297 6.48222 10.369 6.56906 10.3241C6.67464 10.2696 6.81897 10.2129 6.99913 10.2129C7.17929 10.2129 7.32361 10.2696 7.42919 10.3241C7.51603 10.369 7.60763 10.4297 7.68333 10.4798C7.68836 10.4832 7.69332 10.4864 7.69821 10.4897L10.1539 12.115C10.2068 12.15 10.2562 12.1826 10.3023 12.2129C10.2877 12.1597 10.2719 12.1026 10.255 12.0416L9.46809 9.20378C9.46653 9.19813 9.46493 9.1924 9.46332 9.18658C9.43901 9.09908 9.40959 8.99322 9.39376 8.89676C9.37451 8.77949 9.36522 8.62472 9.42089 8.45338C9.47656 8.28204 9.57505 8.16229 9.65956 8.07873C9.72905 8.01 9.81507 7.94165 9.88617 7.88516C9.8909 7.8814 9.89556 7.87769 9.90015 7.87404L12.2048 6.04075C12.2544 6.00128 12.3006 5.96442 12.3438 5.92992C12.2886 5.92736 12.2295 5.92474 12.1662 5.92197L9.22412 5.79342C9.21826 5.79316 9.21231 5.79291 9.20627 5.79264C9.11555 5.78873 9.00578 5.78399 8.90916 5.76924C8.79168 5.75131 8.64161 5.71232 8.49586 5.60643C8.35011 5.50053 8.26665 5.36986 8.2133 5.26367C8.16941 5.17633 8.13098 5.07339 8.09922 4.98831C8.09711 4.98266 8.09503 4.97708 8.09298 4.9716L7.06157 2.21327C7.03937 2.15389 7.01861 2.09849 6.99913 2.0468ZM6.1703 0.929838C6.27128 0.74243 6.51352 0.351562 6.99913 0.351562C7.48474 0.351562 7.72697 0.742431 7.82796 0.929838C7.9422 1.14185 8.05266 1.43741 8.17141 1.75512C8.17611 1.76771 8.18083 1.78033 8.18556 1.79299L9.21697 4.55131C9.22253 4.5662 9.22766 4.5799 9.23244 4.59261C9.24601 4.59323 9.26062 4.59387 9.2765 4.59456L12.2589 4.72488C12.5978 4.73963 12.913 4.75336 13.15 4.79649C13.3594 4.83462 13.806 4.94422 13.956 5.40606C14.1061 5.8679 13.8092 6.21907 13.6622 6.37302C13.4959 6.54719 13.2489 6.74357 12.9834 6.95468L10.6472 8.81315C10.6348 8.82304 10.6233 8.83215 10.6127 8.84062C10.6163 8.85372 10.6202 8.86782 10.6245 8.88313L11.4113 11.7209C11.415 11.7339 11.4186 11.7469 11.4222 11.7599C11.5128 12.0867 11.5972 12.3907 11.6294 12.6294C11.6578 12.8404 11.6916 13.299 11.2987 13.5844C10.9059 13.8698 10.4802 13.696 10.2883 13.6038C10.0713 13.4994 9.80818 13.3252 9.52538 13.138C9.51417 13.1306 9.50292 13.1231 9.49165 13.1156L7.03592 11.4904C7.02267 11.4816 7.01047 11.4735 6.99913 11.466C6.98779 11.4735 6.97559 11.4816 6.96233 11.4904L4.50661 13.1156C4.49533 13.1231 4.48409 13.1306 4.47287 13.138C4.19007 13.3252 3.92699 13.4994 3.70995 13.6038C3.5181 13.696 3.09238 13.8698 2.69951 13.5844C2.30665 13.299 2.34042 12.8404 2.36888 12.6294C2.40107 12.3907 2.48543 12.0867 2.57611 11.7599L3.37379 8.88313C3.37804 8.86782 3.38195 8.85372 3.38556 8.84062C3.37494 8.83215 3.36349 8.82304 3.35105 8.81315L1.04645 6.97985C1.03588 6.97144 1.02533 6.96305 1.0148 6.95468C0.74934 6.74357 0.502389 6.54718 0.336058 6.37302C0.189029 6.21907 -0.107853 5.8679 0.0422079 5.40606C0.192269 4.94422 0.638861 4.83462 0.848302 4.79649C1.08524 4.75336 1.40046 4.73963 1.73931 4.72488C1.75274 4.72429 1.76621 4.72371 1.77971 4.72312L4.72175 4.59456C4.73763 4.59387 4.75225 4.59323 4.76582 4.59261C4.77059 4.5799 4.77572 4.5662 4.78129 4.55131L5.81269 1.79299C5.81743 1.78032 5.82215 1.76769 5.82686 1.75509C5.9456 1.43739 6.05606 1.14184 6.1703 0.929838Z" fill="white"/>
<path d="M6.93668 2.21327C6.95889 2.15389 6.97964 2.09849 6.99913 2.0468C7.01861 2.09849 7.03937 2.15389 7.06157 2.21327L8.09298 4.9716L8.09922 4.98831C8.13098 5.07339 8.16941 5.17633 8.2133 5.26367C8.26665 5.36986 8.35011 5.50053 8.49586 5.60643C8.64161 5.71232 8.79168 5.75131 8.90916 5.76924C9.00578 5.78399 9.11555 5.78873 9.20627 5.79264L9.22412 5.79342L12.1662 5.92197C12.2295 5.92474 12.2886 5.92736 12.3438 5.92992C12.3006 5.96442 12.2544 6.00128 12.2048 6.04075L9.90015 7.87404L9.88617 7.88516C9.81507 7.94165 9.72905 8.01 9.65956 8.07873C9.57505 8.16229 9.47656 8.28204 9.42089 8.45338C9.36522 8.62472 9.37451 8.77949 9.39376 8.89676C9.40959 8.99322 9.43901 9.09908 9.46332 9.18658L9.46809 9.20378L10.255 12.0416C10.2719 12.1026 10.2877 12.1597 10.3023 12.2129C10.2562 12.1826 10.2068 12.15 10.1539 12.115L7.69821 10.4897L7.68333 10.4798C7.60763 10.4297 7.51603 10.369 7.42919 10.3241C7.32361 10.2696 7.17929 10.2129 6.99913 10.2129C6.81897 10.2129 6.67464 10.2696 6.56906 10.3241C6.48222 10.369 6.39062 10.4297 6.31491 10.4798L6.30004 10.4897L3.84432 12.115C3.79145 12.15 3.7421 12.1826 3.69595 12.2129C3.71057 12.1597 3.72634 12.1026 3.74328 12.0416L4.53016 9.20378L4.53494 9.18656C4.55925 9.09907 4.58866 8.99321 4.60449 8.89676C4.62374 8.77949 4.63304 8.62472 4.57736 8.45338C4.52169 8.28204 4.4232 8.16229 4.3387 8.07873C4.2692 8.01001 4.18319 7.94166 4.11209 7.88516L4.0981 7.87404L1.7935 6.04075C1.74389 6.00128 1.69762 5.96442 1.65447 5.92992C1.70966 5.92736 1.76876 5.92474 1.8321 5.92197L4.77414 5.79342L4.79198 5.79264C4.88271 5.78873 4.99248 5.78399 5.0891 5.76924C5.20658 5.75131 5.35664 5.71232 5.5024 5.60643C5.64815 5.50053 5.7316 5.36986 5.78496 5.26367C5.82885 5.17633 5.86727 5.07339 5.89904 4.98831L5.90528 4.9716L6.93668 2.21327Z" fill="white"/>
</svg>
